G04*
G04 #@! TF.GenerationSoftware,Altium Limited,Altium Designer,20.0.1 (14)*
G04*
G04 Layer_Color=16711935*
%FSLAX25Y25*%
%MOIN*%
G70*
G01*
G75*
%ADD19C,0.02000*%
%ADD20C,0.05000*%
%ADD67R,0.09461X0.09461*%
%ADD68C,0.09461*%
%ADD69C,0.07887*%
%ADD70C,0.06706*%
%ADD71R,0.06706X0.06706*%
%ADD72R,0.06706X0.06706*%
%ADD73O,0.05800X0.04800*%
%ADD74C,0.05918*%
%ADD75C,0.08674*%
%ADD76C,0.05131*%
%ADD77C,0.07887*%
%ADD78C,0.05800*%
%ADD79C,0.14580*%
%ADD80C,0.03600*%
%ADD104R,0.10013X0.09400*%
%ADD105O,0.10642X0.24422*%
G04:AMPARAMS|DCode=106|XSize=106.42mil|YSize=244.22mil|CornerRadius=0mil|HoleSize=0mil|Usage=FLASHONLY|Rotation=180.000|XOffset=0mil|YOffset=0mil|HoleType=Round|Shape=Octagon|*
%AMOCTAGOND106*
4,1,8,0.02661,-0.12211,-0.02661,-0.12211,-0.05321,-0.09550,-0.05321,0.09550,-0.02661,0.12211,0.02661,0.12211,0.05321,0.09550,0.05321,-0.09550,0.02661,-0.12211,0.0*
%
%ADD106OCTAGOND106*%

D19*
X312311Y-19185D02*
G03*
X312311Y-19185I-6496J0D01*
G01*
X313811Y-306815D02*
G03*
X313811Y-306815I-6496J0D01*
G01*
X26681Y-308315D02*
G03*
X26681Y-308315I-6496J0D01*
G01*
X26181Y-19685D02*
G03*
X26181Y-19685I-6496J0D01*
G01*
D20*
X326500Y16D02*
X326500Y-328000D01*
X500Y16D02*
X326500D01*
X0Y-328000D02*
X326500D01*
X0D02*
Y516D01*
D67*
X100000Y-35500D02*
D03*
D68*
X90000D02*
D03*
X80000D02*
D03*
X70000D02*
D03*
X60000D02*
D03*
X50000D02*
D03*
D69*
X189000Y-223250D02*
D03*
Y-240750D02*
D03*
X214000D02*
D03*
Y-223250D02*
D03*
X259000Y-240750D02*
D03*
Y-223250D02*
D03*
X234000D02*
D03*
Y-240750D02*
D03*
X304000D02*
D03*
Y-223250D02*
D03*
X279000D02*
D03*
Y-240750D02*
D03*
X304000Y-285250D02*
D03*
Y-267750D02*
D03*
X279000D02*
D03*
Y-285250D02*
D03*
X259000D02*
D03*
Y-267750D02*
D03*
X234000D02*
D03*
Y-285250D02*
D03*
X214000Y-284750D02*
D03*
Y-267250D02*
D03*
X189000D02*
D03*
Y-284750D02*
D03*
D70*
X303000Y-139500D02*
D03*
Y-149500D02*
D03*
Y-159500D02*
D03*
Y-169500D02*
D03*
X294000Y-126000D02*
D03*
X284000D02*
D03*
X149902Y-71770D02*
D03*
X286000Y-149500D02*
D03*
Y-159500D02*
D03*
Y-169500D02*
D03*
X166657Y-26000D02*
D03*
X248439Y-87439D02*
D03*
X238439D02*
D03*
X228439D02*
D03*
X218439D02*
D03*
X198439D02*
D03*
X208439D02*
D03*
D71*
X303000Y-179500D02*
D03*
X286000D02*
D03*
D72*
X304000Y-126000D02*
D03*
X186343Y-26000D02*
D03*
X188439Y-87439D02*
D03*
D73*
X154500Y-112000D02*
D03*
Y-106400D02*
D03*
D74*
X119374Y-248000D02*
D03*
X111500D02*
D03*
X119374Y-270500D02*
D03*
X111500D02*
D03*
D75*
X56000Y-252500D02*
D03*
Y-272500D02*
D03*
Y-292500D02*
D03*
D76*
X150000Y-42243D02*
D03*
D77*
X299500Y-69000D02*
D03*
Y-59000D02*
D03*
Y-49000D02*
D03*
Y-39000D02*
D03*
D78*
X127000Y-131787D02*
D03*
Y-151000D02*
D03*
D79*
X170439Y-186561D02*
D03*
X266561Y-186439D02*
D03*
X266439Y-90817D02*
D03*
X170439Y-90939D02*
D03*
D80*
X92500Y-192500D02*
D03*
D104*
X132500Y-109100D02*
D03*
D105*
X150000Y-23148D02*
D03*
D106*
Y-90865D02*
D03*
M02*
