G04*
G04 #@! TF.GenerationSoftware,Altium Limited,Altium Designer,20.0.1 (14)*
G04*
G04 Layer_Color=8388736*
%FSLAX25Y25*%
%MOIN*%
G70*
G01*
G75*
%ADD19C,0.02000*%
%ADD20C,0.05000*%
%ADD44R,0.05800X0.05800*%
%ADD45R,0.05800X0.05800*%
%ADD46R,0.06800X0.05800*%
%ADD47R,0.04540X0.04343*%
%ADD48R,0.04540X0.04343*%
%ADD49R,0.07493X0.05131*%
%ADD50R,0.04343X0.04540*%
%ADD51R,0.04343X0.04540*%
%ADD52O,0.06902X0.01784*%
%ADD53O,0.01784X0.06902*%
%ADD54C,0.03800*%
%ADD55R,0.09855X0.09855*%
%ADD56O,0.03200X0.08800*%
%ADD57R,0.14580X0.09265*%
%ADD58R,0.05131X0.09265*%
%ADD59R,0.05131X0.09265*%
%ADD60R,0.04800X0.03950*%
%ADD61R,0.02729X0.04678*%
%ADD62R,0.06800X0.07099*%
%ADD63R,0.07099X0.06800*%
%ADD64R,0.06706X0.07099*%
%ADD65R,0.06800X0.14800*%
%ADD66O,0.08800X0.03200*%
%ADD67R,0.09461X0.09461*%
%ADD68C,0.09461*%
%ADD69C,0.07887*%
%ADD70C,0.06706*%
%ADD71R,0.06706X0.06706*%
%ADD72R,0.06706X0.06706*%
%ADD73O,0.05800X0.04800*%
%ADD74C,0.05918*%
%ADD75C,0.08674*%
%ADD76C,0.05131*%
%ADD77C,0.07887*%
%ADD78C,0.05800*%
%ADD79C,0.14580*%
%ADD80C,0.03600*%
D19*
X312311Y-19185D02*
G03*
X312311Y-19185I-6496J0D01*
G01*
X313811Y-306815D02*
G03*
X313811Y-306815I-6496J0D01*
G01*
X26681Y-308315D02*
G03*
X26681Y-308315I-6496J0D01*
G01*
X26181Y-19685D02*
G03*
X26181Y-19685I-6496J0D01*
G01*
D20*
X326500Y16D02*
X326500Y-328000D01*
X500Y16D02*
X326500D01*
X0Y-328000D02*
X326500D01*
X0D02*
Y516D01*
D44*
X152500Y-215000D02*
D03*
X143500D02*
D03*
X152500Y-227000D02*
D03*
X143500D02*
D03*
Y-239000D02*
D03*
X152500D02*
D03*
Y-291000D02*
D03*
X143500D02*
D03*
Y-299500D02*
D03*
X152500D02*
D03*
X286000Y-110500D02*
D03*
X295000D02*
D03*
X286000Y-101500D02*
D03*
X295000D02*
D03*
X269500Y-135000D02*
D03*
X260500D02*
D03*
X269500Y-148000D02*
D03*
X260500D02*
D03*
X186000Y-107500D02*
D03*
X177000D02*
D03*
X206000Y-104000D02*
D03*
X197000D02*
D03*
X265500Y-61500D02*
D03*
X256500D02*
D03*
X244500D02*
D03*
X235500D02*
D03*
X226500Y-53000D02*
D03*
X217500D02*
D03*
Y-61500D02*
D03*
X226500D02*
D03*
X167500Y-51500D02*
D03*
X176500D02*
D03*
X135500Y-104000D02*
D03*
X144500D02*
D03*
X135500Y-113500D02*
D03*
X144500D02*
D03*
X124500Y-169000D02*
D03*
X133500D02*
D03*
X124500Y-178000D02*
D03*
X133500D02*
D03*
X111376Y-287000D02*
D03*
X120376D02*
D03*
X63500Y-233500D02*
D03*
X54500D02*
D03*
Y-224500D02*
D03*
X63500D02*
D03*
X54500Y-215500D02*
D03*
X63500D02*
D03*
X28000Y-194500D02*
D03*
X19000D02*
D03*
X28000Y-186000D02*
D03*
X19000D02*
D03*
X77000Y-147500D02*
D03*
X86000D02*
D03*
X77000Y-156000D02*
D03*
X86000D02*
D03*
X77000Y-164500D02*
D03*
X86000D02*
D03*
X77000Y-173000D02*
D03*
X86000D02*
D03*
X52500Y-174000D02*
D03*
X61500D02*
D03*
Y-165000D02*
D03*
X52500D02*
D03*
Y-156000D02*
D03*
X61500D02*
D03*
X52500Y-147500D02*
D03*
X61500D02*
D03*
X34500Y-156500D02*
D03*
X43500D02*
D03*
X34500Y-147500D02*
D03*
X43500D02*
D03*
X25500Y-166500D02*
D03*
X34500D02*
D03*
X20000Y-131000D02*
D03*
X29000D02*
D03*
X20000Y-123000D02*
D03*
X29000D02*
D03*
X97000D02*
D03*
X88000D02*
D03*
X97000Y-132500D02*
D03*
X88000D02*
D03*
X112400Y-102500D02*
D03*
X103400D02*
D03*
X103500Y-111500D02*
D03*
X112500D02*
D03*
X68000Y-58500D02*
D03*
X77000D02*
D03*
X78000Y-88000D02*
D03*
X69000D02*
D03*
X28500Y-58500D02*
D03*
X37500D02*
D03*
X46500D02*
D03*
X55500D02*
D03*
Y-67000D02*
D03*
X46500D02*
D03*
X37500D02*
D03*
X28500D02*
D03*
X236500Y-130500D02*
D03*
X245500D02*
D03*
X226500Y-44500D02*
D03*
X217500D02*
D03*
D45*
X153000Y-248500D02*
D03*
Y-257500D02*
D03*
X143500Y-248500D02*
D03*
Y-257500D02*
D03*
X161000Y-279549D02*
D03*
Y-270549D02*
D03*
X170000D02*
D03*
Y-279549D02*
D03*
X304000Y-101500D02*
D03*
Y-110500D02*
D03*
Y-83000D02*
D03*
Y-92000D02*
D03*
X240500Y-53000D02*
D03*
Y-44000D02*
D03*
X249000Y-53000D02*
D03*
Y-44000D02*
D03*
X199000Y-44500D02*
D03*
Y-53500D02*
D03*
X208000D02*
D03*
Y-44500D02*
D03*
X135000Y-22000D02*
D03*
Y-31000D02*
D03*
X125500Y-22000D02*
D03*
Y-31000D02*
D03*
X152000Y-94500D02*
D03*
Y-85500D02*
D03*
X143000Y-127000D02*
D03*
Y-136000D02*
D03*
X153000D02*
D03*
Y-145000D02*
D03*
X143500Y-154500D02*
D03*
Y-145500D02*
D03*
X143000Y-178000D02*
D03*
Y-169000D02*
D03*
X63000Y-206000D02*
D03*
Y-197000D02*
D03*
X54500Y-206000D02*
D03*
Y-197000D02*
D03*
X25500Y-156500D02*
D03*
Y-147500D02*
D03*
X29000Y-111000D02*
D03*
Y-102000D02*
D03*
X20000Y-111000D02*
D03*
Y-102000D02*
D03*
X93500Y-93000D02*
D03*
Y-84000D02*
D03*
Y-102500D02*
D03*
Y-111500D02*
D03*
X112500Y-82000D02*
D03*
Y-91000D02*
D03*
X77000Y-76000D02*
D03*
Y-67000D02*
D03*
X68000Y-76000D02*
D03*
Y-67000D02*
D03*
X55500Y-78500D02*
D03*
Y-87500D02*
D03*
X93000Y-302500D02*
D03*
Y-293500D02*
D03*
X209500Y-180500D02*
D03*
Y-189500D02*
D03*
D46*
X174500Y-239000D02*
D03*
X162500D02*
D03*
X174500Y-227000D02*
D03*
X162500D02*
D03*
X174500Y-215000D02*
D03*
X162500D02*
D03*
D47*
X165374Y-248260D02*
D03*
X174626Y-252000D02*
D03*
X256248Y-44260D02*
D03*
X265500Y-48000D02*
D03*
X111252Y-298760D02*
D03*
X102000Y-295020D02*
D03*
X142874Y-21760D02*
D03*
X152126Y-25500D02*
D03*
D48*
X165374Y-255740D02*
D03*
X256248Y-51740D02*
D03*
X102000Y-302500D02*
D03*
X142874Y-29240D02*
D03*
D49*
X143500Y-269114D02*
D03*
Y-282500D02*
D03*
X152500Y-269114D02*
D03*
Y-282500D02*
D03*
D50*
X170240Y-290374D02*
D03*
X166500Y-299626D02*
D03*
X286000Y-93000D02*
D03*
X289740Y-83748D02*
D03*
X140500Y-94500D02*
D03*
X144240Y-85248D02*
D03*
D51*
X162760Y-290374D02*
D03*
X293480Y-93000D02*
D03*
X136760Y-85248D02*
D03*
D52*
X181154Y-130673D02*
D03*
Y-132642D02*
D03*
Y-134610D02*
D03*
Y-136579D02*
D03*
Y-138547D02*
D03*
Y-140516D02*
D03*
Y-142484D02*
D03*
Y-144453D02*
D03*
Y-146421D02*
D03*
Y-148390D02*
D03*
Y-150358D02*
D03*
Y-152327D02*
D03*
X212846D02*
D03*
Y-150358D02*
D03*
Y-148390D02*
D03*
Y-146421D02*
D03*
Y-144453D02*
D03*
Y-142484D02*
D03*
Y-140516D02*
D03*
Y-138547D02*
D03*
Y-136579D02*
D03*
Y-134610D02*
D03*
Y-132642D02*
D03*
Y-130673D02*
D03*
D53*
X186173Y-157346D02*
D03*
X188142D02*
D03*
X190110D02*
D03*
X192079D02*
D03*
X194047D02*
D03*
X196016D02*
D03*
X197984D02*
D03*
X199953D02*
D03*
X201921D02*
D03*
X203890D02*
D03*
X205858D02*
D03*
X207827D02*
D03*
Y-125654D02*
D03*
X205858D02*
D03*
X203890D02*
D03*
X201921D02*
D03*
X199953D02*
D03*
X197984D02*
D03*
X196016D02*
D03*
X194047D02*
D03*
X192079D02*
D03*
X190110D02*
D03*
X188142D02*
D03*
X186173D02*
D03*
D54*
X180500Y-125000D02*
D03*
D55*
X102000Y-314000D02*
D03*
X84284D02*
D03*
D56*
X99000Y-272000D02*
D03*
X94000D02*
D03*
X89000D02*
D03*
X84000D02*
D03*
Y-250000D02*
D03*
X89000D02*
D03*
X94000D02*
D03*
X99000D02*
D03*
X74000Y-108500D02*
D03*
X69000D02*
D03*
X64000D02*
D03*
X59000D02*
D03*
X53800D02*
D03*
X49000D02*
D03*
X44000D02*
D03*
Y-132500D02*
D03*
X49000D02*
D03*
X54000D02*
D03*
X59000D02*
D03*
X64000D02*
D03*
X69000D02*
D03*
X74000D02*
D03*
D57*
X28000Y-204000D02*
D03*
D58*
X37000Y-229000D02*
D03*
X19000D02*
D03*
D59*
X28000D02*
D03*
D60*
X61500Y-181500D02*
D03*
X68800D02*
D03*
D61*
X104500Y-91000D02*
D03*
Y-82201D02*
D03*
D62*
X99000Y-59400D02*
D03*
X112500D02*
D03*
X99000Y-71000D02*
D03*
X112500D02*
D03*
D63*
X88000Y-59400D02*
D03*
Y-72900D02*
D03*
X265500Y-22500D02*
D03*
Y-36000D02*
D03*
D64*
X117000Y-213500D02*
D03*
Y-231217D02*
D03*
D65*
X101000Y-224500D02*
D03*
X76000D02*
D03*
D66*
X242500Y-17500D02*
D03*
Y-22500D02*
D03*
Y-27500D02*
D03*
Y-32500D02*
D03*
X220500D02*
D03*
Y-27500D02*
D03*
Y-22500D02*
D03*
Y-17500D02*
D03*
D67*
X100000Y-35500D02*
D03*
D68*
X90000D02*
D03*
X80000D02*
D03*
X70000D02*
D03*
X60000D02*
D03*
X50000D02*
D03*
D69*
X189000Y-223250D02*
D03*
Y-240750D02*
D03*
X214000D02*
D03*
Y-223250D02*
D03*
X259000Y-240750D02*
D03*
Y-223250D02*
D03*
X234000D02*
D03*
Y-240750D02*
D03*
X304000D02*
D03*
Y-223250D02*
D03*
X279000D02*
D03*
Y-240750D02*
D03*
X304000Y-285250D02*
D03*
Y-267750D02*
D03*
X279000D02*
D03*
Y-285250D02*
D03*
X259000D02*
D03*
Y-267750D02*
D03*
X234000D02*
D03*
Y-285250D02*
D03*
X214000Y-284750D02*
D03*
Y-267250D02*
D03*
X189000D02*
D03*
Y-284750D02*
D03*
D70*
X303000Y-139500D02*
D03*
Y-149500D02*
D03*
Y-159500D02*
D03*
Y-169500D02*
D03*
X294000Y-126000D02*
D03*
X284000D02*
D03*
X149902Y-71770D02*
D03*
X286000Y-149500D02*
D03*
Y-159500D02*
D03*
Y-169500D02*
D03*
X166657Y-26000D02*
D03*
X248439Y-87439D02*
D03*
X238439D02*
D03*
X228439D02*
D03*
X218439D02*
D03*
X198439D02*
D03*
X208439D02*
D03*
D71*
X303000Y-179500D02*
D03*
X286000D02*
D03*
D72*
X304000Y-126000D02*
D03*
X186343Y-26000D02*
D03*
X188439Y-87439D02*
D03*
D73*
X154500Y-112000D02*
D03*
Y-106400D02*
D03*
D74*
X119374Y-248000D02*
D03*
X111500D02*
D03*
X119374Y-270500D02*
D03*
X111500D02*
D03*
D75*
X56000Y-252500D02*
D03*
Y-272500D02*
D03*
Y-292500D02*
D03*
D76*
X150000Y-42243D02*
D03*
D77*
X299500Y-69000D02*
D03*
Y-59000D02*
D03*
Y-49000D02*
D03*
Y-39000D02*
D03*
D78*
X127000Y-131787D02*
D03*
Y-151000D02*
D03*
D79*
X170439Y-186561D02*
D03*
X266561Y-186439D02*
D03*
X266439Y-90817D02*
D03*
X170439Y-90939D02*
D03*
D80*
X92500Y-192500D02*
D03*
M02*
