M48
;Layer_Color=9474304
;FILE_FORMAT=2:5
INCH,LZ
;TYPE=PLATED
T1F00S00C0.01000
T2F00S00C0.01500
T3F00S00C0.02800
T4F00S00C0.03150
T5F00S00C0.03543
T6F00S00C0.03937
T7F00S00C0.04724
T8F00S00C0.05118
T9F00S00C0.05906
T10F00S00C0.07874
;TYPE=NON_PLATED
T11F00S00C0.04331
T12F00S00C0.05906
%
T01
X0138Y-0178
X02165Y-01805
X02265Y-01385
X007825Y-004675
X00375Y-0048
X0184Y-01005
T02
X0019Y-0276
X00865Y-02815
X00815Y-0288
X0082Y-03005
X0102Y-0287
X0099Y-0281
X01375Y-0277
Y-0291
X0138Y-03005
X01185Y-03045
X01195Y-03175
X01575Y-0312
X0173
X0176Y-0298
X01765Y-0287
X0177Y-0276
X02015Y-02775
X0224Y-0277
X02485Y-02775
X02675
X02615Y-03005
X0254Y-03125
X0237Y-03115
X02355Y-03005
X02125Y-0299
X0213Y-03125
X019Y-03115
Y-0299
X01585Y-02955
Y-0286
X0272Y-03115
X02885Y-03005
X02925Y-02765
X0311Y-02785
X03105Y-02555
X02895Y-02565
X0291Y-02325
X0286Y-02085
X0273Y-02065
X02865Y-0191
X0305Y-01905
X0306Y-0208
X03115Y-01325
X0293Y-0135
X02805Y-01345
X02725Y-0126
X02755Y-01535
X02535Y-01545
X02525Y-0147
X0243Y-01505
X0245Y-01375
X0246Y-0123
X0258Y-0126
X0232Y-0142
X02245Y-0148
X023Y-01585
X02305Y-01655
X0229Y-0176
X02405
X0253Y-01765
X02505Y-01895
X02345
X02185
X02195Y-0203
X02115
X02305Y-0206
X02455Y-02065
X0263Y-0207
X0269Y-0175
X0213Y-01745
X02135Y-01645
X0219Y-01595
X0202Y-0146
X0197Y-01405
X0191976Y-0144476
X01925Y-01355
X0201
X0154Y-01275
X0155Y-0119
X01435Y-012
X01265Y-0118
X01195Y-01265
X01185Y-01435
X01195Y-01575
Y-0165
X01185Y-0178
X0116Y-02005
X01245Y-0203
X01395Y-02075
X01515Y-0209
X01675Y-02095
X0168Y-0221
X0156Y-02215
X01475
X01435Y-02335
X01535
X01595Y-02555
X0165Y-02645
X01525Y-0264
X0138Y-0263
X0175Y-0258
X01775Y-02665
X01885Y-0254
X02125Y-02555
X0234
X0261
X02455Y-02325
X02025Y-02345
X01995Y-02185
X0185Y-0215
X01805Y-0209
X01485Y-01745
X0149Y-0164
X01385Y-01645
X01335Y-01575
X01515Y-0152
X0107Y-01595
X00935Y-01625
Y-0155
X00925Y-0173
X00975Y-0177
X0097Y-0181
X0099Y-0185
X00875Y-01845
X00925Y-01925
X009Y-0197
X00995Y-01975
X0108Y-0199
X01095Y-0176
X008Y-0197
X00715
X0055Y-0183
X00485Y-01835
X00415Y-01665
X00345Y-01615
X0017Y-01665
X00125Y-01755
X0029Y-01375
X0059Y-01245
X0067Y-01475
X0074Y-01405
X0083Y-0133
X00875Y-01165
X01075Y-01205
X00705Y-0236
X002Y-02445
X0019Y-02555
Y-02665
X0029Y-00925
X00375Y-00745
X00555Y-00725
X00875Y-008
Y-0098
X01005Y-0096
X01055
Y-00535
X00935
X0121Y-00395
X0139Y-004
X01605Y-00405
X01785Y-00375
X01985Y-0034
X02035Y-00285
X0209Y-00235
Y-0015
X0199
X01985Y-00225
X0182Y-00155
X01665Y-00145
X01365Y-00155
X0125Y-00145
X0131Y-0067
X0148Y-00655
X0162Y-0071
X0172Y-00765
X0189Y-00795
X01855Y-0069
X0182Y-00585
X02055Y-0068
X02165
X0231Y-00685
X02315Y-008
X0213
X0251Y-00805
X0246Y-00685
X02575
X02695
X0266Y-01095
X0251
X024
X02285Y-011
X02545Y-00985
X02485Y-00375
X0239
X02245Y-0038
X0214
X02335Y-00195
X0232Y-00135
X02525Y-00145
X0267Y-0015
X013Y-0085
X0127Y-009
X01315Y-0097
X0126Y-0101
X0279Y-00875
X0272Y-00795
X0273Y-00615
X02705Y-00545
X02845Y-0053
Y-006
X0285Y-0069
X0297Y-0079
X0311Y-00945
Y-0114
X02835Y-0043
X02735Y-00415
X0275Y-00325
X0283Y-0016
T03
X0127Y-0151
Y-0131787
X02365Y-01235
X01105Y-01705
X01545Y-0112
Y-01064
X0159Y-0051
X01275Y-00515
T04
X0119374Y-02705
Y-0248
X01115
Y-02705
T05
X0286Y-01795
Y-01695
Y-01595
Y-01495
X0303
Y-01395
X0304Y-0126
X0294
X0284
X0303Y-01595
Y-01695
Y-01795
X0248439Y-0087439
X0238439
X0228439
X0218439
X0208439
X0198439
X0188439
X0186343Y-0026
X0166657
T06
X0189Y-028475
X0214
X0234Y-028525
X0259
X0279
X0304
Y-026775
X0279
Y-024075
Y-022325
X0304
Y-024075
X0259
Y-022325
X0234
Y-024075
X0214Y-024075
Y-022325
X0189
Y-024075
X0189Y-026725
X0214
X0234Y-026775
X0259
T07
X02995Y-0069
Y-0059
Y-0049
Y-0039
T08
X0056Y-02925
Y-02725
Y-02525
T09
X005Y-00355
X006
X007
X008
X009
X01
T10
X0170439Y-0186561
X0266561Y-0186439
X0266439Y-0090817
X0170439Y-0090939
T11
X015Y-0042243
T12
X0149902Y-007177
M30
