G04*
G04 #@! TF.GenerationSoftware,Altium Limited,Altium Designer,20.0.1 (14)*
G04*
G04 Layer_Physical_Order=2*
G04 Layer_Color=16711680*
%FSLAX25Y25*%
%MOIN*%
G70*
G01*
G75*
%ADD11C,0.00800*%
%ADD14C,0.01200*%
%ADD19C,0.02000*%
%ADD20C,0.05000*%
%ADD81C,0.01500*%
%ADD82C,0.03000*%
%ADD86R,0.08661X0.08661*%
%ADD87C,0.08661*%
%ADD88C,0.07087*%
%ADD89C,0.05906*%
%ADD90R,0.05906X0.05906*%
%ADD91R,0.05906X0.05906*%
%ADD92O,0.05000X0.04000*%
%ADD93C,0.05118*%
%ADD94C,0.07874*%
%ADD95C,0.04331*%
%ADD96C,0.07087*%
%ADD97C,0.05000*%
%ADD98C,0.13780*%
%ADD99C,0.02800*%
%ADD100C,0.02000*%
%ADD101R,0.09213X0.08600*%
%ADD102O,0.09843X0.23622*%
G04:AMPARAMS|DCode=103|XSize=98.43mil|YSize=236.22mil|CornerRadius=0mil|HoleSize=0mil|Usage=FLASHONLY|Rotation=180.000|XOffset=0mil|YOffset=0mil|HoleType=Round|Shape=Octagon|*
%AMOCTAGOND103*
4,1,8,0.02461,-0.11811,-0.02461,-0.11811,-0.04921,-0.09350,-0.04921,0.09350,-0.02461,0.11811,0.02461,0.11811,0.04921,0.09350,0.04921,-0.09350,0.02461,-0.11811,0.0*
%
%ADD103OCTAGOND103*%

G36*
X188112Y-22447D02*
X182790D01*
Y-29553D01*
X188112D01*
Y-54152D01*
X187650Y-54343D01*
X183153Y-49847D01*
X182624Y-49493D01*
X182000Y-49369D01*
X161656D01*
X161211Y-48789D01*
X160563Y-48292D01*
X159809Y-47980D01*
X159000Y-47873D01*
X158191Y-47980D01*
X157437Y-48292D01*
X156789Y-48789D01*
X156344Y-49369D01*
X129772D01*
X129711Y-49289D01*
X129063Y-48792D01*
X128309Y-48480D01*
X127500Y-48373D01*
X126691Y-48480D01*
X125937Y-48792D01*
X125289Y-49289D01*
X124792Y-49937D01*
X124480Y-50691D01*
X124373Y-51500D01*
X124480Y-52309D01*
X124792Y-53063D01*
X125289Y-53711D01*
X125937Y-54208D01*
X126691Y-54520D01*
X127500Y-54627D01*
X128309Y-54520D01*
X129063Y-54208D01*
X129711Y-53711D01*
X130208Y-53063D01*
X130387Y-52631D01*
X156344D01*
X156789Y-53211D01*
X157437Y-53708D01*
X158191Y-54020D01*
X159000Y-54127D01*
X159809Y-54020D01*
X160563Y-53708D01*
X161211Y-53211D01*
X161656Y-52631D01*
X181324D01*
X188112Y-59419D01*
Y-76031D01*
X196808D01*
Y-84269D01*
X196647Y-84336D01*
X195905Y-84905D01*
X195336Y-85647D01*
X194978Y-86511D01*
X194856Y-87439D01*
X194978Y-88366D01*
X195336Y-89231D01*
X195905Y-89973D01*
X196647Y-90542D01*
X197480Y-90887D01*
Y-96578D01*
X194578Y-99480D01*
X185243D01*
X185153Y-99347D01*
X184624Y-98993D01*
X184000Y-98869D01*
X183376Y-98993D01*
X182846Y-99347D01*
X182493Y-99876D01*
X182369Y-100500D01*
X182493Y-101124D01*
X182846Y-101654D01*
X183376Y-102007D01*
X184000Y-102131D01*
X184624Y-102007D01*
X185153Y-101654D01*
X185243Y-101520D01*
X195000D01*
X195390Y-101442D01*
X195721Y-101221D01*
X199221Y-97721D01*
X199442Y-97390D01*
X199520Y-97000D01*
Y-90837D01*
X200231Y-90542D01*
X200973Y-89973D01*
X201542Y-89231D01*
X201900Y-88366D01*
X202022Y-87439D01*
X201900Y-86511D01*
X201542Y-85647D01*
X200973Y-84905D01*
X200231Y-84336D01*
X200070Y-84269D01*
Y-76031D01*
X313612D01*
Y-133531D01*
X313612D01*
X313759Y-133885D01*
X313612Y-134031D01*
Y-149229D01*
X313150Y-149420D01*
X312365Y-148635D01*
X311968Y-148370D01*
X311500Y-148276D01*
X306339D01*
X306103Y-147708D01*
X305534Y-146966D01*
X304792Y-146397D01*
X303927Y-146039D01*
X303000Y-145917D01*
X302073Y-146039D01*
X301208Y-146397D01*
X300466Y-146966D01*
X299897Y-147708D01*
X299539Y-148573D01*
X299417Y-149500D01*
X299539Y-150427D01*
X299897Y-151292D01*
X300466Y-152034D01*
X301208Y-152603D01*
X302073Y-152961D01*
X303000Y-153083D01*
X303927Y-152961D01*
X304792Y-152603D01*
X305534Y-152034D01*
X306103Y-151292D01*
X306339Y-150724D01*
X310993D01*
X313612Y-153342D01*
Y-194658D01*
X311493Y-196776D01*
X135612D01*
Y-175031D01*
X117112D01*
Y-172131D01*
X136980D01*
Y-176757D01*
X136846Y-176847D01*
X136493Y-177376D01*
X136369Y-178000D01*
X136493Y-178624D01*
X136846Y-179154D01*
X137376Y-179507D01*
X138000Y-179631D01*
X138624Y-179507D01*
X139154Y-179154D01*
X139507Y-178624D01*
X139631Y-178000D01*
X139507Y-177376D01*
X139154Y-176847D01*
X139020Y-176757D01*
Y-172131D01*
X215480D01*
Y-179257D01*
X215347Y-179347D01*
X214993Y-179876D01*
X214869Y-180500D01*
X214993Y-181124D01*
X215347Y-181653D01*
X215876Y-182007D01*
X216500Y-182131D01*
X217124Y-182007D01*
X217653Y-181653D01*
X218007Y-181124D01*
X218131Y-180500D01*
X218007Y-179876D01*
X217653Y-179347D01*
X217520Y-179257D01*
Y-172131D01*
X270824D01*
X279346Y-180654D01*
X279876Y-181007D01*
X280500Y-181131D01*
X282447D01*
Y-183053D01*
X289553D01*
Y-181131D01*
X299447D01*
Y-183053D01*
X306553D01*
Y-175947D01*
X299447D01*
Y-177869D01*
X289553D01*
Y-175947D01*
X282447D01*
Y-177869D01*
X281176D01*
X272654Y-169346D01*
X272124Y-168993D01*
X271500Y-168869D01*
X238131D01*
Y-126156D01*
X238711Y-125711D01*
X239208Y-125063D01*
X239520Y-124309D01*
X239627Y-123500D01*
X239520Y-122691D01*
X239208Y-121937D01*
X238711Y-121289D01*
X238063Y-120792D01*
X237309Y-120480D01*
X236500Y-120373D01*
X235691Y-120480D01*
X234937Y-120792D01*
X234289Y-121289D01*
X233792Y-121937D01*
X233480Y-122691D01*
X233373Y-123500D01*
X233480Y-124309D01*
X233792Y-125063D01*
X234289Y-125711D01*
X234869Y-126156D01*
Y-168869D01*
X117112D01*
Y-11531D01*
X145684D01*
X145852Y-12002D01*
X145793Y-12051D01*
X145053Y-12953D01*
X144503Y-13982D01*
X144164Y-15098D01*
X144050Y-16258D01*
Y-22648D01*
X150000D01*
X155950D01*
Y-16258D01*
X155836Y-15098D01*
X155497Y-13982D01*
X154947Y-12953D01*
X154207Y-12051D01*
X154148Y-12002D01*
X154316Y-11531D01*
X188112D01*
Y-22447D01*
D02*
G37*
G36*
X287500Y-71000D02*
X200070D01*
Y-67439D01*
X199946Y-66815D01*
X199592Y-66285D01*
X193500Y-60193D01*
Y-11500D01*
X287500D01*
Y-71000D01*
D02*
G37*
G36*
X81027Y-128427D02*
X80565Y-128618D01*
X75473Y-123527D01*
X75027Y-123228D01*
X74500Y-123124D01*
X60486D01*
X60442Y-123058D01*
X59780Y-122616D01*
X59000Y-122461D01*
X58220Y-122616D01*
X57558Y-123058D01*
X57116Y-123720D01*
X56961Y-124500D01*
X57116Y-125280D01*
X57558Y-125942D01*
X58220Y-126384D01*
X59000Y-126539D01*
X59780Y-126384D01*
X60442Y-125942D01*
X60486Y-125876D01*
X73930D01*
X80976Y-132923D01*
X80961Y-133000D01*
X81027Y-133331D01*
Y-177988D01*
X22027Y-177988D01*
Y-168131D01*
X40342D01*
X40720Y-168384D01*
X41500Y-168539D01*
X42280Y-168384D01*
X42942Y-167942D01*
X43384Y-167280D01*
X43539Y-166500D01*
X43384Y-165720D01*
X42942Y-165058D01*
X42280Y-164616D01*
X41500Y-164461D01*
X40720Y-164616D01*
X40342Y-164869D01*
X22027D01*
X22027Y-138876D01*
X27514D01*
X27558Y-138942D01*
X28220Y-139384D01*
X29000Y-139539D01*
X29780Y-139384D01*
X30442Y-138942D01*
X30884Y-138280D01*
X31039Y-137500D01*
X30884Y-136720D01*
X30442Y-136058D01*
X29780Y-135616D01*
X29000Y-135461D01*
X28220Y-135616D01*
X27558Y-136058D01*
X27514Y-136124D01*
X22027D01*
X22027Y-43488D01*
X81027Y-43488D01*
Y-128427D01*
D02*
G37*
G36*
X113365Y-168320D02*
X112865Y-168490D01*
X112711Y-168289D01*
X112063Y-167792D01*
X111309Y-167480D01*
X110500Y-167373D01*
X109691Y-167480D01*
X108937Y-167792D01*
X108289Y-168289D01*
X107844Y-168869D01*
X95217D01*
X94592Y-168993D01*
X94063Y-169346D01*
X92455Y-170955D01*
X92443Y-170972D01*
X91720Y-171116D01*
X91058Y-171558D01*
X90616Y-172220D01*
X90461Y-173000D01*
X90616Y-173780D01*
X90869Y-174158D01*
Y-191342D01*
X90616Y-191720D01*
X90461Y-192500D01*
X90616Y-193280D01*
X91058Y-193942D01*
X91720Y-194384D01*
X92500Y-194539D01*
X93280Y-194384D01*
X93942Y-193942D01*
X94384Y-193280D01*
X94539Y-192500D01*
X94384Y-191720D01*
X94131Y-191342D01*
Y-174158D01*
X94384Y-173780D01*
X94445Y-173473D01*
X94762Y-173262D01*
X95892Y-172131D01*
X107844D01*
X108289Y-172711D01*
X108937Y-173208D01*
X109691Y-173520D01*
X110500Y-173627D01*
X111309Y-173520D01*
X112063Y-173208D01*
X112711Y-172711D01*
X112865Y-172510D01*
X113365Y-172680D01*
Y-181365D01*
X117277D01*
Y-194000D01*
X117370Y-194468D01*
X117635Y-194865D01*
X121635Y-198865D01*
X122032Y-199130D01*
X122500Y-199223D01*
X130865D01*
Y-232277D01*
X115500D01*
X115032Y-232370D01*
X114635Y-232635D01*
X110635Y-236635D01*
X110370Y-237032D01*
X110276Y-237500D01*
Y-245088D01*
X109907Y-245241D01*
X109247Y-245747D01*
X108741Y-246407D01*
X108422Y-247175D01*
X108314Y-248000D01*
X108422Y-248825D01*
X108741Y-249593D01*
X109247Y-250253D01*
X109907Y-250759D01*
X110675Y-251078D01*
X111500Y-251186D01*
X112325Y-251078D01*
X113093Y-250759D01*
X113753Y-250253D01*
X114259Y-249593D01*
X114578Y-248825D01*
X114686Y-248000D01*
X114578Y-247175D01*
X114259Y-246407D01*
X113753Y-245747D01*
X113093Y-245241D01*
X112724Y-245088D01*
Y-238007D01*
X116007Y-234723D01*
X130865D01*
X130865Y-285776D01*
X103588D01*
X103442Y-285558D01*
X102780Y-285116D01*
X102000Y-284961D01*
X101220Y-285116D01*
X100558Y-285558D01*
X100116Y-286220D01*
X99961Y-287000D01*
X100116Y-287780D01*
X100558Y-288442D01*
X101220Y-288884D01*
X102000Y-289039D01*
X102780Y-288884D01*
X103442Y-288442D01*
X103588Y-288224D01*
X130865D01*
Y-321365D01*
X74865D01*
Y-281365D01*
X8865D01*
Y-181365D01*
X85365D01*
Y-50365D01*
X113365D01*
X113365Y-168320D01*
D02*
G37*
G36*
X313612Y-198771D02*
Y-300984D01*
X313141Y-301153D01*
X313067Y-301062D01*
X311835Y-300051D01*
X310428Y-299299D01*
X308902Y-298836D01*
X307315Y-298680D01*
X305728Y-298836D01*
X304202Y-299299D01*
X302795Y-300051D01*
X301562Y-301062D01*
X300551Y-302295D01*
X299799Y-303702D01*
X299336Y-305228D01*
X299180Y-306815D01*
X299336Y-308402D01*
X299799Y-309928D01*
X300551Y-311335D01*
X301562Y-312567D01*
X302795Y-313579D01*
X304202Y-314331D01*
X305728Y-314794D01*
X307315Y-314950D01*
X308902Y-314794D01*
X310428Y-314331D01*
X311835Y-313579D01*
X313067Y-312567D01*
X313141Y-312477D01*
X313612Y-312646D01*
Y-316531D01*
X135612D01*
Y-288224D01*
X149500D01*
X149968Y-288130D01*
X150365Y-287865D01*
X153365Y-284865D01*
X153630Y-284468D01*
X153724Y-284000D01*
Y-265588D01*
X153942Y-265442D01*
X154384Y-264780D01*
X154539Y-264000D01*
X154384Y-263220D01*
X153942Y-262558D01*
X153280Y-262116D01*
X152500Y-261961D01*
X151720Y-262116D01*
X151058Y-262558D01*
X150616Y-263220D01*
X150461Y-264000D01*
X150616Y-264780D01*
X151058Y-265442D01*
X151277Y-265588D01*
Y-283493D01*
X148993Y-285776D01*
X135612D01*
Y-234723D01*
X141912D01*
X142058Y-234942D01*
X142720Y-235384D01*
X143500Y-235539D01*
X144280Y-235384D01*
X144942Y-234942D01*
X145384Y-234280D01*
X145539Y-233500D01*
X145384Y-232720D01*
X144942Y-232058D01*
X144280Y-231616D01*
X143500Y-231461D01*
X142720Y-231616D01*
X142058Y-232058D01*
X141912Y-232277D01*
X135612D01*
Y-199223D01*
X312000D01*
X312468Y-199130D01*
X312865Y-198865D01*
X313150Y-198580D01*
X313612Y-198771D01*
D02*
G37*
%LPC*%
G36*
X166657Y-22417D02*
X165730Y-22539D01*
X164866Y-22897D01*
X164124Y-23466D01*
X163554Y-24208D01*
X163196Y-25073D01*
X163074Y-26000D01*
X163196Y-26927D01*
X163554Y-27792D01*
X164124Y-28534D01*
X164866Y-29103D01*
X165730Y-29461D01*
X166657Y-29583D01*
X167585Y-29461D01*
X168449Y-29103D01*
X169191Y-28534D01*
X169761Y-27792D01*
X170119Y-26927D01*
X170241Y-26000D01*
X170119Y-25073D01*
X169761Y-24208D01*
X169191Y-23466D01*
X168449Y-22897D01*
X167585Y-22539D01*
X166657Y-22417D01*
D02*
G37*
G36*
X155950Y-23648D02*
X150500D01*
Y-35939D01*
X151161Y-35873D01*
X152277Y-35535D01*
X153306Y-34985D01*
X154207Y-34245D01*
X154947Y-33343D01*
X155497Y-32315D01*
X155836Y-31199D01*
X155950Y-30038D01*
Y-23648D01*
D02*
G37*
G36*
X149500D02*
X144050D01*
Y-30038D01*
X144164Y-31199D01*
X144503Y-32315D01*
X145053Y-33343D01*
X145793Y-34245D01*
X146694Y-34985D01*
X147723Y-35535D01*
X148839Y-35873D01*
X149500Y-35939D01*
Y-23648D01*
D02*
G37*
G36*
X150000Y-39453D02*
X149278Y-39548D01*
X148605Y-39827D01*
X148028Y-40270D01*
X147584Y-40848D01*
X147306Y-41521D01*
X147211Y-42243D01*
X147306Y-42965D01*
X147584Y-43637D01*
X148028Y-44215D01*
X148605Y-44658D01*
X149278Y-44937D01*
X150000Y-45032D01*
X150722Y-44937D01*
X151395Y-44658D01*
X151972Y-44215D01*
X152416Y-43637D01*
X152694Y-42965D01*
X152789Y-42243D01*
X152694Y-41521D01*
X152416Y-40848D01*
X151972Y-40270D01*
X151395Y-39827D01*
X150722Y-39548D01*
X150000Y-39453D01*
D02*
G37*
G36*
X149902Y-68187D02*
X148974Y-68309D01*
X148110Y-68667D01*
X147368Y-69236D01*
X146798Y-69978D01*
X146440Y-70843D01*
X146318Y-71770D01*
X146440Y-72698D01*
X146798Y-73562D01*
X147368Y-74304D01*
X148110Y-74873D01*
X148974Y-75231D01*
X149902Y-75353D01*
X150829Y-75231D01*
X151693Y-74873D01*
X152435Y-74304D01*
X153005Y-73562D01*
X153363Y-72698D01*
X153485Y-71770D01*
X153363Y-70843D01*
X153005Y-69978D01*
X152435Y-69236D01*
X151693Y-68667D01*
X150829Y-68309D01*
X149902Y-68187D01*
D02*
G37*
G36*
X192392Y-83486D02*
X188939D01*
Y-86939D01*
X192392D01*
Y-83486D01*
D02*
G37*
G36*
X187939D02*
X184486D01*
Y-86939D01*
X187939D01*
Y-83486D01*
D02*
G37*
G36*
X152761Y-78454D02*
X147239D01*
X144479Y-81214D01*
Y-88776D01*
X131507D01*
X131223Y-88493D01*
Y-86588D01*
X131442Y-86442D01*
X131884Y-85780D01*
X132039Y-85000D01*
X131884Y-84220D01*
X131442Y-83558D01*
X130780Y-83116D01*
X130000Y-82961D01*
X129220Y-83116D01*
X128558Y-83558D01*
X128116Y-84220D01*
X127961Y-85000D01*
X128116Y-85780D01*
X128558Y-86442D01*
X128777Y-86588D01*
Y-89000D01*
X128870Y-89468D01*
X129135Y-89865D01*
X130135Y-90865D01*
X130532Y-91130D01*
X131000Y-91224D01*
X144479D01*
Y-100515D01*
X147239Y-103276D01*
X152761D01*
X155521Y-100515D01*
Y-81214D01*
X152761Y-78454D01*
D02*
G37*
G36*
X248439Y-83856D02*
X247512Y-83978D01*
X246647Y-84336D01*
X245905Y-84905D01*
X245336Y-85647D01*
X244978Y-86511D01*
X244856Y-87439D01*
X244978Y-88366D01*
X245336Y-89231D01*
X245905Y-89973D01*
X246647Y-90542D01*
X247512Y-90900D01*
X248439Y-91022D01*
X249366Y-90900D01*
X250231Y-90542D01*
X250973Y-89973D01*
X251542Y-89231D01*
X251900Y-88366D01*
X252022Y-87439D01*
X251900Y-86511D01*
X251542Y-85647D01*
X250973Y-84905D01*
X250231Y-84336D01*
X249366Y-83978D01*
X248439Y-83856D01*
D02*
G37*
G36*
X238439D02*
X237511Y-83978D01*
X236647Y-84336D01*
X235905Y-84905D01*
X235336Y-85647D01*
X234978Y-86511D01*
X234856Y-87439D01*
X234978Y-88366D01*
X235336Y-89231D01*
X235905Y-89973D01*
X236647Y-90542D01*
X237511Y-90900D01*
X238439Y-91022D01*
X239366Y-90900D01*
X240231Y-90542D01*
X240973Y-89973D01*
X241542Y-89231D01*
X241900Y-88366D01*
X242022Y-87439D01*
X241900Y-86511D01*
X241542Y-85647D01*
X240973Y-84905D01*
X240231Y-84336D01*
X239366Y-83978D01*
X238439Y-83856D01*
D02*
G37*
G36*
X228439D02*
X227512Y-83978D01*
X226647Y-84336D01*
X225905Y-84905D01*
X225336Y-85647D01*
X224978Y-86511D01*
X224856Y-87439D01*
X224978Y-88366D01*
X225336Y-89231D01*
X225905Y-89973D01*
X226647Y-90542D01*
X227512Y-90900D01*
X228439Y-91022D01*
X229366Y-90900D01*
X230231Y-90542D01*
X230973Y-89973D01*
X231542Y-89231D01*
X231900Y-88366D01*
X232022Y-87439D01*
X231900Y-86511D01*
X231542Y-85647D01*
X230973Y-84905D01*
X230231Y-84336D01*
X229366Y-83978D01*
X228439Y-83856D01*
D02*
G37*
G36*
X218439D02*
X217512Y-83978D01*
X216647Y-84336D01*
X215905Y-84905D01*
X215336Y-85647D01*
X214978Y-86511D01*
X214856Y-87439D01*
X214978Y-88366D01*
X215336Y-89231D01*
X215905Y-89973D01*
X216647Y-90542D01*
X217512Y-90900D01*
X218439Y-91022D01*
X219366Y-90900D01*
X220231Y-90542D01*
X220973Y-89973D01*
X221542Y-89231D01*
X221900Y-88366D01*
X222022Y-87439D01*
X221900Y-86511D01*
X221542Y-85647D01*
X220973Y-84905D01*
X220231Y-84336D01*
X219366Y-83978D01*
X218439Y-83856D01*
D02*
G37*
G36*
X208439D02*
X207511Y-83978D01*
X206647Y-84336D01*
X205905Y-84905D01*
X205336Y-85647D01*
X204978Y-86511D01*
X204856Y-87439D01*
X204978Y-88366D01*
X205336Y-89231D01*
X205905Y-89973D01*
X206647Y-90542D01*
X207511Y-90900D01*
X208439Y-91022D01*
X209366Y-90900D01*
X210231Y-90542D01*
X210973Y-89973D01*
X211542Y-89231D01*
X211900Y-88366D01*
X212022Y-87439D01*
X211900Y-86511D01*
X211542Y-85647D01*
X210973Y-84905D01*
X210231Y-84336D01*
X209366Y-83978D01*
X208439Y-83856D01*
D02*
G37*
G36*
X192392Y-87939D02*
X188939D01*
Y-91392D01*
X192392D01*
Y-87939D01*
D02*
G37*
G36*
X187939D02*
X184486D01*
Y-91392D01*
X187939D01*
Y-87939D01*
D02*
G37*
G36*
X266439Y-83291D02*
X264971Y-83435D01*
X263559Y-83864D01*
X262258Y-84559D01*
X261117Y-85495D01*
X260181Y-86636D01*
X259486Y-87937D01*
X259058Y-89349D01*
X258913Y-90817D01*
X259058Y-92285D01*
X259486Y-93697D01*
X260181Y-94998D01*
X261117Y-96139D01*
X262258Y-97075D01*
X263559Y-97770D01*
X264971Y-98198D01*
X266439Y-98343D01*
X267907Y-98198D01*
X269319Y-97770D01*
X270620Y-97075D01*
X271761Y-96139D01*
X272697Y-94998D01*
X273392Y-93697D01*
X273820Y-92285D01*
X273965Y-90817D01*
X273820Y-89349D01*
X273392Y-87937D01*
X272697Y-86636D01*
X271761Y-85495D01*
X270620Y-84559D01*
X269319Y-83864D01*
X267907Y-83435D01*
X266439Y-83291D01*
D02*
G37*
G36*
X170439Y-83413D02*
X168971Y-83558D01*
X167559Y-83986D01*
X166258Y-84681D01*
X165117Y-85617D01*
X164181Y-86758D01*
X163486Y-88059D01*
X163058Y-89471D01*
X162913Y-90939D01*
X163058Y-92407D01*
X163486Y-93819D01*
X164181Y-95120D01*
X165117Y-96261D01*
X166258Y-97197D01*
X167559Y-97892D01*
X168971Y-98320D01*
X170439Y-98465D01*
X171907Y-98320D01*
X173319Y-97892D01*
X174620Y-97197D01*
X175761Y-96261D01*
X176697Y-95120D01*
X177392Y-93819D01*
X177820Y-92407D01*
X177965Y-90939D01*
X177820Y-89471D01*
X177392Y-88059D01*
X176697Y-86758D01*
X175761Y-85617D01*
X174620Y-84681D01*
X173319Y-83986D01*
X171907Y-83558D01*
X170439Y-83413D01*
D02*
G37*
G36*
X137706Y-104200D02*
X127294D01*
Y-114000D01*
X137706D01*
Y-104200D01*
D02*
G37*
G36*
X155000Y-103778D02*
X154000D01*
X153321Y-103867D01*
X152689Y-104129D01*
X152146Y-104546D01*
X151729Y-105089D01*
X151467Y-105721D01*
X151378Y-106400D01*
X151467Y-107079D01*
X151729Y-107711D01*
X152146Y-108254D01*
X152689Y-108671D01*
X153321Y-108933D01*
X153433Y-108948D01*
Y-109452D01*
X153321Y-109467D01*
X152689Y-109729D01*
X152146Y-110146D01*
X151729Y-110689D01*
X151467Y-111321D01*
X151378Y-112000D01*
X151467Y-112679D01*
X151729Y-113311D01*
X152146Y-113854D01*
X152689Y-114271D01*
X153321Y-114533D01*
X154000Y-114622D01*
X155000D01*
X155679Y-114533D01*
X156311Y-114271D01*
X156854Y-113854D01*
X157271Y-113311D01*
X157533Y-112679D01*
X157622Y-112000D01*
X157533Y-111321D01*
X157271Y-110689D01*
X156854Y-110146D01*
X156311Y-109729D01*
X155679Y-109467D01*
X155567Y-109452D01*
Y-108948D01*
X155679Y-108933D01*
X156311Y-108671D01*
X156854Y-108254D01*
X157271Y-107711D01*
X157533Y-107079D01*
X157622Y-106400D01*
X157533Y-105721D01*
X157271Y-105089D01*
X156854Y-104546D01*
X156311Y-104129D01*
X155679Y-103867D01*
X155000Y-103778D01*
D02*
G37*
G36*
X307553Y-122447D02*
X300447D01*
Y-129553D01*
X307553D01*
Y-122447D01*
D02*
G37*
G36*
X292000Y-115480D02*
X229000D01*
X228610Y-115558D01*
X228279Y-115779D01*
X225779Y-118279D01*
X225558Y-118610D01*
X225480Y-119000D01*
Y-137257D01*
X225346Y-137346D01*
X224993Y-137876D01*
X224869Y-138500D01*
X224993Y-139124D01*
X225346Y-139654D01*
X225876Y-140007D01*
X226500Y-140131D01*
X227124Y-140007D01*
X227654Y-139654D01*
X228007Y-139124D01*
X228131Y-138500D01*
X228007Y-137876D01*
X227654Y-137346D01*
X227520Y-137257D01*
Y-119422D01*
X229422Y-117520D01*
X291578D01*
X292980Y-118922D01*
Y-122577D01*
X292208Y-122897D01*
X291466Y-123466D01*
X290897Y-124208D01*
X290539Y-125073D01*
X290417Y-126000D01*
X290539Y-126927D01*
X290897Y-127792D01*
X291466Y-128534D01*
X292208Y-129103D01*
X293073Y-129461D01*
X294000Y-129583D01*
X294927Y-129461D01*
X295792Y-129103D01*
X296534Y-128534D01*
X297103Y-127792D01*
X297461Y-126927D01*
X297583Y-126000D01*
X297461Y-125073D01*
X297103Y-124208D01*
X296534Y-123466D01*
X295792Y-122897D01*
X295020Y-122577D01*
Y-118500D01*
X294942Y-118110D01*
X294721Y-117779D01*
X292721Y-115779D01*
X292390Y-115558D01*
X292000Y-115480D01*
D02*
G37*
G36*
X284000Y-122417D02*
X283073Y-122539D01*
X282208Y-122897D01*
X281466Y-123466D01*
X280897Y-124208D01*
X280539Y-125073D01*
X280417Y-126000D01*
X280539Y-126927D01*
X280897Y-127792D01*
X281466Y-128534D01*
X282208Y-129103D01*
X283073Y-129461D01*
X284000Y-129583D01*
X284927Y-129461D01*
X285792Y-129103D01*
X286534Y-128534D01*
X287103Y-127792D01*
X287461Y-126927D01*
X287583Y-126000D01*
X287461Y-125073D01*
X287103Y-124208D01*
X286534Y-123466D01*
X285792Y-122897D01*
X284927Y-122539D01*
X284000Y-122417D01*
D02*
G37*
G36*
X127000Y-128661D02*
X126191Y-128767D01*
X125437Y-129080D01*
X124789Y-129576D01*
X124292Y-130224D01*
X123980Y-130978D01*
X123873Y-131787D01*
X123980Y-132597D01*
X124292Y-133351D01*
X124789Y-133998D01*
X125437Y-134495D01*
X126191Y-134808D01*
X127000Y-134914D01*
X127809Y-134808D01*
X128563Y-134495D01*
X129211Y-133998D01*
X129708Y-133351D01*
X130020Y-132597D01*
X130127Y-131787D01*
X130020Y-130978D01*
X129708Y-130224D01*
X129211Y-129576D01*
X128563Y-129080D01*
X127809Y-128767D01*
X127000Y-128661D01*
D02*
G37*
G36*
X303500Y-135579D02*
Y-139000D01*
X306921D01*
X306851Y-138468D01*
X306453Y-137507D01*
X305819Y-136681D01*
X304993Y-136047D01*
X304032Y-135649D01*
X303500Y-135579D01*
D02*
G37*
G36*
X302500D02*
X301968Y-135649D01*
X301007Y-136047D01*
X300181Y-136681D01*
X299547Y-137507D01*
X299149Y-138468D01*
X299079Y-139000D01*
X302500D01*
Y-135579D01*
D02*
G37*
G36*
X306921Y-140000D02*
X303500D01*
Y-143421D01*
X304032Y-143351D01*
X304993Y-142953D01*
X305819Y-142319D01*
X306453Y-141493D01*
X306851Y-140532D01*
X306921Y-140000D01*
D02*
G37*
G36*
X302500D02*
X299079D01*
X299149Y-140532D01*
X299547Y-141493D01*
X300181Y-142319D01*
X301007Y-142953D01*
X301968Y-143351D01*
X302500Y-143421D01*
Y-140000D01*
D02*
G37*
G36*
X286500Y-145579D02*
Y-149000D01*
X289921D01*
X289851Y-148468D01*
X289453Y-147507D01*
X288819Y-146681D01*
X287993Y-146047D01*
X287032Y-145649D01*
X286500Y-145579D01*
D02*
G37*
G36*
X285500D02*
X284968Y-145649D01*
X284007Y-146047D01*
X283181Y-146681D01*
X282547Y-147507D01*
X282149Y-148468D01*
X282079Y-149000D01*
X285500D01*
Y-145579D01*
D02*
G37*
G36*
X289921Y-150000D02*
X286500D01*
Y-153421D01*
X287032Y-153351D01*
X287993Y-152953D01*
X288819Y-152319D01*
X289453Y-151493D01*
X289851Y-150532D01*
X289921Y-150000D01*
D02*
G37*
G36*
X285500D02*
X282079D01*
X282149Y-150532D01*
X282547Y-151493D01*
X283181Y-152319D01*
X284007Y-152953D01*
X284968Y-153351D01*
X285500Y-153421D01*
Y-150000D01*
D02*
G37*
G36*
X127000Y-147873D02*
X126191Y-147980D01*
X125437Y-148292D01*
X124789Y-148789D01*
X124292Y-149437D01*
X123980Y-150191D01*
X123873Y-151000D01*
X123980Y-151809D01*
X124292Y-152563D01*
X124789Y-153211D01*
X125437Y-153708D01*
X126191Y-154020D01*
X127000Y-154127D01*
X127809Y-154020D01*
X128563Y-153708D01*
X129211Y-153211D01*
X129708Y-152563D01*
X130020Y-151809D01*
X130127Y-151000D01*
X130020Y-150191D01*
X129708Y-149437D01*
X129211Y-148789D01*
X128563Y-148292D01*
X127809Y-147980D01*
X127000Y-147873D01*
D02*
G37*
G36*
X303000Y-155917D02*
X302073Y-156039D01*
X301208Y-156397D01*
X300466Y-156966D01*
X299897Y-157708D01*
X299539Y-158573D01*
X299417Y-159500D01*
X299539Y-160427D01*
X299897Y-161292D01*
X300466Y-162034D01*
X301208Y-162603D01*
X302073Y-162961D01*
X303000Y-163083D01*
X303927Y-162961D01*
X304792Y-162603D01*
X305534Y-162034D01*
X306103Y-161292D01*
X306461Y-160427D01*
X306583Y-159500D01*
X306461Y-158573D01*
X306103Y-157708D01*
X305534Y-156966D01*
X304792Y-156397D01*
X303927Y-156039D01*
X303000Y-155917D01*
D02*
G37*
G36*
X286000D02*
X285073Y-156039D01*
X284208Y-156397D01*
X283466Y-156966D01*
X282897Y-157708D01*
X282539Y-158573D01*
X282417Y-159500D01*
X282539Y-160427D01*
X282897Y-161292D01*
X283466Y-162034D01*
X284208Y-162603D01*
X285073Y-162961D01*
X286000Y-163083D01*
X286927Y-162961D01*
X287792Y-162603D01*
X288534Y-162034D01*
X289103Y-161292D01*
X289461Y-160427D01*
X289583Y-159500D01*
X289461Y-158573D01*
X289103Y-157708D01*
X288534Y-156966D01*
X287792Y-156397D01*
X286927Y-156039D01*
X286000Y-155917D01*
D02*
G37*
G36*
X303000Y-165917D02*
X302073Y-166039D01*
X301208Y-166397D01*
X300466Y-166966D01*
X299897Y-167708D01*
X299539Y-168573D01*
X299417Y-169500D01*
X299539Y-170427D01*
X299897Y-171292D01*
X300466Y-172034D01*
X301208Y-172603D01*
X302073Y-172961D01*
X303000Y-173083D01*
X303927Y-172961D01*
X304792Y-172603D01*
X305534Y-172034D01*
X306103Y-171292D01*
X306461Y-170427D01*
X306583Y-169500D01*
X306461Y-168573D01*
X306103Y-167708D01*
X305534Y-166966D01*
X304792Y-166397D01*
X303927Y-166039D01*
X303000Y-165917D01*
D02*
G37*
G36*
X286000D02*
X285073Y-166039D01*
X284208Y-166397D01*
X283466Y-166966D01*
X282897Y-167708D01*
X282539Y-168573D01*
X282417Y-169500D01*
X282539Y-170427D01*
X282897Y-171292D01*
X283466Y-172034D01*
X284208Y-172603D01*
X285073Y-172961D01*
X286000Y-173083D01*
X286927Y-172961D01*
X287792Y-172603D01*
X288534Y-172034D01*
X289103Y-171292D01*
X289461Y-170427D01*
X289583Y-169500D01*
X289461Y-168573D01*
X289103Y-167708D01*
X288534Y-166966D01*
X287792Y-166397D01*
X286927Y-166039D01*
X286000Y-165917D01*
D02*
G37*
G36*
X266561Y-178913D02*
X265093Y-179058D01*
X263681Y-179486D01*
X262380Y-180181D01*
X261239Y-181117D01*
X260303Y-182258D01*
X259608Y-183559D01*
X259180Y-184971D01*
X259035Y-186439D01*
X259180Y-187907D01*
X259608Y-189319D01*
X260303Y-190620D01*
X261239Y-191761D01*
X262380Y-192697D01*
X263681Y-193392D01*
X265093Y-193820D01*
X266561Y-193965D01*
X268029Y-193820D01*
X269441Y-193392D01*
X270742Y-192697D01*
X271883Y-191761D01*
X272819Y-190620D01*
X273514Y-189319D01*
X273942Y-187907D01*
X274087Y-186439D01*
X273942Y-184971D01*
X273514Y-183559D01*
X272819Y-182258D01*
X271883Y-181117D01*
X270742Y-180181D01*
X269441Y-179486D01*
X268029Y-179058D01*
X266561Y-178913D01*
D02*
G37*
G36*
X170439Y-179035D02*
X168971Y-179180D01*
X167559Y-179608D01*
X166258Y-180303D01*
X165117Y-181239D01*
X164181Y-182380D01*
X163486Y-183681D01*
X163058Y-185093D01*
X162913Y-186561D01*
X163058Y-188029D01*
X163486Y-189441D01*
X164181Y-190742D01*
X165117Y-191883D01*
X166258Y-192819D01*
X167559Y-193514D01*
X168971Y-193942D01*
X170439Y-194087D01*
X171907Y-193942D01*
X173319Y-193514D01*
X174620Y-192819D01*
X175761Y-191883D01*
X176697Y-190742D01*
X177392Y-189441D01*
X177820Y-188029D01*
X177965Y-186561D01*
X177820Y-185093D01*
X177392Y-183681D01*
X176697Y-182380D01*
X175761Y-181239D01*
X174620Y-180303D01*
X173319Y-179608D01*
X171907Y-179180D01*
X170439Y-179035D01*
D02*
G37*
G36*
X37500Y-72461D02*
X36720Y-72616D01*
X36058Y-73058D01*
X35616Y-73720D01*
X35461Y-74500D01*
X35616Y-75280D01*
X36058Y-75942D01*
X36124Y-75986D01*
Y-83430D01*
X29077Y-90476D01*
X29000Y-90461D01*
X28220Y-90616D01*
X27558Y-91058D01*
X27116Y-91720D01*
X26961Y-92500D01*
X27116Y-93280D01*
X27558Y-93942D01*
X28220Y-94384D01*
X29000Y-94539D01*
X29780Y-94384D01*
X30442Y-93942D01*
X30884Y-93280D01*
X31039Y-92500D01*
X31024Y-92423D01*
X38473Y-84973D01*
X38473Y-84973D01*
X38772Y-84527D01*
X38877Y-84000D01*
X38876Y-84000D01*
Y-75986D01*
X38942Y-75942D01*
X39384Y-75280D01*
X39539Y-74500D01*
X39384Y-73720D01*
X38942Y-73058D01*
X38280Y-72616D01*
X37500Y-72461D01*
D02*
G37*
G36*
X97500Y-174961D02*
X96720Y-175116D01*
X96058Y-175558D01*
X95616Y-176220D01*
X95461Y-177000D01*
X95616Y-177780D01*
X96058Y-178442D01*
X96285Y-178593D01*
X96220Y-179116D01*
X95558Y-179558D01*
X95116Y-180220D01*
X94961Y-181000D01*
X95116Y-181780D01*
X95558Y-182442D01*
X96220Y-182884D01*
X97000Y-183039D01*
X97780Y-182884D01*
X98442Y-182442D01*
X98884Y-181780D01*
X99039Y-181000D01*
X98884Y-180220D01*
X98442Y-179558D01*
X98215Y-179407D01*
X98280Y-178884D01*
X98942Y-178442D01*
X99384Y-177780D01*
X99539Y-177000D01*
X99384Y-176220D01*
X98942Y-175558D01*
X98280Y-175116D01*
X97500Y-174961D01*
D02*
G37*
G36*
X119874Y-244476D02*
Y-247500D01*
X122898D01*
X122841Y-247071D01*
X122483Y-246205D01*
X121912Y-245462D01*
X121169Y-244891D01*
X120303Y-244533D01*
X119874Y-244476D01*
D02*
G37*
G36*
X118874D02*
X118445Y-244533D01*
X117579Y-244891D01*
X116836Y-245462D01*
X116265Y-246205D01*
X115907Y-247071D01*
X115850Y-247500D01*
X118874D01*
Y-244476D01*
D02*
G37*
G36*
X122898Y-248500D02*
X119874D01*
Y-251524D01*
X120303Y-251467D01*
X121169Y-251109D01*
X121912Y-250538D01*
X122483Y-249795D01*
X122841Y-248929D01*
X122898Y-248500D01*
D02*
G37*
G36*
X118874D02*
X115850D01*
X115907Y-248929D01*
X116265Y-249795D01*
X116836Y-250538D01*
X117579Y-251109D01*
X118445Y-251467D01*
X118874Y-251524D01*
Y-248500D01*
D02*
G37*
G36*
X56500Y-247586D02*
Y-252000D01*
X60914D01*
X60810Y-251211D01*
X60312Y-250010D01*
X59521Y-248979D01*
X58490Y-248187D01*
X57289Y-247690D01*
X56500Y-247586D01*
D02*
G37*
G36*
X55500D02*
X54711Y-247690D01*
X53510Y-248187D01*
X52479Y-248979D01*
X51688Y-250010D01*
X51190Y-251211D01*
X51086Y-252000D01*
X55500D01*
Y-247586D01*
D02*
G37*
G36*
X60914Y-253000D02*
X56500D01*
Y-257414D01*
X57289Y-257310D01*
X58490Y-256813D01*
X59521Y-256021D01*
X60312Y-254990D01*
X60810Y-253789D01*
X60914Y-253000D01*
D02*
G37*
G36*
X55500D02*
X51086D01*
X51190Y-253789D01*
X51688Y-254990D01*
X52479Y-256021D01*
X53510Y-256813D01*
X54711Y-257310D01*
X55500Y-257414D01*
Y-253000D01*
D02*
G37*
G36*
X119874Y-266976D02*
Y-270000D01*
X122898D01*
X122841Y-269571D01*
X122483Y-268705D01*
X121912Y-267962D01*
X121169Y-267391D01*
X120303Y-267033D01*
X119874Y-266976D01*
D02*
G37*
G36*
X118874D02*
X118445Y-267033D01*
X117579Y-267391D01*
X116836Y-267962D01*
X116265Y-268705D01*
X115907Y-269571D01*
X115850Y-270000D01*
X118874D01*
Y-266976D01*
D02*
G37*
G36*
X111500Y-267314D02*
X110675Y-267422D01*
X109907Y-267741D01*
X109247Y-268247D01*
X108741Y-268907D01*
X108422Y-269675D01*
X108314Y-270500D01*
X108422Y-271325D01*
X108741Y-272093D01*
X109247Y-272753D01*
X109907Y-273259D01*
X110675Y-273578D01*
X111500Y-273686D01*
X112325Y-273578D01*
X113093Y-273259D01*
X113753Y-272753D01*
X114259Y-272093D01*
X114578Y-271325D01*
X114686Y-270500D01*
X114578Y-269675D01*
X114259Y-268907D01*
X113753Y-268247D01*
X113093Y-267741D01*
X112325Y-267422D01*
X111500Y-267314D01*
D02*
G37*
G36*
X122898Y-271000D02*
X119874D01*
Y-274024D01*
X120303Y-273967D01*
X121169Y-273609D01*
X121912Y-273038D01*
X122483Y-272295D01*
X122841Y-271429D01*
X122898Y-271000D01*
D02*
G37*
G36*
X118874D02*
X115850D01*
X115907Y-271429D01*
X116265Y-272295D01*
X116836Y-273038D01*
X117579Y-273609D01*
X118445Y-273967D01*
X118874Y-274024D01*
Y-271000D01*
D02*
G37*
G36*
X56000Y-267924D02*
X54816Y-268080D01*
X53712Y-268537D01*
X52764Y-269264D01*
X52037Y-270212D01*
X51580Y-271316D01*
X51424Y-272500D01*
X51580Y-273684D01*
X52037Y-274788D01*
X52764Y-275736D01*
X53712Y-276463D01*
X54816Y-276920D01*
X56000Y-277076D01*
X57184Y-276920D01*
X58288Y-276463D01*
X59236Y-275736D01*
X59963Y-274788D01*
X60420Y-273684D01*
X60576Y-272500D01*
X60420Y-271316D01*
X59963Y-270212D01*
X59236Y-269264D01*
X58288Y-268537D01*
X57184Y-268080D01*
X56000Y-267924D01*
D02*
G37*
G36*
X214000Y-219071D02*
X212918Y-219213D01*
X211911Y-219631D01*
X211045Y-220295D01*
X210381Y-221161D01*
X209963Y-222168D01*
X209821Y-223250D01*
X209963Y-224332D01*
X210381Y-225340D01*
X211045Y-226205D01*
X211911Y-226869D01*
X212918Y-227287D01*
X214000Y-227429D01*
X215082Y-227287D01*
X216090Y-226869D01*
X216955Y-226205D01*
X217619Y-225340D01*
X218037Y-224332D01*
X218179Y-223250D01*
X218037Y-222168D01*
X217619Y-221161D01*
X216955Y-220295D01*
X216090Y-219631D01*
X215082Y-219213D01*
X214000Y-219071D01*
D02*
G37*
G36*
X189000D02*
X187918Y-219213D01*
X186910Y-219631D01*
X186045Y-220295D01*
X185381Y-221161D01*
X184963Y-222168D01*
X184821Y-223250D01*
X184963Y-224332D01*
X185381Y-225340D01*
X186045Y-226205D01*
X186910Y-226869D01*
X187918Y-227287D01*
X189000Y-227429D01*
X190082Y-227287D01*
X191089Y-226869D01*
X191955Y-226205D01*
X192619Y-225340D01*
X193037Y-224332D01*
X193179Y-223250D01*
X193037Y-222168D01*
X192619Y-221161D01*
X191955Y-220295D01*
X191089Y-219631D01*
X190082Y-219213D01*
X189000Y-219071D01*
D02*
G37*
G36*
X304000Y-219071D02*
X302918Y-219213D01*
X301910Y-219631D01*
X301045Y-220295D01*
X300381Y-221161D01*
X299963Y-222168D01*
X299821Y-223250D01*
X299963Y-224332D01*
X300381Y-225340D01*
X301045Y-226205D01*
X301910Y-226869D01*
X302918Y-227287D01*
X304000Y-227429D01*
X305082Y-227287D01*
X306089Y-226869D01*
X306955Y-226205D01*
X307619Y-225340D01*
X308037Y-224332D01*
X308179Y-223250D01*
X308037Y-222168D01*
X307619Y-221161D01*
X306955Y-220295D01*
X306089Y-219631D01*
X305082Y-219213D01*
X304000Y-219071D01*
D02*
G37*
G36*
X279000D02*
X277918Y-219213D01*
X276910Y-219631D01*
X276045Y-220295D01*
X275381Y-221161D01*
X274963Y-222168D01*
X274821Y-223250D01*
X274963Y-224332D01*
X275381Y-225340D01*
X276045Y-226205D01*
X276910Y-226869D01*
X277918Y-227287D01*
X279000Y-227429D01*
X280082Y-227287D01*
X281089Y-226869D01*
X281955Y-226205D01*
X282619Y-225340D01*
X283037Y-224332D01*
X283179Y-223250D01*
X283037Y-222168D01*
X282619Y-221161D01*
X281955Y-220295D01*
X281089Y-219631D01*
X280082Y-219213D01*
X279000Y-219071D01*
D02*
G37*
G36*
X259000D02*
X257918Y-219213D01*
X256910Y-219631D01*
X256045Y-220295D01*
X255381Y-221161D01*
X254963Y-222168D01*
X254821Y-223250D01*
X254963Y-224332D01*
X255381Y-225340D01*
X256045Y-226205D01*
X256910Y-226869D01*
X257918Y-227287D01*
X259000Y-227429D01*
X260082Y-227287D01*
X261089Y-226869D01*
X261955Y-226205D01*
X262619Y-225340D01*
X263037Y-224332D01*
X263179Y-223250D01*
X263037Y-222168D01*
X262619Y-221161D01*
X261955Y-220295D01*
X261089Y-219631D01*
X260082Y-219213D01*
X259000Y-219071D01*
D02*
G37*
G36*
X234000D02*
X232918Y-219213D01*
X231910Y-219631D01*
X231045Y-220295D01*
X230381Y-221161D01*
X229963Y-222168D01*
X229821Y-223250D01*
X229963Y-224332D01*
X230381Y-225340D01*
X231045Y-226205D01*
X231910Y-226869D01*
X232918Y-227287D01*
X234000Y-227429D01*
X235082Y-227287D01*
X236089Y-226869D01*
X236955Y-226205D01*
X237619Y-225340D01*
X238037Y-224332D01*
X238179Y-223250D01*
X238037Y-222168D01*
X237619Y-221161D01*
X236955Y-220295D01*
X236089Y-219631D01*
X235082Y-219213D01*
X234000Y-219071D01*
D02*
G37*
G36*
X214500Y-236233D02*
Y-240250D01*
X218517D01*
X218426Y-239564D01*
X217969Y-238459D01*
X217240Y-237510D01*
X216291Y-236781D01*
X215186Y-236324D01*
X214500Y-236233D01*
D02*
G37*
G36*
X213500D02*
X212814Y-236324D01*
X211709Y-236781D01*
X210760Y-237510D01*
X210031Y-238459D01*
X209574Y-239564D01*
X209483Y-240250D01*
X213500D01*
Y-236233D01*
D02*
G37*
G36*
X189500D02*
Y-240250D01*
X193517D01*
X193426Y-239564D01*
X192969Y-238459D01*
X192240Y-237510D01*
X191291Y-236781D01*
X190186Y-236324D01*
X189500Y-236233D01*
D02*
G37*
G36*
X188500D02*
X187814Y-236324D01*
X186709Y-236781D01*
X185760Y-237510D01*
X185031Y-238459D01*
X184574Y-239564D01*
X184483Y-240250D01*
X188500D01*
Y-236233D01*
D02*
G37*
G36*
X304500Y-236233D02*
Y-240250D01*
X308517D01*
X308426Y-239564D01*
X307969Y-238459D01*
X307240Y-237510D01*
X306291Y-236781D01*
X305186Y-236324D01*
X304500Y-236233D01*
D02*
G37*
G36*
X234500D02*
Y-240250D01*
X238517D01*
X238426Y-239564D01*
X237969Y-238459D01*
X237240Y-237510D01*
X236291Y-236781D01*
X235186Y-236324D01*
X234500Y-236233D01*
D02*
G37*
G36*
X279500D02*
Y-240250D01*
X283517D01*
X283426Y-239564D01*
X282969Y-238459D01*
X282240Y-237510D01*
X281291Y-236781D01*
X280186Y-236324D01*
X279500Y-236233D01*
D02*
G37*
G36*
X259500D02*
Y-240250D01*
X263517D01*
X263426Y-239564D01*
X262969Y-238459D01*
X262240Y-237510D01*
X261291Y-236781D01*
X260186Y-236324D01*
X259500Y-236233D01*
D02*
G37*
G36*
X303500Y-236233D02*
X302814Y-236324D01*
X301709Y-236781D01*
X300760Y-237510D01*
X300031Y-238459D01*
X299574Y-239564D01*
X299483Y-240250D01*
X303500D01*
Y-236233D01*
D02*
G37*
G36*
X233500D02*
X232814Y-236324D01*
X231709Y-236781D01*
X230760Y-237510D01*
X230031Y-238459D01*
X229574Y-239564D01*
X229483Y-240250D01*
X233500D01*
Y-236233D01*
D02*
G37*
G36*
X278500D02*
X277814Y-236324D01*
X276709Y-236781D01*
X275760Y-237510D01*
X275031Y-238459D01*
X274574Y-239564D01*
X274483Y-240250D01*
X278500D01*
Y-236233D01*
D02*
G37*
G36*
X258500D02*
X257814Y-236324D01*
X256709Y-236781D01*
X255760Y-237510D01*
X255031Y-238459D01*
X254574Y-239564D01*
X254483Y-240250D01*
X258500D01*
Y-236233D01*
D02*
G37*
G36*
X218517Y-241250D02*
X214500D01*
Y-245267D01*
X215186Y-245176D01*
X216291Y-244719D01*
X217240Y-243990D01*
X217969Y-243041D01*
X218426Y-241936D01*
X218517Y-241250D01*
D02*
G37*
G36*
X213500D02*
X209483D01*
X209574Y-241936D01*
X210031Y-243041D01*
X210760Y-243990D01*
X211709Y-244719D01*
X212814Y-245176D01*
X213500Y-245267D01*
Y-241250D01*
D02*
G37*
G36*
X193517D02*
X189500D01*
Y-245267D01*
X190186Y-245176D01*
X191291Y-244719D01*
X192240Y-243990D01*
X192969Y-243041D01*
X193426Y-241936D01*
X193517Y-241250D01*
D02*
G37*
G36*
X188500D02*
X184483D01*
X184574Y-241936D01*
X185031Y-243041D01*
X185760Y-243990D01*
X186709Y-244719D01*
X187814Y-245176D01*
X188500Y-245267D01*
Y-241250D01*
D02*
G37*
G36*
X308517Y-241250D02*
X304500D01*
Y-245267D01*
X305186Y-245176D01*
X306291Y-244719D01*
X307240Y-243990D01*
X307969Y-243041D01*
X308426Y-241936D01*
X308517Y-241250D01*
D02*
G37*
G36*
X283517D02*
X279500D01*
Y-245267D01*
X280186Y-245176D01*
X281291Y-244719D01*
X282240Y-243990D01*
X282969Y-243041D01*
X283426Y-241936D01*
X283517Y-241250D01*
D02*
G37*
G36*
X263517D02*
X259500D01*
Y-245267D01*
X260186Y-245176D01*
X261291Y-244719D01*
X262240Y-243990D01*
X262969Y-243041D01*
X263426Y-241936D01*
X263517Y-241250D01*
D02*
G37*
G36*
X238517D02*
X234500D01*
Y-245267D01*
X235186Y-245176D01*
X236291Y-244719D01*
X237240Y-243990D01*
X237969Y-243041D01*
X238426Y-241936D01*
X238517Y-241250D01*
D02*
G37*
G36*
X303500D02*
X299483D01*
X299574Y-241936D01*
X300031Y-243041D01*
X300760Y-243990D01*
X301709Y-244719D01*
X302814Y-245176D01*
X303500Y-245267D01*
Y-241250D01*
D02*
G37*
G36*
X278500D02*
X274483D01*
X274574Y-241936D01*
X275031Y-243041D01*
X275760Y-243990D01*
X276709Y-244719D01*
X277814Y-245176D01*
X278500Y-245267D01*
Y-241250D01*
D02*
G37*
G36*
X258500D02*
X254483D01*
X254574Y-241936D01*
X255031Y-243041D01*
X255760Y-243990D01*
X256709Y-244719D01*
X257814Y-245176D01*
X258500Y-245267D01*
Y-241250D01*
D02*
G37*
G36*
X233500D02*
X229483D01*
X229574Y-241936D01*
X230031Y-243041D01*
X230760Y-243990D01*
X231709Y-244719D01*
X232814Y-245176D01*
X233500Y-245267D01*
Y-241250D01*
D02*
G37*
G36*
X214000Y-263071D02*
X212918Y-263213D01*
X211911Y-263631D01*
X211045Y-264295D01*
X210381Y-265160D01*
X209963Y-266168D01*
X209821Y-267250D01*
X209963Y-268332D01*
X210381Y-269339D01*
X211045Y-270205D01*
X211911Y-270869D01*
X212918Y-271287D01*
X214000Y-271429D01*
X215082Y-271287D01*
X216090Y-270869D01*
X216955Y-270205D01*
X217619Y-269339D01*
X218037Y-268332D01*
X218179Y-267250D01*
X218037Y-266168D01*
X217619Y-265160D01*
X216955Y-264295D01*
X216090Y-263631D01*
X215082Y-263213D01*
X214000Y-263071D01*
D02*
G37*
G36*
X189000D02*
X187918Y-263213D01*
X186910Y-263631D01*
X186045Y-264295D01*
X185381Y-265160D01*
X184963Y-266168D01*
X184821Y-267250D01*
X184963Y-268332D01*
X185381Y-269339D01*
X186045Y-270205D01*
X186910Y-270869D01*
X187918Y-271287D01*
X189000Y-271429D01*
X190082Y-271287D01*
X191089Y-270869D01*
X191955Y-270205D01*
X192619Y-269339D01*
X193037Y-268332D01*
X193179Y-267250D01*
X193037Y-266168D01*
X192619Y-265160D01*
X191955Y-264295D01*
X191089Y-263631D01*
X190082Y-263213D01*
X189000Y-263071D01*
D02*
G37*
G36*
X304000Y-263571D02*
X302918Y-263713D01*
X301910Y-264131D01*
X301045Y-264795D01*
X300381Y-265661D01*
X299963Y-266668D01*
X299821Y-267750D01*
X299963Y-268832D01*
X300381Y-269840D01*
X301045Y-270705D01*
X301910Y-271369D01*
X302918Y-271787D01*
X304000Y-271929D01*
X305082Y-271787D01*
X306089Y-271369D01*
X306955Y-270705D01*
X307619Y-269840D01*
X308037Y-268832D01*
X308179Y-267750D01*
X308037Y-266668D01*
X307619Y-265661D01*
X306955Y-264795D01*
X306089Y-264131D01*
X305082Y-263713D01*
X304000Y-263571D01*
D02*
G37*
G36*
X279000D02*
X277918Y-263713D01*
X276910Y-264131D01*
X276045Y-264795D01*
X275381Y-265661D01*
X274963Y-266668D01*
X274821Y-267750D01*
X274963Y-268832D01*
X275381Y-269840D01*
X276045Y-270705D01*
X276910Y-271369D01*
X277918Y-271787D01*
X279000Y-271929D01*
X280082Y-271787D01*
X281089Y-271369D01*
X281955Y-270705D01*
X282619Y-269840D01*
X283037Y-268832D01*
X283179Y-267750D01*
X283037Y-266668D01*
X282619Y-265661D01*
X281955Y-264795D01*
X281089Y-264131D01*
X280082Y-263713D01*
X279000Y-263571D01*
D02*
G37*
G36*
X259000D02*
X257918Y-263713D01*
X256910Y-264131D01*
X256045Y-264795D01*
X255381Y-265661D01*
X254963Y-266668D01*
X254821Y-267750D01*
X254963Y-268832D01*
X255381Y-269840D01*
X256045Y-270705D01*
X256910Y-271369D01*
X257918Y-271787D01*
X259000Y-271929D01*
X260082Y-271787D01*
X261089Y-271369D01*
X261955Y-270705D01*
X262619Y-269840D01*
X263037Y-268832D01*
X263179Y-267750D01*
X263037Y-266668D01*
X262619Y-265661D01*
X261955Y-264795D01*
X261089Y-264131D01*
X260082Y-263713D01*
X259000Y-263571D01*
D02*
G37*
G36*
X234000D02*
X232918Y-263713D01*
X231910Y-264131D01*
X231045Y-264795D01*
X230381Y-265661D01*
X229963Y-266668D01*
X229821Y-267750D01*
X229963Y-268832D01*
X230381Y-269840D01*
X231045Y-270705D01*
X231910Y-271369D01*
X232918Y-271787D01*
X234000Y-271929D01*
X235082Y-271787D01*
X236089Y-271369D01*
X236955Y-270705D01*
X237619Y-269840D01*
X238037Y-268832D01*
X238179Y-267750D01*
X238037Y-266668D01*
X237619Y-265661D01*
X236955Y-264795D01*
X236089Y-264131D01*
X235082Y-263713D01*
X234000Y-263571D01*
D02*
G37*
G36*
X214500Y-280233D02*
Y-284250D01*
X218517D01*
X218426Y-283564D01*
X217969Y-282459D01*
X217240Y-281510D01*
X216291Y-280781D01*
X215186Y-280324D01*
X214500Y-280233D01*
D02*
G37*
G36*
X189500D02*
Y-284250D01*
X193517D01*
X193426Y-283564D01*
X192969Y-282459D01*
X192240Y-281510D01*
X191291Y-280781D01*
X190186Y-280324D01*
X189500Y-280233D01*
D02*
G37*
G36*
X213500Y-280233D02*
X212814Y-280324D01*
X211709Y-280781D01*
X210760Y-281510D01*
X210031Y-282459D01*
X209574Y-283564D01*
X209483Y-284250D01*
X213500D01*
Y-280233D01*
D02*
G37*
G36*
X188500D02*
X187814Y-280324D01*
X186709Y-280781D01*
X185760Y-281510D01*
X185031Y-282459D01*
X184574Y-283564D01*
X184483Y-284250D01*
X188500D01*
Y-280233D01*
D02*
G37*
G36*
X304500Y-280733D02*
Y-284750D01*
X308517D01*
X308426Y-284064D01*
X307969Y-282959D01*
X307240Y-282010D01*
X306291Y-281281D01*
X305186Y-280824D01*
X304500Y-280733D01*
D02*
G37*
G36*
X234500D02*
Y-284750D01*
X238517D01*
X238426Y-284064D01*
X237969Y-282959D01*
X237240Y-282010D01*
X236291Y-281281D01*
X235186Y-280824D01*
X234500Y-280733D01*
D02*
G37*
G36*
X279500D02*
Y-284750D01*
X283517D01*
X283426Y-284064D01*
X282969Y-282959D01*
X282240Y-282010D01*
X281291Y-281281D01*
X280186Y-280824D01*
X279500Y-280733D01*
D02*
G37*
G36*
X259500D02*
Y-284750D01*
X263517D01*
X263426Y-284064D01*
X262969Y-282959D01*
X262240Y-282010D01*
X261291Y-281281D01*
X260186Y-280824D01*
X259500Y-280733D01*
D02*
G37*
G36*
X303500Y-280733D02*
X302814Y-280824D01*
X301709Y-281281D01*
X300760Y-282010D01*
X300031Y-282959D01*
X299574Y-284064D01*
X299483Y-284750D01*
X303500D01*
Y-280733D01*
D02*
G37*
G36*
X233500D02*
X232814Y-280824D01*
X231709Y-281281D01*
X230760Y-282010D01*
X230031Y-282959D01*
X229574Y-284064D01*
X229483Y-284750D01*
X233500D01*
Y-280733D01*
D02*
G37*
G36*
X278500D02*
X277814Y-280824D01*
X276709Y-281281D01*
X275760Y-282010D01*
X275031Y-282959D01*
X274574Y-284064D01*
X274483Y-284750D01*
X278500D01*
Y-280733D01*
D02*
G37*
G36*
X258500D02*
X257814Y-280824D01*
X256709Y-281281D01*
X255760Y-282010D01*
X255031Y-282959D01*
X254574Y-284064D01*
X254483Y-284750D01*
X258500D01*
Y-280733D01*
D02*
G37*
G36*
X218517Y-285250D02*
X214500D01*
Y-289267D01*
X215186Y-289176D01*
X216291Y-288719D01*
X217240Y-287990D01*
X217969Y-287041D01*
X218426Y-285936D01*
X218517Y-285250D01*
D02*
G37*
G36*
X193517D02*
X189500D01*
Y-289267D01*
X190186Y-289176D01*
X191291Y-288719D01*
X192240Y-287990D01*
X192969Y-287041D01*
X193426Y-285936D01*
X193517Y-285250D01*
D02*
G37*
G36*
X213500D02*
X209483D01*
X209574Y-285936D01*
X210031Y-287041D01*
X210760Y-287990D01*
X211709Y-288719D01*
X212814Y-289176D01*
X213500Y-289267D01*
Y-285250D01*
D02*
G37*
G36*
X188500D02*
X184483D01*
X184574Y-285936D01*
X185031Y-287041D01*
X185760Y-287990D01*
X186709Y-288719D01*
X187814Y-289176D01*
X188500Y-289267D01*
Y-285250D01*
D02*
G37*
G36*
X308517Y-285750D02*
X304500D01*
Y-289767D01*
X305186Y-289676D01*
X306291Y-289219D01*
X307240Y-288490D01*
X307969Y-287541D01*
X308426Y-286436D01*
X308517Y-285750D01*
D02*
G37*
G36*
X283517D02*
X279500D01*
Y-289767D01*
X280186Y-289676D01*
X281291Y-289219D01*
X282240Y-288490D01*
X282969Y-287541D01*
X283426Y-286436D01*
X283517Y-285750D01*
D02*
G37*
G36*
X263517D02*
X259500D01*
Y-289767D01*
X260186Y-289676D01*
X261291Y-289219D01*
X262240Y-288490D01*
X262969Y-287541D01*
X263426Y-286436D01*
X263517Y-285750D01*
D02*
G37*
G36*
X238517D02*
X234500D01*
Y-289767D01*
X235186Y-289676D01*
X236291Y-289219D01*
X237240Y-288490D01*
X237969Y-287541D01*
X238426Y-286436D01*
X238517Y-285750D01*
D02*
G37*
G36*
X303500D02*
X299483D01*
X299574Y-286436D01*
X300031Y-287541D01*
X300760Y-288490D01*
X301709Y-289219D01*
X302814Y-289676D01*
X303500Y-289767D01*
Y-285750D01*
D02*
G37*
G36*
X278500D02*
X274483D01*
X274574Y-286436D01*
X275031Y-287541D01*
X275760Y-288490D01*
X276709Y-289219D01*
X277814Y-289676D01*
X278500Y-289767D01*
Y-285750D01*
D02*
G37*
G36*
X258500D02*
X254483D01*
X254574Y-286436D01*
X255031Y-287541D01*
X255760Y-288490D01*
X256709Y-289219D01*
X257814Y-289676D01*
X258500Y-289767D01*
Y-285750D01*
D02*
G37*
G36*
X233500D02*
X229483D01*
X229574Y-286436D01*
X230031Y-287541D01*
X230760Y-288490D01*
X231709Y-289219D01*
X232814Y-289676D01*
X233500Y-289767D01*
Y-285750D01*
D02*
G37*
%LPD*%
D11*
X216500Y-180500D02*
Y-170500D01*
X138000Y-178000D02*
Y-170500D01*
X198439Y-87439D02*
X198500Y-87500D01*
Y-97000D02*
Y-87500D01*
X184000Y-100500D02*
X195000D01*
X198500Y-97000D01*
X226500Y-138500D02*
Y-119000D01*
X229000Y-116500D01*
X292000D01*
X294000Y-126000D02*
Y-118500D01*
X292000Y-116500D02*
X294000Y-118500D01*
D14*
X152500Y-284000D02*
Y-264000D01*
X315000Y-195000D02*
Y-153000D01*
X122500Y-198000D02*
X312000D01*
X315000Y-195000D01*
X118500Y-194000D02*
Y-178000D01*
Y-194000D02*
X122500Y-198000D01*
X311500Y-149500D02*
X315000Y-153000D01*
X303000Y-149500D02*
X311500D01*
X102000Y-287000D02*
X149500D01*
X152500Y-284000D01*
X111500Y-248000D02*
Y-237500D01*
X115500Y-233500D02*
X143500D01*
X111500Y-237500D02*
X115500Y-233500D01*
X131000Y-90000D02*
X149135D01*
X130000Y-89000D02*
Y-85000D01*
Y-89000D02*
X131000Y-90000D01*
X149135D02*
X150000Y-90865D01*
D19*
X92500Y-192500D02*
Y-173000D01*
X110500Y-170500D02*
X138000D01*
X95217D02*
X110500D01*
X93608Y-172108D02*
X95217Y-170500D01*
X17000Y-166500D02*
X41500D01*
X17000Y-187000D02*
Y-166500D01*
X16500Y-187500D02*
X17000Y-187000D01*
X216500Y-170500D02*
X236500D01*
X138000D02*
X216500D01*
X159000Y-51000D02*
X182000D01*
X128000D02*
X159000D01*
X127500Y-51500D02*
X128000Y-51000D01*
X182000D02*
X198439Y-67439D01*
Y-87439D02*
Y-67439D01*
X236500Y-170500D02*
X271500D01*
X286000Y-179500D02*
X303000D01*
X280500D02*
X286000D01*
X271500Y-170500D02*
X280500Y-179500D01*
X236500Y-170500D02*
Y-123500D01*
X312311Y-19185D02*
G03*
X312311Y-19185I-6496J0D01*
G01*
X313811Y-306815D02*
G03*
X313811Y-306815I-6496J0D01*
G01*
X26681Y-308315D02*
G03*
X26681Y-308315I-6496J0D01*
G01*
X26181Y-19685D02*
G03*
X26181Y-19685I-6496J0D01*
G01*
D20*
X326500Y16D02*
X326500Y-328000D01*
X500Y16D02*
X326500D01*
X0Y-328000D02*
X326500D01*
X0D02*
Y516D01*
D81*
X12500Y-175500D02*
Y-141000D01*
X16000Y-137500D02*
X29000D01*
X12500Y-141000D02*
X16000Y-137500D01*
X74500Y-124500D02*
X83000Y-133000D01*
X59000Y-124500D02*
X74500D01*
X29000Y-92500D02*
X37500Y-84000D01*
Y-74500D01*
D82*
X133000Y-321500D02*
X314000D01*
X128000Y-316500D02*
X133000Y-321500D01*
X122000Y-312000D02*
X147500D01*
X148500Y-311000D01*
X277000Y-69000D02*
X299500D01*
X275000Y-67000D02*
X277000Y-69000D01*
X299500D02*
X314500D01*
X319500Y-74000D01*
Y-316000D02*
Y-74000D01*
X314000Y-321500D02*
X319500Y-316000D01*
D86*
X100000Y-35500D02*
D03*
D87*
X90000D02*
D03*
X80000D02*
D03*
X70000D02*
D03*
X60000D02*
D03*
X50000D02*
D03*
D88*
X189000Y-223250D02*
D03*
Y-240750D02*
D03*
X214000D02*
D03*
Y-223250D02*
D03*
X259000Y-240750D02*
D03*
Y-223250D02*
D03*
X234000D02*
D03*
Y-240750D02*
D03*
X304000D02*
D03*
Y-223250D02*
D03*
X279000D02*
D03*
Y-240750D02*
D03*
X304000Y-285250D02*
D03*
Y-267750D02*
D03*
X279000D02*
D03*
Y-285250D02*
D03*
X259000D02*
D03*
Y-267750D02*
D03*
X234000D02*
D03*
Y-285250D02*
D03*
X214000Y-284750D02*
D03*
Y-267250D02*
D03*
X189000D02*
D03*
Y-284750D02*
D03*
D89*
X303000Y-139500D02*
D03*
Y-149500D02*
D03*
Y-159500D02*
D03*
Y-169500D02*
D03*
X294000Y-126000D02*
D03*
X284000D02*
D03*
X149902Y-71770D02*
D03*
X286000Y-149500D02*
D03*
Y-159500D02*
D03*
Y-169500D02*
D03*
X166657Y-26000D02*
D03*
X248439Y-87439D02*
D03*
X238439D02*
D03*
X228439D02*
D03*
X218439D02*
D03*
X198439D02*
D03*
X208439D02*
D03*
D90*
X303000Y-179500D02*
D03*
X286000D02*
D03*
D91*
X304000Y-126000D02*
D03*
X186343Y-26000D02*
D03*
X188439Y-87439D02*
D03*
D92*
X154500Y-112000D02*
D03*
Y-106400D02*
D03*
D93*
X119374Y-248000D02*
D03*
X111500D02*
D03*
X119374Y-270500D02*
D03*
X111500D02*
D03*
D94*
X56000Y-252500D02*
D03*
Y-272500D02*
D03*
Y-292500D02*
D03*
D95*
X150000Y-42243D02*
D03*
D96*
X299500Y-69000D02*
D03*
Y-59000D02*
D03*
Y-49000D02*
D03*
Y-39000D02*
D03*
D97*
X127000Y-131787D02*
D03*
Y-151000D02*
D03*
X159000Y-51000D02*
D03*
X127500Y-51500D02*
D03*
X110500Y-170500D02*
D03*
X236500Y-123500D02*
D03*
D98*
X170439Y-186561D02*
D03*
X266561Y-186439D02*
D03*
X266439Y-90817D02*
D03*
X170439Y-90939D02*
D03*
D99*
X97000Y-181000D02*
D03*
X97500Y-177000D02*
D03*
X92500Y-192500D02*
D03*
X279000Y-87500D02*
D03*
X293000Y-135000D02*
D03*
X280500Y-134500D02*
D03*
X311500Y-132500D02*
D03*
X311000Y-114000D02*
D03*
Y-94500D02*
D03*
X297000Y-79000D02*
D03*
X12500Y-175500D02*
D03*
X148500Y-174500D02*
D03*
X149000Y-164000D02*
D03*
X138500Y-164500D02*
D03*
X152500Y-264000D02*
D03*
X197000Y-140500D02*
D03*
X202000Y-146000D02*
D03*
X191976Y-144476D02*
D03*
X201000Y-135500D02*
D03*
X192500D02*
D03*
X185000Y-215000D02*
D03*
X180500Y-209000D02*
D03*
X167500Y-209500D02*
D03*
X151500Y-209000D02*
D03*
X139500Y-207500D02*
D03*
X168000Y-221000D02*
D03*
X156000Y-221500D02*
D03*
X147500D02*
D03*
X153500Y-233500D02*
D03*
X175000Y-258000D02*
D03*
X159500Y-255500D02*
D03*
X138000Y-263000D02*
D03*
X137500Y-277000D02*
D03*
Y-291000D02*
D03*
X138000Y-300500D02*
D03*
X158500Y-295500D02*
D03*
Y-286000D02*
D03*
X165000Y-264500D02*
D03*
X177500Y-266500D02*
D03*
X177000Y-276000D02*
D03*
X176500Y-287000D02*
D03*
X176000Y-298000D02*
D03*
X119500Y-165000D02*
D03*
Y-126500D02*
D03*
X118500Y-143500D02*
D03*
X151500Y-152000D02*
D03*
X133500Y-157500D02*
D03*
X119500D02*
D03*
X143500Y-120000D02*
D03*
X154000Y-127500D02*
D03*
X155000Y-119000D02*
D03*
X126500Y-118000D02*
D03*
X126000Y-101000D02*
D03*
X131500Y-97000D02*
D03*
X127000Y-90000D02*
D03*
X185500Y-69000D02*
D03*
X172000Y-76500D02*
D03*
X182000Y-58500D02*
D03*
X162000Y-71000D02*
D03*
X148000Y-65500D02*
D03*
X131000Y-67000D02*
D03*
X178500Y-37500D02*
D03*
X160500Y-40500D02*
D03*
X139000Y-40000D02*
D03*
X121000Y-39500D02*
D03*
X182000Y-15500D02*
D03*
X166500Y-14500D02*
D03*
X136500Y-15500D02*
D03*
X125000Y-14500D02*
D03*
X189000Y-79500D02*
D03*
X213000Y-80000D02*
D03*
X231500D02*
D03*
X251000Y-80500D02*
D03*
X272000Y-79500D02*
D03*
X254500Y-98500D02*
D03*
X266000Y-109500D02*
D03*
X251000D02*
D03*
X240000D02*
D03*
X228500Y-110000D02*
D03*
X258000Y-126000D02*
D03*
X272500D02*
D03*
X246000Y-123000D02*
D03*
X245000Y-137500D02*
D03*
X232000Y-142000D02*
D03*
X224500Y-148000D02*
D03*
X230000Y-158500D02*
D03*
X230500Y-165500D02*
D03*
X243000Y-150500D02*
D03*
X252500Y-147000D02*
D03*
X253500Y-154500D02*
D03*
X275500Y-153500D02*
D03*
X273000Y-206500D02*
D03*
X269000Y-175000D02*
D03*
X253000Y-176500D02*
D03*
X240500Y-176000D02*
D03*
X229000D02*
D03*
X213000Y-174500D02*
D03*
X213500Y-164500D02*
D03*
X219000Y-159500D02*
D03*
X219500Y-203000D02*
D03*
X211500D02*
D03*
X218500Y-189500D02*
D03*
X234500D02*
D03*
X250500D02*
D03*
X286500Y-191000D02*
D03*
X305000Y-190500D02*
D03*
X263000Y-207000D02*
D03*
X245500Y-206500D02*
D03*
X230500Y-206000D02*
D03*
X286000Y-208500D02*
D03*
X306000Y-208000D02*
D03*
X199500Y-218500D02*
D03*
X291000Y-232500D02*
D03*
X245500D02*
D03*
X202500Y-234500D02*
D03*
X212500Y-255500D02*
D03*
X188500Y-254000D02*
D03*
X234000Y-255500D02*
D03*
X261000D02*
D03*
X289500Y-256500D02*
D03*
X310500Y-255500D02*
D03*
X311000Y-278500D02*
D03*
X267500Y-277500D02*
D03*
X224000Y-277000D02*
D03*
X201500Y-277500D02*
D03*
X248500D02*
D03*
X292500Y-276500D02*
D03*
X288500Y-300500D02*
D03*
X261500D02*
D03*
X235500D02*
D03*
X212500Y-299000D02*
D03*
X190000D02*
D03*
X254000Y-312500D02*
D03*
X272000Y-311500D02*
D03*
X237000D02*
D03*
X213000Y-312500D02*
D03*
X190000Y-311500D02*
D03*
X173000Y-312000D02*
D03*
X157500D02*
D03*
X233500Y-19500D02*
D03*
X232000Y-13500D02*
D03*
X203500Y-28500D02*
D03*
X198500Y-34000D02*
D03*
X209000Y-23500D02*
D03*
X198500Y-22500D02*
D03*
X209000Y-15000D02*
D03*
X199000D02*
D03*
X224500Y-38000D02*
D03*
X214000D02*
D03*
X239000Y-37500D02*
D03*
X248500D02*
D03*
X252500Y-14500D02*
D03*
X267000Y-15000D02*
D03*
X283000Y-16000D02*
D03*
X273500Y-41500D02*
D03*
X275000Y-32500D02*
D03*
X283500Y-43000D02*
D03*
X270500Y-54500D02*
D03*
X284500Y-53000D02*
D03*
Y-60000D02*
D03*
X285000Y-69000D02*
D03*
X269500Y-68500D02*
D03*
X257500D02*
D03*
X246000D02*
D03*
X231000D02*
D03*
X216500Y-68000D02*
D03*
X205500D02*
D03*
X109500Y-176000D02*
D03*
X105500Y-96000D02*
D03*
X93500Y-53500D02*
D03*
X105500D02*
D03*
X100500Y-96000D02*
D03*
X87500Y-98000D02*
D03*
Y-80000D02*
D03*
Y-116500D02*
D03*
X107500Y-120500D02*
D03*
X107000Y-159500D02*
D03*
X93500Y-155000D02*
D03*
Y-162500D02*
D03*
X99000Y-185000D02*
D03*
X87500Y-184500D02*
D03*
X55000Y-183000D02*
D03*
X48500Y-183500D02*
D03*
X41500Y-166500D02*
D03*
X17000D02*
D03*
X124500Y-203000D02*
D03*
X116000Y-200500D02*
D03*
X108000Y-199000D02*
D03*
X99500Y-197500D02*
D03*
X90000Y-197000D02*
D03*
X80000D02*
D03*
X71500D02*
D03*
X70500Y-236000D02*
D03*
X99000Y-281000D02*
D03*
X86500Y-281500D02*
D03*
X118500Y-304500D02*
D03*
X119500Y-317500D02*
D03*
X81500Y-288000D02*
D03*
X82000Y-300500D02*
D03*
X20000Y-244500D02*
D03*
X19000Y-255500D02*
D03*
Y-266500D02*
D03*
Y-276000D02*
D03*
X92500Y-173000D02*
D03*
X29000Y-137500D02*
D03*
X118500Y-178000D02*
D03*
X273000Y-61500D02*
D03*
X83000Y-133000D02*
D03*
X59000Y-124500D02*
D03*
X55500Y-72500D02*
D03*
X34500Y-161500D02*
D03*
X67000Y-147500D02*
D03*
X74000Y-140500D02*
D03*
X102000Y-287000D02*
D03*
X143500Y-233500D02*
D03*
X130000Y-85000D02*
D03*
X37500Y-74500D02*
D03*
X29000Y-92500D02*
D03*
D100*
X37500Y-48000D02*
D03*
X78250Y-46750D02*
D03*
X216500Y-180500D02*
D03*
X138000Y-178000D02*
D03*
X184000Y-100500D02*
D03*
X226500Y-138500D02*
D03*
D101*
X132500Y-109100D02*
D03*
D102*
X150000Y-23148D02*
D03*
D103*
Y-90865D02*
D03*
M02*
