G04*
G04 #@! TF.GenerationSoftware,Altium Limited,Altium Designer,20.0.1 (14)*
G04*
G04 Layer_Physical_Order=1*
G04 Layer_Color=255*
%FSLAX25Y25*%
%MOIN*%
G70*
G01*
G75*
%ADD11C,0.00800*%
%ADD13C,0.01000*%
%ADD14C,0.01200*%
%ADD19C,0.02000*%
%ADD20C,0.05000*%
%ADD21R,0.05000X0.05000*%
%ADD22R,0.05000X0.05000*%
%ADD23R,0.06000X0.05000*%
%ADD24R,0.03740X0.03543*%
%ADD25R,0.03740X0.03543*%
%ADD26R,0.06693X0.04331*%
%ADD27R,0.03543X0.03740*%
%ADD28R,0.03543X0.03740*%
%ADD29O,0.06102X0.00984*%
%ADD30O,0.00984X0.06102*%
%ADD31C,0.03000*%
%ADD32R,0.09055X0.09055*%
%ADD33O,0.02400X0.08000*%
%ADD34R,0.13780X0.08465*%
%ADD35R,0.04331X0.08465*%
%ADD36R,0.04331X0.08465*%
%ADD37R,0.04000X0.03150*%
%ADD38R,0.01929X0.03878*%
%ADD39R,0.06000X0.06299*%
%ADD40R,0.06299X0.06000*%
%ADD41R,0.05906X0.06299*%
%ADD42R,0.06000X0.14000*%
%ADD43O,0.08000X0.02400*%
%ADD81C,0.01500*%
%ADD82C,0.03000*%
%ADD83R,0.19000X0.18500*%
%ADD84R,0.04000X0.12500*%
%ADD85R,0.12500X0.10000*%
%ADD86R,0.08661X0.08661*%
%ADD87C,0.08661*%
%ADD88C,0.07087*%
%ADD89C,0.05906*%
%ADD90R,0.05906X0.05906*%
%ADD91R,0.05906X0.05906*%
%ADD92O,0.05000X0.04000*%
%ADD93C,0.05118*%
%ADD94C,0.07874*%
%ADD95C,0.04331*%
%ADD96C,0.07087*%
%ADD97C,0.05000*%
%ADD98C,0.13780*%
%ADD99C,0.02800*%
%ADD100C,0.02000*%
G36*
X287500Y-32319D02*
X287038Y-32510D01*
X275514Y-20986D01*
X274819Y-20522D01*
X274000Y-20359D01*
X269250D01*
Y-18900D01*
X261750D01*
Y-20359D01*
X242500D01*
X241681Y-20522D01*
X241467Y-20665D01*
X239700D01*
X238998Y-20804D01*
X238402Y-21202D01*
X238004Y-21798D01*
X237865Y-22500D01*
X238004Y-23202D01*
X238402Y-23798D01*
X238998Y-24196D01*
X239700Y-24335D01*
X241467D01*
X241681Y-24478D01*
X242500Y-24641D01*
X261750D01*
Y-26100D01*
X269250D01*
Y-24641D01*
X273113D01*
X287500Y-39028D01*
Y-46130D01*
X267970D01*
Y-45628D01*
X267641D01*
Y-39600D01*
X269250D01*
Y-32400D01*
X261750D01*
Y-39600D01*
X263359D01*
Y-45628D01*
X263030D01*
Y-50372D01*
X265565D01*
X265772Y-50413D01*
X287500D01*
Y-71000D01*
X193500D01*
Y-62520D01*
X214400D01*
Y-64600D01*
X220600D01*
Y-58400D01*
X214400D01*
Y-60480D01*
X193500D01*
Y-11500D01*
X287500D01*
Y-32319D01*
D02*
G37*
G36*
X113418Y-55650D02*
X108900D01*
Y-63150D01*
X111124D01*
Y-67250D01*
X108900D01*
Y-74750D01*
X111124D01*
Y-78900D01*
X109400D01*
Y-85100D01*
X113418D01*
Y-87900D01*
X109400D01*
Y-89624D01*
X106065D01*
Y-88461D01*
X102935D01*
Y-93539D01*
X106065D01*
Y-92376D01*
X109400D01*
Y-94100D01*
X111124D01*
Y-99400D01*
X109300D01*
Y-105600D01*
X113418D01*
Y-108000D01*
X113000D01*
Y-111500D01*
Y-115000D01*
X113418D01*
X113418Y-120275D01*
X109346Y-124346D01*
X108993Y-124876D01*
X108869Y-125500D01*
Y-167862D01*
X108265Y-168265D01*
X107580Y-169290D01*
X107339Y-170500D01*
X107580Y-171710D01*
X108265Y-172735D01*
X109290Y-173420D01*
X110500Y-173661D01*
X111710Y-173420D01*
X112418Y-172947D01*
X113418Y-173376D01*
Y-181424D01*
X113418D01*
X113160Y-182318D01*
X107448D01*
X104582Y-179452D01*
Y-114600D01*
X106600D01*
Y-108400D01*
X100400D01*
Y-110124D01*
X96600D01*
Y-108400D01*
X90400D01*
Y-114600D01*
X96600D01*
Y-112876D01*
X100400D01*
Y-114600D01*
X102418D01*
Y-130980D01*
X101418Y-131549D01*
X101100Y-131418D01*
X101100Y-131418D01*
X100100D01*
Y-129400D01*
X98082D01*
Y-126100D01*
X100100D01*
Y-119900D01*
X93900D01*
Y-126100D01*
X95918D01*
Y-129400D01*
X93900D01*
Y-135600D01*
X100100D01*
Y-135600D01*
X101018Y-135799D01*
Y-141480D01*
X100094Y-141863D01*
X97965Y-139735D01*
X97200Y-139418D01*
X97200Y-139418D01*
X85418D01*
Y-136000D01*
X87500D01*
Y-132500D01*
Y-129000D01*
X85418D01*
Y-126100D01*
X91100D01*
Y-119900D01*
X85418D01*
Y-76900D01*
X87500D01*
Y-72900D01*
Y-68900D01*
X85418D01*
Y-63000D01*
X91750D01*
Y-55800D01*
X89376D01*
Y-50424D01*
X97624D01*
Y-55650D01*
X95400D01*
Y-63150D01*
X102600D01*
Y-55650D01*
X100376D01*
Y-50424D01*
X113418D01*
Y-55650D01*
D02*
G37*
G36*
X188291Y-22447D02*
X182790D01*
Y-29553D01*
X184776D01*
Y-46993D01*
X181493Y-50276D01*
X179600D01*
Y-48400D01*
X173400D01*
Y-54600D01*
X179600D01*
Y-52723D01*
X182000D01*
X182468Y-52630D01*
X182865Y-52365D01*
X186865Y-48365D01*
X187130Y-47968D01*
X187223Y-47500D01*
Y-29553D01*
X188291D01*
Y-60480D01*
X187000D01*
X186610Y-60558D01*
X186279Y-60779D01*
X181279Y-65779D01*
X181226Y-65784D01*
X176221Y-60779D01*
X175890Y-60558D01*
X175500Y-60480D01*
X144922D01*
X126520Y-42078D01*
Y-34100D01*
X128600D01*
Y-27900D01*
X122400D01*
Y-34100D01*
X124480D01*
Y-42500D01*
X124558Y-42890D01*
X124779Y-43221D01*
X143779Y-62221D01*
X144110Y-62442D01*
X144500Y-62520D01*
X175078D01*
X179580Y-67022D01*
Y-93080D01*
X179658Y-93470D01*
X179879Y-93801D01*
X184546Y-98467D01*
X184299Y-98928D01*
X184000Y-98869D01*
X183376Y-98993D01*
X182846Y-99347D01*
X182493Y-99876D01*
X182369Y-100500D01*
X182493Y-101124D01*
X182846Y-101654D01*
X183376Y-102007D01*
X184000Y-102131D01*
X184158Y-102100D01*
X184980Y-102922D01*
Y-104400D01*
X182900D01*
Y-110600D01*
X185154D01*
Y-122655D01*
X185144Y-122668D01*
X185079Y-123000D01*
X181210D01*
X180500Y-122859D01*
X179790Y-123000D01*
X178500D01*
Y-124290D01*
X178359Y-125000D01*
X178500Y-125710D01*
Y-129578D01*
X178168Y-129645D01*
X178155Y-129654D01*
X174996D01*
X166020Y-120678D01*
Y-109000D01*
X165942Y-108610D01*
X165721Y-108279D01*
X161020Y-103578D01*
Y-98000D01*
X160942Y-97610D01*
X160721Y-97279D01*
X157221Y-93779D01*
X156890Y-93558D01*
X156500Y-93480D01*
X155100D01*
Y-91400D01*
X148900D01*
Y-93277D01*
X142872D01*
Y-92030D01*
X138128D01*
Y-96970D01*
X142872D01*
Y-95723D01*
X148900D01*
Y-97600D01*
X155100D01*
Y-95520D01*
X156078D01*
X158980Y-98422D01*
Y-104000D01*
X159058Y-104390D01*
X159279Y-104721D01*
X163980Y-109422D01*
Y-109885D01*
X163519Y-110076D01*
X159121Y-105679D01*
X158790Y-105458D01*
X158400Y-105380D01*
X157392D01*
X157271Y-105089D01*
X156854Y-104546D01*
X156311Y-104129D01*
X155679Y-103867D01*
X155000Y-103778D01*
X154000D01*
X153321Y-103867D01*
X153030Y-103988D01*
X152321Y-103279D01*
X151990Y-103058D01*
X151600Y-102980D01*
X147600D01*
Y-100900D01*
X141400D01*
Y-107100D01*
X147600D01*
Y-105020D01*
X151178D01*
X151588Y-105430D01*
X151467Y-105721D01*
X151378Y-106400D01*
X151467Y-107079D01*
X151729Y-107711D01*
X152146Y-108254D01*
X152689Y-108671D01*
X153321Y-108933D01*
X153433Y-108948D01*
Y-109452D01*
X153321Y-109467D01*
X152689Y-109729D01*
X152146Y-110146D01*
X151729Y-110689D01*
X151467Y-111321D01*
X151378Y-112000D01*
X151384Y-112052D01*
X150998Y-112480D01*
X147600D01*
Y-110400D01*
X141400D01*
Y-116600D01*
X147600D01*
Y-114520D01*
X151634D01*
X152024Y-114442D01*
X152355Y-114221D01*
X152472Y-114104D01*
X152689Y-114271D01*
X153321Y-114533D01*
X154000Y-114622D01*
X155000D01*
X155679Y-114533D01*
X156311Y-114271D01*
X156854Y-113854D01*
X157271Y-113311D01*
X157285Y-113278D01*
X157854Y-113196D01*
X161080Y-116422D01*
Y-128500D01*
X161158Y-128890D01*
X161379Y-129221D01*
X169186Y-137028D01*
X168979Y-137528D01*
X166470D01*
X164221Y-135279D01*
X163890Y-135058D01*
X163500Y-134980D01*
X156100D01*
Y-132900D01*
X149900D01*
Y-134980D01*
X146100D01*
Y-132900D01*
X139900D01*
Y-134980D01*
X131635D01*
X129795Y-133140D01*
X130020Y-132597D01*
X130127Y-131787D01*
X130020Y-130978D01*
X129708Y-130224D01*
X129211Y-129576D01*
X128563Y-129080D01*
X127809Y-128767D01*
X127000Y-128661D01*
X126191Y-128767D01*
X125437Y-129080D01*
X124789Y-129576D01*
X124292Y-130224D01*
X123980Y-130978D01*
X123873Y-131787D01*
X123980Y-132597D01*
X124292Y-133351D01*
X124789Y-133998D01*
X125437Y-134495D01*
X126191Y-134808D01*
X127000Y-134914D01*
X127809Y-134808D01*
X128353Y-134582D01*
X130492Y-136721D01*
X130822Y-136942D01*
X131213Y-137020D01*
X139900D01*
Y-139100D01*
X146100D01*
Y-137020D01*
X149900D01*
Y-139100D01*
X156100D01*
Y-137020D01*
X163078D01*
X165054Y-138996D01*
X165024Y-139216D01*
X164870Y-139519D01*
X164594Y-139574D01*
X164263Y-139795D01*
X159578Y-144480D01*
X156100D01*
Y-141900D01*
X149900D01*
Y-144480D01*
X146600D01*
Y-142400D01*
X140400D01*
Y-144480D01*
X132500D01*
X132110Y-144558D01*
X131779Y-144779D01*
X128353Y-148205D01*
X127809Y-147980D01*
X127000Y-147873D01*
X126191Y-147980D01*
X125437Y-148292D01*
X124789Y-148789D01*
X124292Y-149437D01*
X123980Y-150191D01*
X123873Y-151000D01*
X123980Y-151809D01*
X124292Y-152563D01*
X124789Y-153211D01*
X125437Y-153708D01*
X126191Y-154020D01*
X127000Y-154127D01*
X127809Y-154020D01*
X128563Y-153708D01*
X129211Y-153211D01*
X129708Y-152563D01*
X130020Y-151809D01*
X130127Y-151000D01*
X130020Y-150191D01*
X129795Y-149647D01*
X132922Y-146520D01*
X140400D01*
Y-148600D01*
X146600D01*
Y-146520D01*
X149900D01*
Y-148100D01*
X156100D01*
Y-146520D01*
X160000D01*
X160390Y-146442D01*
X160721Y-146221D01*
X165354Y-141588D01*
X165780Y-141636D01*
X165961Y-142097D01*
X147078Y-160980D01*
X126000D01*
X125610Y-161058D01*
X125279Y-161279D01*
X123779Y-162779D01*
X123558Y-163110D01*
X123480Y-163500D01*
Y-165900D01*
X121400D01*
Y-172100D01*
X123480D01*
Y-174681D01*
X117291D01*
Y-121016D01*
X122653Y-115654D01*
X123007Y-115124D01*
X123131Y-114500D01*
Y-79376D01*
X141430D01*
X142864Y-80810D01*
Y-82778D01*
X141868D01*
Y-87718D01*
X146612D01*
Y-82778D01*
X145617D01*
Y-80240D01*
X145512Y-79713D01*
X145213Y-79267D01*
X145213Y-79267D01*
X142973Y-77027D01*
X142527Y-76728D01*
X142000Y-76624D01*
X123131D01*
Y-58176D01*
X126776Y-54531D01*
X127500Y-54627D01*
X128309Y-54520D01*
X129063Y-54208D01*
X129711Y-53711D01*
X130208Y-53063D01*
X130520Y-52309D01*
X130627Y-51500D01*
X130520Y-50691D01*
X130208Y-49937D01*
X129711Y-49289D01*
X129063Y-48792D01*
X128309Y-48480D01*
X127500Y-48373D01*
X126691Y-48480D01*
X125937Y-48792D01*
X125289Y-49289D01*
X124792Y-49937D01*
X124480Y-50691D01*
X124373Y-51500D01*
X124469Y-52224D01*
X120346Y-56346D01*
X119993Y-56876D01*
X119869Y-57500D01*
Y-78000D01*
Y-113824D01*
X117753Y-115940D01*
X117291Y-115748D01*
Y-11181D01*
X188291D01*
Y-22447D01*
D02*
G37*
G36*
Y-75681D02*
X288517D01*
Y-81278D01*
X287368D01*
Y-86218D01*
X292112D01*
Y-84971D01*
X295241D01*
X296276Y-86007D01*
Y-89640D01*
X296252Y-90130D01*
X295777Y-90130D01*
X293980D01*
Y-92500D01*
X296252D01*
Y-91665D01*
X296289Y-91636D01*
X296752Y-91482D01*
X298135Y-92865D01*
X298532Y-93130D01*
X299000Y-93224D01*
X300900D01*
Y-95100D01*
X302777D01*
Y-98400D01*
X300900D01*
Y-104600D01*
X307100D01*
Y-98400D01*
X305223D01*
Y-95100D01*
X307100D01*
Y-88900D01*
X300900D01*
Y-90776D01*
X299507D01*
X298724Y-89993D01*
Y-85500D01*
X298630Y-85032D01*
X298365Y-84635D01*
X296613Y-82883D01*
X296216Y-82618D01*
X295748Y-82525D01*
X292112D01*
Y-81278D01*
X290964D01*
Y-75681D01*
X313791D01*
Y-81776D01*
X307100D01*
Y-79900D01*
X300900D01*
Y-86100D01*
X307100D01*
Y-84224D01*
X313791D01*
Y-133181D01*
X313791D01*
X313938Y-133535D01*
X313791Y-133681D01*
Y-301202D01*
X313320Y-301371D01*
X313067Y-301062D01*
X311835Y-300051D01*
X310428Y-299299D01*
X308902Y-298836D01*
X307315Y-298680D01*
X305728Y-298836D01*
X304202Y-299299D01*
X302795Y-300051D01*
X301562Y-301062D01*
X300551Y-302295D01*
X299799Y-303702D01*
X299336Y-305228D01*
X299180Y-306815D01*
X299336Y-308402D01*
X299799Y-309928D01*
X300551Y-311335D01*
X301562Y-312567D01*
X302795Y-313579D01*
X304202Y-314331D01*
X305728Y-314794D01*
X307315Y-314950D01*
X308902Y-314794D01*
X310428Y-314331D01*
X311835Y-313579D01*
X313067Y-312567D01*
X313320Y-312259D01*
X313791Y-312428D01*
Y-316181D01*
X135791D01*
Y-269886D01*
X136253Y-269695D01*
X136393Y-269835D01*
X136724Y-270056D01*
X137114Y-270133D01*
X139553D01*
Y-271879D01*
X147447D01*
Y-266349D01*
X139553D01*
Y-268094D01*
X137536D01*
X136120Y-266678D01*
Y-257215D01*
X136582Y-257024D01*
X137779Y-258221D01*
X138110Y-258442D01*
X138500Y-258520D01*
X140400D01*
Y-260600D01*
X146600D01*
Y-254400D01*
X140400D01*
Y-256480D01*
X138922D01*
X137520Y-255078D01*
Y-231500D01*
X137442Y-231110D01*
X137221Y-230779D01*
X136020Y-229578D01*
Y-226219D01*
X136520Y-226011D01*
X138229Y-227721D01*
X138560Y-227942D01*
X138950Y-228020D01*
X140400D01*
Y-230100D01*
X146600D01*
Y-223900D01*
X140400D01*
Y-225980D01*
X139372D01*
X138020Y-224628D01*
Y-206422D01*
X139422Y-205020D01*
X146004D01*
X146053Y-205520D01*
X145860Y-205558D01*
X145529Y-205779D01*
X142779Y-208529D01*
X142558Y-208860D01*
X142480Y-209250D01*
Y-211900D01*
X140400D01*
Y-218100D01*
X146600D01*
Y-211900D01*
X144520D01*
Y-209672D01*
X146672Y-207520D01*
X194000D01*
X194390Y-207442D01*
X194721Y-207221D01*
X196465Y-205477D01*
X196965Y-205684D01*
Y-208593D01*
X195578Y-209980D01*
X183500D01*
X183110Y-210058D01*
X182779Y-210279D01*
X179679Y-213379D01*
X179458Y-213710D01*
X179380Y-214100D01*
Y-258178D01*
X176578Y-260980D01*
X162000D01*
X161610Y-261058D01*
X161279Y-261279D01*
X160279Y-262279D01*
X160058Y-262610D01*
X159980Y-263000D01*
Y-267448D01*
X157900D01*
Y-273649D01*
X164100D01*
Y-267448D01*
X162020D01*
Y-263422D01*
X162422Y-263020D01*
X177000D01*
X177390Y-262942D01*
X177721Y-262721D01*
X180315Y-260127D01*
X180777Y-260319D01*
Y-300493D01*
X176993Y-304276D01*
X145007D01*
X144723Y-303993D01*
Y-302600D01*
X146600D01*
Y-296400D01*
X144723D01*
Y-294100D01*
X146600D01*
Y-287900D01*
X144723D01*
Y-285265D01*
X147447D01*
Y-279735D01*
X139553D01*
Y-285265D01*
X142277D01*
Y-287900D01*
X140400D01*
Y-294100D01*
X142277D01*
Y-296400D01*
X140400D01*
Y-302600D01*
X142277D01*
Y-304500D01*
X142370Y-304968D01*
X142635Y-305365D01*
X143635Y-306365D01*
X144032Y-306630D01*
X144500Y-306723D01*
X177500D01*
X177968Y-306630D01*
X178365Y-306365D01*
X182865Y-301865D01*
X183130Y-301468D01*
X183223Y-301000D01*
Y-230757D01*
X187052Y-226928D01*
X187918Y-227287D01*
X189000Y-227429D01*
X190082Y-227287D01*
X191089Y-226869D01*
X191955Y-226205D01*
X192619Y-225340D01*
X192978Y-224474D01*
X210022D01*
X210381Y-225340D01*
X211045Y-226205D01*
X211911Y-226869D01*
X212918Y-227287D01*
X214000Y-227429D01*
X215082Y-227287D01*
X216090Y-226869D01*
X216955Y-226205D01*
X217619Y-225340D01*
X218037Y-224332D01*
X218179Y-223250D01*
X218037Y-222168D01*
X217619Y-221161D01*
X216955Y-220295D01*
X216090Y-219631D01*
X215082Y-219213D01*
X214000Y-219071D01*
X212918Y-219213D01*
X211911Y-219631D01*
X211045Y-220295D01*
X210381Y-221161D01*
X210022Y-222026D01*
X192978D01*
X192619Y-221161D01*
X191955Y-220295D01*
X191089Y-219631D01*
X190082Y-219213D01*
X189000Y-219071D01*
X187918Y-219213D01*
X186910Y-219631D01*
X186045Y-220295D01*
X185381Y-221161D01*
X184963Y-222168D01*
X184821Y-223250D01*
X184963Y-224332D01*
X185322Y-225198D01*
X181881Y-228638D01*
X181420Y-228447D01*
Y-214522D01*
X183922Y-212020D01*
X196000D01*
X196390Y-211942D01*
X196721Y-211721D01*
X198433Y-210009D01*
X198933Y-210216D01*
Y-212453D01*
X199011Y-212843D01*
X199232Y-213174D01*
X200279Y-214221D01*
X200610Y-214442D01*
X201000Y-214520D01*
X217578D01*
X219480Y-216422D01*
Y-265078D01*
X218504Y-266054D01*
X218489Y-266058D01*
X217945Y-265947D01*
X217619Y-265160D01*
X216955Y-264295D01*
X216090Y-263631D01*
X215082Y-263213D01*
X214000Y-263071D01*
X212918Y-263213D01*
X211911Y-263631D01*
X211045Y-264295D01*
X210381Y-265160D01*
X209963Y-266168D01*
X209955Y-266230D01*
X193045D01*
X193037Y-266168D01*
X192619Y-265160D01*
X191955Y-264295D01*
X191089Y-263631D01*
X190082Y-263213D01*
X189000Y-263071D01*
X187918Y-263213D01*
X186910Y-263631D01*
X186045Y-264295D01*
X185381Y-265160D01*
X184963Y-266168D01*
X184821Y-267250D01*
X184963Y-268332D01*
X185381Y-269339D01*
X186045Y-270205D01*
X186910Y-270869D01*
X187918Y-271287D01*
X189000Y-271429D01*
X190082Y-271287D01*
X191089Y-270869D01*
X191955Y-270205D01*
X192619Y-269339D01*
X193037Y-268332D01*
X193045Y-268270D01*
X209955D01*
X209963Y-268332D01*
X210381Y-269339D01*
X211045Y-270205D01*
X211911Y-270869D01*
X212918Y-271287D01*
X214000Y-271429D01*
X215082Y-271287D01*
X216090Y-270869D01*
X216955Y-270205D01*
X217619Y-269339D01*
X218037Y-268332D01*
X218045Y-268270D01*
X218750D01*
X219140Y-268192D01*
X219471Y-267971D01*
X221221Y-266221D01*
X221442Y-265890D01*
X221520Y-265500D01*
Y-264115D01*
X221982Y-263924D01*
X226529Y-268471D01*
X226860Y-268692D01*
X227250Y-268770D01*
X229955D01*
X229963Y-268832D01*
X230381Y-269840D01*
X231045Y-270705D01*
X231910Y-271369D01*
X232918Y-271787D01*
X234000Y-271929D01*
X235082Y-271787D01*
X236089Y-271369D01*
X236955Y-270705D01*
X237619Y-269840D01*
X238037Y-268832D01*
X238045Y-268770D01*
X254955D01*
X254963Y-268832D01*
X255381Y-269840D01*
X256045Y-270705D01*
X256910Y-271369D01*
X257918Y-271787D01*
X259000Y-271929D01*
X260082Y-271787D01*
X261089Y-271369D01*
X261955Y-270705D01*
X262619Y-269840D01*
X263037Y-268832D01*
X263179Y-267750D01*
X263037Y-266668D01*
X262619Y-265661D01*
X261955Y-264795D01*
X261089Y-264131D01*
X260082Y-263713D01*
X259000Y-263571D01*
X257918Y-263713D01*
X256910Y-264131D01*
X256045Y-264795D01*
X255381Y-265661D01*
X254963Y-266668D01*
X254955Y-266730D01*
X238045D01*
X238037Y-266668D01*
X237619Y-265661D01*
X236955Y-264795D01*
X236089Y-264131D01*
X235082Y-263713D01*
X234000Y-263571D01*
X232918Y-263713D01*
X231910Y-264131D01*
X231045Y-264795D01*
X230381Y-265661D01*
X229963Y-266668D01*
X229955Y-266730D01*
X227672D01*
X223020Y-262078D01*
Y-223115D01*
X223481Y-222923D01*
X224529Y-223971D01*
X224860Y-224192D01*
X225250Y-224270D01*
X229955D01*
X229963Y-224332D01*
X230381Y-225340D01*
X231045Y-226205D01*
X231910Y-226869D01*
X232918Y-227287D01*
X234000Y-227429D01*
X235082Y-227287D01*
X236089Y-226869D01*
X236955Y-226205D01*
X237619Y-225340D01*
X238037Y-224332D01*
X238045Y-224270D01*
X254955D01*
X254963Y-224332D01*
X255381Y-225340D01*
X256045Y-226205D01*
X256910Y-226869D01*
X257918Y-227287D01*
X259000Y-227429D01*
X260082Y-227287D01*
X261089Y-226869D01*
X261955Y-226205D01*
X262619Y-225340D01*
X263037Y-224332D01*
X263179Y-223250D01*
X263037Y-222168D01*
X262619Y-221161D01*
X261955Y-220295D01*
X261089Y-219631D01*
X260082Y-219213D01*
X259000Y-219071D01*
X257918Y-219213D01*
X256910Y-219631D01*
X256045Y-220295D01*
X255381Y-221161D01*
X254963Y-222168D01*
X254955Y-222230D01*
X238045D01*
X238037Y-222168D01*
X237619Y-221161D01*
X236955Y-220295D01*
X236089Y-219631D01*
X235082Y-219213D01*
X234000Y-219071D01*
X232918Y-219213D01*
X231910Y-219631D01*
X231045Y-220295D01*
X230381Y-221161D01*
X229963Y-222168D01*
X229955Y-222230D01*
X225672D01*
X224420Y-220978D01*
Y-214940D01*
X224342Y-214550D01*
X224121Y-214219D01*
X219681Y-209779D01*
X219350Y-209558D01*
X218960Y-209480D01*
X206422D01*
X204909Y-207967D01*
Y-161622D01*
X205409Y-161338D01*
X205858Y-161427D01*
X206307Y-161338D01*
X206807Y-161622D01*
Y-172827D01*
X206885Y-173217D01*
X207106Y-173548D01*
X208480Y-174922D01*
Y-177400D01*
X206400D01*
Y-183600D01*
X212600D01*
Y-181520D01*
X215257D01*
X215347Y-181653D01*
X215876Y-182007D01*
X216500Y-182131D01*
X217124Y-182007D01*
X217653Y-181653D01*
X218007Y-181124D01*
X218131Y-180500D01*
X218007Y-179876D01*
X217653Y-179347D01*
X217124Y-178993D01*
X216500Y-178869D01*
X215876Y-178993D01*
X215347Y-179347D01*
X215257Y-179480D01*
X212600D01*
Y-177400D01*
X210520D01*
Y-174500D01*
X210442Y-174110D01*
X210221Y-173779D01*
X208846Y-172404D01*
Y-160500D01*
X216000D01*
Y-153346D01*
X218904D01*
X221580Y-156022D01*
Y-209600D01*
X221658Y-209990D01*
X221879Y-210321D01*
X225779Y-214221D01*
X226110Y-214442D01*
X226500Y-214520D01*
X264078D01*
X266980Y-217422D01*
Y-265500D01*
X267058Y-265890D01*
X267279Y-266221D01*
X269529Y-268471D01*
X269860Y-268692D01*
X270250Y-268770D01*
X274955D01*
X274963Y-268832D01*
X275381Y-269840D01*
X276045Y-270705D01*
X276910Y-271369D01*
X277918Y-271787D01*
X279000Y-271929D01*
X280082Y-271787D01*
X281089Y-271369D01*
X281955Y-270705D01*
X282619Y-269840D01*
X283037Y-268832D01*
X283045Y-268770D01*
X299955D01*
X299963Y-268832D01*
X300381Y-269840D01*
X301045Y-270705D01*
X301910Y-271369D01*
X302918Y-271787D01*
X304000Y-271929D01*
X305082Y-271787D01*
X306089Y-271369D01*
X306955Y-270705D01*
X307619Y-269840D01*
X308037Y-268832D01*
X308179Y-267750D01*
X308037Y-266668D01*
X307619Y-265661D01*
X306955Y-264795D01*
X306089Y-264131D01*
X305082Y-263713D01*
X304000Y-263571D01*
X302918Y-263713D01*
X301910Y-264131D01*
X301045Y-264795D01*
X300381Y-265661D01*
X299963Y-266668D01*
X299955Y-266730D01*
X283045D01*
X283037Y-266668D01*
X282619Y-265661D01*
X281955Y-264795D01*
X281089Y-264131D01*
X280082Y-263713D01*
X279000Y-263571D01*
X277918Y-263713D01*
X276910Y-264131D01*
X276045Y-264795D01*
X275381Y-265661D01*
X274963Y-266668D01*
X274955Y-266730D01*
X270672D01*
X269020Y-265078D01*
Y-223715D01*
X269481Y-223523D01*
X269929Y-223971D01*
X270260Y-224192D01*
X270650Y-224270D01*
X274955D01*
X274963Y-224332D01*
X275381Y-225340D01*
X276045Y-226205D01*
X276910Y-226869D01*
X277918Y-227287D01*
X279000Y-227429D01*
X280082Y-227287D01*
X281089Y-226869D01*
X281955Y-226205D01*
X282619Y-225340D01*
X283037Y-224332D01*
X283045Y-224270D01*
X299955D01*
X299963Y-224332D01*
X300381Y-225340D01*
X301045Y-226205D01*
X301910Y-226869D01*
X302918Y-227287D01*
X304000Y-227429D01*
X305082Y-227287D01*
X306089Y-226869D01*
X306955Y-226205D01*
X307619Y-225340D01*
X308037Y-224332D01*
X308179Y-223250D01*
X308037Y-222168D01*
X307619Y-221161D01*
X306955Y-220295D01*
X306089Y-219631D01*
X305082Y-219213D01*
X304000Y-219071D01*
X302918Y-219213D01*
X301910Y-219631D01*
X301045Y-220295D01*
X300381Y-221161D01*
X299963Y-222168D01*
X299955Y-222230D01*
X283045D01*
X283037Y-222168D01*
X282619Y-221161D01*
X281955Y-220295D01*
X281089Y-219631D01*
X280082Y-219213D01*
X279000Y-219071D01*
X277918Y-219213D01*
X276910Y-219631D01*
X276045Y-220295D01*
X275381Y-221161D01*
X274963Y-222168D01*
X274955Y-222230D01*
X271072D01*
X270420Y-221578D01*
Y-216420D01*
X270342Y-216030D01*
X270121Y-215699D01*
X265801Y-211379D01*
X265470Y-211158D01*
X265080Y-211080D01*
X228522D01*
X225020Y-207578D01*
Y-152500D01*
X224942Y-152110D01*
X224721Y-151779D01*
X222579Y-149637D01*
X222248Y-149416D01*
X221858Y-149339D01*
X216686D01*
X216419Y-148839D01*
X216434Y-148816D01*
X216519Y-148390D01*
X216434Y-147964D01*
X216193Y-147602D01*
X216289Y-147065D01*
X216434Y-146847D01*
X216519Y-146421D01*
X216434Y-145995D01*
X216193Y-145634D01*
Y-145240D01*
X216434Y-144879D01*
X216519Y-144453D01*
X216434Y-144027D01*
X216419Y-144004D01*
X216686Y-143504D01*
X222562D01*
X249279Y-170221D01*
X249610Y-170442D01*
X250000Y-170520D01*
X282577D01*
X282897Y-171292D01*
X283466Y-172034D01*
X284208Y-172603D01*
X285073Y-172961D01*
X286000Y-173083D01*
X286927Y-172961D01*
X287792Y-172603D01*
X288534Y-172034D01*
X289103Y-171292D01*
X289461Y-170427D01*
X289583Y-169500D01*
X289461Y-168573D01*
X289103Y-167708D01*
X288534Y-166966D01*
X287792Y-166397D01*
X286927Y-166039D01*
X286000Y-165917D01*
X285073Y-166039D01*
X284208Y-166397D01*
X283466Y-166966D01*
X282897Y-167708D01*
X282577Y-168480D01*
X250422D01*
X242962Y-161020D01*
X243169Y-160520D01*
X282577D01*
X282897Y-161292D01*
X283466Y-162034D01*
X284208Y-162603D01*
X285073Y-162961D01*
X286000Y-163083D01*
X286927Y-162961D01*
X287792Y-162603D01*
X288534Y-162034D01*
X289103Y-161292D01*
X289461Y-160427D01*
X289583Y-159500D01*
X289461Y-158573D01*
X289103Y-157708D01*
X288534Y-156966D01*
X287792Y-156397D01*
X286927Y-156039D01*
X286000Y-155917D01*
X285073Y-156039D01*
X284208Y-156397D01*
X283466Y-156966D01*
X282897Y-157708D01*
X282577Y-158480D01*
X242922D01*
X224485Y-140043D01*
X224692Y-139543D01*
X225273D01*
X225346Y-139654D01*
X225876Y-140007D01*
X226500Y-140131D01*
X227124Y-140007D01*
X227654Y-139654D01*
X228007Y-139124D01*
X228131Y-138500D01*
X228007Y-137876D01*
X227654Y-137346D01*
X227124Y-136993D01*
X226500Y-136869D01*
X225876Y-136993D01*
X225346Y-137346D01*
X225241Y-137504D01*
X216702D01*
X216434Y-137005D01*
X216519Y-136579D01*
X216434Y-136153D01*
X216419Y-136130D01*
X216686Y-135630D01*
X229688D01*
X237279Y-143221D01*
X237610Y-143442D01*
X238000Y-143520D01*
X259480D01*
Y-144900D01*
X257400D01*
Y-151100D01*
X263600D01*
Y-144900D01*
X261520D01*
Y-143520D01*
X292078D01*
X293480Y-144922D01*
Y-168000D01*
X293558Y-168390D01*
X293779Y-168721D01*
X295279Y-170221D01*
X295610Y-170442D01*
X296000Y-170520D01*
X299577D01*
X299897Y-171292D01*
X300466Y-172034D01*
X301208Y-172603D01*
X302073Y-172961D01*
X303000Y-173083D01*
X303927Y-172961D01*
X304792Y-172603D01*
X305534Y-172034D01*
X306103Y-171292D01*
X306461Y-170427D01*
X306583Y-169500D01*
X306461Y-168573D01*
X306103Y-167708D01*
X305534Y-166966D01*
X304792Y-166397D01*
X303927Y-166039D01*
X303000Y-165917D01*
X302073Y-166039D01*
X301208Y-166397D01*
X300466Y-166966D01*
X299897Y-167708D01*
X299577Y-168480D01*
X296422D01*
X295520Y-167578D01*
Y-158615D01*
X295982Y-158423D01*
X297779Y-160221D01*
X298110Y-160442D01*
X298500Y-160520D01*
X299577D01*
X299897Y-161292D01*
X300466Y-162034D01*
X301208Y-162603D01*
X302073Y-162961D01*
X303000Y-163083D01*
X303927Y-162961D01*
X304792Y-162603D01*
X305534Y-162034D01*
X306103Y-161292D01*
X306461Y-160427D01*
X306583Y-159500D01*
X306461Y-158573D01*
X306103Y-157708D01*
X305534Y-156966D01*
X304792Y-156397D01*
X303927Y-156039D01*
X303000Y-155917D01*
X302073Y-156039D01*
X301208Y-156397D01*
X300466Y-156966D01*
X299897Y-157708D01*
X299577Y-158480D01*
X298922D01*
X297020Y-156578D01*
Y-143500D01*
X296942Y-143110D01*
X296721Y-142779D01*
X293721Y-139779D01*
X293390Y-139558D01*
X293000Y-139480D01*
X261520D01*
Y-138100D01*
X263600D01*
Y-131900D01*
X257400D01*
Y-138100D01*
X259480D01*
Y-139480D01*
X254922D01*
X252520Y-137078D01*
Y-121000D01*
X252442Y-120610D01*
X252221Y-120279D01*
X250221Y-118279D01*
X249890Y-118058D01*
X249500Y-117980D01*
X213148D01*
X212941Y-117480D01*
X219421Y-111001D01*
X219642Y-110670D01*
X219720Y-110280D01*
Y-100222D01*
X222022Y-97920D01*
X246539D01*
X246929Y-97842D01*
X247260Y-97621D01*
X249160Y-95721D01*
X249381Y-95390D01*
X249459Y-95000D01*
Y-90862D01*
X250231Y-90542D01*
X250973Y-89973D01*
X251542Y-89231D01*
X251900Y-88366D01*
X252022Y-87439D01*
X251900Y-86511D01*
X251542Y-85647D01*
X250973Y-84905D01*
X250231Y-84336D01*
X249366Y-83978D01*
X248439Y-83856D01*
X247512Y-83978D01*
X246647Y-84336D01*
X245905Y-84905D01*
X245336Y-85647D01*
X244978Y-86511D01*
X244856Y-87439D01*
X244978Y-88366D01*
X245336Y-89231D01*
X245905Y-89973D01*
X246647Y-90542D01*
X247419Y-90862D01*
Y-94578D01*
X246117Y-95880D01*
X238154D01*
X237962Y-95419D01*
X239160Y-94221D01*
X239381Y-93890D01*
X239459Y-93500D01*
Y-90862D01*
X240231Y-90542D01*
X240973Y-89973D01*
X241542Y-89231D01*
X241900Y-88366D01*
X242022Y-87439D01*
X241900Y-86511D01*
X241542Y-85647D01*
X240973Y-84905D01*
X240231Y-84336D01*
X239366Y-83978D01*
X238439Y-83856D01*
X237511Y-83978D01*
X236647Y-84336D01*
X235905Y-84905D01*
X235336Y-85647D01*
X234978Y-86511D01*
X234856Y-87439D01*
X234978Y-88366D01*
X235336Y-89231D01*
X235905Y-89973D01*
X236647Y-90542D01*
X237419Y-90862D01*
Y-93078D01*
X236017Y-94480D01*
X227608D01*
X227400Y-93980D01*
X229160Y-92221D01*
X229381Y-91890D01*
X229459Y-91500D01*
Y-90862D01*
X230231Y-90542D01*
X230973Y-89973D01*
X231542Y-89231D01*
X231900Y-88366D01*
X232022Y-87439D01*
X231900Y-86511D01*
X231542Y-85647D01*
X230973Y-84905D01*
X230231Y-84336D01*
X229366Y-83978D01*
X228439Y-83856D01*
X227512Y-83978D01*
X226647Y-84336D01*
X225905Y-84905D01*
X225336Y-85647D01*
X224978Y-86511D01*
X224856Y-87439D01*
X224978Y-88366D01*
X225336Y-89231D01*
X225905Y-89973D01*
X226647Y-90542D01*
X227076Y-90720D01*
X227189Y-91308D01*
X226017Y-92480D01*
X219000D01*
X218610Y-92558D01*
X218279Y-92779D01*
X215982Y-95077D01*
X215520Y-94885D01*
Y-91800D01*
X216739Y-90580D01*
X217512Y-90900D01*
X218439Y-91022D01*
X219366Y-90900D01*
X220231Y-90542D01*
X220973Y-89973D01*
X221542Y-89231D01*
X221900Y-88366D01*
X222022Y-87439D01*
X221900Y-86511D01*
X221542Y-85647D01*
X220973Y-84905D01*
X220231Y-84336D01*
X219366Y-83978D01*
X218439Y-83856D01*
X217512Y-83978D01*
X216647Y-84336D01*
X215905Y-84905D01*
X215336Y-85647D01*
X214978Y-86511D01*
X214856Y-87439D01*
X214978Y-88366D01*
X215298Y-89139D01*
X213779Y-90657D01*
X213760Y-90686D01*
X213475Y-90735D01*
X213146Y-90704D01*
X211580Y-89139D01*
X211900Y-88366D01*
X212022Y-87439D01*
X211900Y-86511D01*
X211542Y-85647D01*
X210973Y-84905D01*
X210231Y-84336D01*
X209366Y-83978D01*
X208439Y-83856D01*
X207511Y-83978D01*
X206647Y-84336D01*
X205905Y-84905D01*
X205336Y-85647D01*
X204978Y-86511D01*
X204856Y-87439D01*
X204978Y-88366D01*
X205336Y-89231D01*
X205905Y-89973D01*
X206647Y-90542D01*
X207511Y-90900D01*
X208439Y-91022D01*
X209366Y-90900D01*
X210139Y-90580D01*
X211480Y-91922D01*
Y-107578D01*
X208578Y-110480D01*
X205669D01*
X205462Y-109980D01*
X206721Y-108721D01*
X206942Y-108390D01*
X207020Y-108000D01*
Y-107100D01*
X209100D01*
Y-100900D01*
X202900D01*
Y-107100D01*
X204926D01*
X204958Y-107600D01*
X204078Y-108480D01*
X195500D01*
X195110Y-108558D01*
X194779Y-108779D01*
X193598Y-109960D01*
X193098Y-109753D01*
Y-107737D01*
X193500Y-107500D01*
X193598Y-107500D01*
X196500D01*
Y-104000D01*
Y-100500D01*
X193500D01*
Y-101894D01*
X193037Y-102163D01*
X193000Y-102157D01*
X192800Y-101858D01*
X183020Y-92078D01*
Y-66922D01*
X187422Y-62520D01*
X188291D01*
Y-75681D01*
D02*
G37*
G36*
X250480Y-121422D02*
Y-137500D01*
X250558Y-137890D01*
X250779Y-138221D01*
X253538Y-140980D01*
X253331Y-141480D01*
X238422D01*
X230831Y-133889D01*
X230500Y-133668D01*
X230110Y-133591D01*
X217122D01*
X216838Y-133091D01*
X216927Y-132642D01*
X216838Y-132193D01*
X217122Y-131693D01*
X233400D01*
Y-133600D01*
X239600D01*
Y-127400D01*
X237520D01*
Y-126433D01*
X238063Y-126208D01*
X238711Y-125711D01*
X239208Y-125063D01*
X239520Y-124309D01*
X239627Y-123500D01*
X239520Y-122691D01*
X239208Y-121937D01*
X238711Y-121289D01*
X238063Y-120792D01*
X237405Y-120520D01*
X237505Y-120020D01*
X249078D01*
X250480Y-121422D01*
D02*
G37*
G36*
X99618Y-144448D02*
Y-174898D01*
X99603Y-174913D01*
X98618Y-175341D01*
X98280Y-175116D01*
X97500Y-174961D01*
X96720Y-175116D01*
X96058Y-175558D01*
X95616Y-176220D01*
X95461Y-177000D01*
X95616Y-177780D01*
X95906Y-178214D01*
X96023Y-178551D01*
X95743Y-179434D01*
X95558Y-179558D01*
X95116Y-180220D01*
X94961Y-181000D01*
X95116Y-181780D01*
X95558Y-182442D01*
X96220Y-182884D01*
X97000Y-183039D01*
X97780Y-182884D01*
X98442Y-182442D01*
X98623Y-182172D01*
X99041Y-182167D01*
X99700Y-182359D01*
X99935Y-182925D01*
X102603Y-185594D01*
X102220Y-186518D01*
X45548D01*
X41379Y-182348D01*
X41761Y-181424D01*
X58900D01*
Y-183675D01*
X64100D01*
Y-181424D01*
X66200D01*
Y-183675D01*
X71400D01*
Y-183131D01*
X84000D01*
X84624Y-183007D01*
X85154Y-182653D01*
X87154Y-180654D01*
X87507Y-180124D01*
X87631Y-179500D01*
Y-176100D01*
X89100D01*
Y-174631D01*
X91342D01*
X91720Y-174884D01*
X92500Y-175039D01*
X93280Y-174884D01*
X93942Y-174442D01*
X94384Y-173780D01*
X94539Y-173000D01*
X94384Y-172220D01*
X93942Y-171558D01*
X93280Y-171116D01*
X92500Y-170961D01*
X91720Y-171116D01*
X91342Y-171369D01*
X89100D01*
Y-169900D01*
X85418D01*
Y-168000D01*
X85500D01*
Y-164500D01*
Y-161000D01*
X85418D01*
Y-159500D01*
X85500D01*
Y-156000D01*
Y-152500D01*
X85418D01*
Y-151000D01*
X85500D01*
Y-147500D01*
Y-144000D01*
X85418D01*
Y-141582D01*
X96752D01*
X99618Y-144448D01*
D02*
G37*
G36*
X151136Y-160513D02*
X151058Y-160630D01*
X150980Y-161020D01*
Y-176578D01*
X150578Y-176980D01*
X146100D01*
Y-174900D01*
X139900D01*
Y-176980D01*
X139243D01*
X139154Y-176847D01*
X138624Y-176493D01*
X138000Y-176369D01*
X137376Y-176493D01*
X137100Y-176677D01*
X136600Y-176410D01*
Y-174900D01*
X135791D01*
Y-174681D01*
X125520D01*
Y-172100D01*
X127600D01*
Y-165900D01*
X125520D01*
Y-163922D01*
X126422Y-163020D01*
X147500D01*
X147890Y-162942D01*
X148221Y-162721D01*
X150748Y-160194D01*
X151136Y-160513D01*
D02*
G37*
G36*
X26059Y-181900D02*
X25595Y-182900D01*
X24900D01*
Y-189100D01*
X25859D01*
Y-191400D01*
X24900D01*
Y-197600D01*
X25859D01*
Y-199168D01*
X20510D01*
Y-208832D01*
X25859D01*
Y-224168D01*
X25235D01*
Y-233832D01*
X30765D01*
Y-224168D01*
X30141D01*
Y-208832D01*
X35490D01*
Y-199168D01*
X30141D01*
Y-197600D01*
X31100D01*
Y-193951D01*
X32024Y-193568D01*
X32109Y-193654D01*
X32638Y-194007D01*
X33263Y-194131D01*
X51000D01*
Y-196500D01*
X58000D01*
Y-194131D01*
X59500D01*
Y-196500D01*
X66500D01*
Y-194131D01*
X91342D01*
X91720Y-194384D01*
X92500Y-194539D01*
X93280Y-194384D01*
X93942Y-193942D01*
X94384Y-193280D01*
X94539Y-192500D01*
X94384Y-191720D01*
X93958Y-191082D01*
X93987Y-190930D01*
X94282Y-190082D01*
X130918D01*
Y-239538D01*
X130319Y-239835D01*
X129918Y-239890D01*
X126514Y-236486D01*
X125819Y-236022D01*
X125000Y-235859D01*
X121749D01*
X120953Y-235366D01*
X120953Y-234859D01*
Y-231716D01*
X113047D01*
Y-235029D01*
X113047Y-235366D01*
X112812Y-236268D01*
X112486Y-236486D01*
X109862Y-239110D01*
X109398Y-239805D01*
X109235Y-240624D01*
Y-244351D01*
X98500D01*
X98041Y-244541D01*
X97851Y-245000D01*
X97649Y-245149D01*
X96649Y-244644D01*
Y-242500D01*
Y-237149D01*
X108000D01*
X108459Y-236959D01*
X108649Y-236500D01*
Y-221649D01*
X124500D01*
X124959Y-221459D01*
X125149Y-221000D01*
Y-207000D01*
X124959Y-206541D01*
X124500Y-206351D01*
X92000D01*
X91541Y-206541D01*
X91351Y-207000D01*
Y-242500D01*
Y-244487D01*
X90351Y-244990D01*
X90299Y-244952D01*
Y-243500D01*
X89918Y-242582D01*
X87918Y-240582D01*
X87000Y-240201D01*
X66538D01*
X64799Y-238462D01*
Y-236600D01*
X66600D01*
Y-230400D01*
X64799D01*
Y-227600D01*
X66600D01*
Y-221400D01*
X64799D01*
Y-218600D01*
X66600D01*
Y-212400D01*
X60400D01*
Y-218600D01*
X62201D01*
Y-221400D01*
X60400D01*
Y-227600D01*
X62201D01*
Y-230400D01*
X60400D01*
Y-236600D01*
X62201D01*
Y-239000D01*
X62582Y-239918D01*
X65082Y-242418D01*
X66000Y-242799D01*
X86462D01*
X87701Y-244038D01*
Y-245904D01*
X87304Y-246498D01*
X87165Y-247200D01*
Y-252800D01*
X87304Y-253502D01*
X87702Y-254098D01*
X88298Y-254496D01*
X89000Y-254635D01*
X89702Y-254496D01*
X90298Y-254098D01*
X90351Y-254019D01*
X91351Y-254322D01*
Y-255000D01*
X91541Y-255459D01*
X92000Y-255649D01*
X96000D01*
X96459Y-255459D01*
X96537Y-255272D01*
X97357Y-254895D01*
X97649Y-254851D01*
X97851Y-255000D01*
X98041Y-255459D01*
X98500Y-255649D01*
X109235D01*
Y-268214D01*
X109222Y-268222D01*
X108524Y-269267D01*
X108279Y-270500D01*
X108524Y-271733D01*
X109222Y-272778D01*
X109235Y-272786D01*
Y-283900D01*
X108276D01*
Y-290100D01*
X109235D01*
Y-296388D01*
X108782D01*
Y-301131D01*
X113722D01*
Y-296388D01*
X113517D01*
Y-290100D01*
X114476D01*
Y-283900D01*
X113517D01*
Y-272952D01*
X113777Y-272778D01*
X114476Y-271733D01*
X114721Y-270500D01*
X114476Y-269267D01*
X113777Y-268222D01*
X113517Y-268049D01*
Y-250451D01*
X113777Y-250278D01*
X114476Y-249233D01*
X114721Y-248000D01*
X114476Y-246767D01*
X113777Y-245722D01*
X113517Y-245549D01*
Y-241511D01*
X114887Y-240141D01*
X124113D01*
X126359Y-242387D01*
Y-317000D01*
X126522Y-317819D01*
X126986Y-318514D01*
X128972Y-320500D01*
X128590Y-321424D01*
X74918D01*
Y-317161D01*
X79156D01*
Y-319128D01*
X89411D01*
Y-308872D01*
X79156D01*
Y-310839D01*
X74918D01*
Y-281424D01*
X8918D01*
Y-181424D01*
X25657D01*
X26059Y-181900D01*
D02*
G37*
G36*
X124500Y-221000D02*
X108000D01*
Y-236500D01*
X96000D01*
Y-245402D01*
X95500Y-245556D01*
X94858Y-245128D01*
X94500Y-245056D01*
Y-250000D01*
X93500D01*
Y-245056D01*
X93142Y-245128D01*
X92500Y-245556D01*
X92000Y-245402D01*
Y-207000D01*
X124500D01*
Y-221000D01*
D02*
G37*
%LPC*%
G36*
X245300Y-15665D02*
X239700D01*
X238998Y-15804D01*
X238402Y-16202D01*
X238004Y-16798D01*
X237865Y-17500D01*
X238004Y-18202D01*
X238402Y-18798D01*
X238998Y-19196D01*
X239700Y-19335D01*
X245300D01*
X246002Y-19196D01*
X246598Y-18798D01*
X246996Y-18202D01*
X247135Y-17500D01*
X246996Y-16798D01*
X246598Y-16202D01*
X246002Y-15804D01*
X245300Y-15665D01*
D02*
G37*
G36*
X223300D02*
X217700D01*
X216998Y-15804D01*
X216402Y-16202D01*
X216004Y-16798D01*
X215865Y-17500D01*
X216004Y-18202D01*
X216402Y-18798D01*
X216998Y-19196D01*
X217700Y-19335D01*
X223300D01*
X224002Y-19196D01*
X224598Y-18798D01*
X224996Y-18202D01*
X225135Y-17500D01*
X224996Y-16798D01*
X224598Y-16202D01*
X224002Y-15804D01*
X223300Y-15665D01*
D02*
G37*
G36*
Y-25665D02*
X217700D01*
X216998Y-25804D01*
X216402Y-26202D01*
X216353Y-26276D01*
X211500D01*
X211032Y-26370D01*
X210635Y-26635D01*
X208635Y-28635D01*
X208370Y-29032D01*
X208277Y-29500D01*
Y-41400D01*
X204900D01*
Y-43277D01*
X202100D01*
Y-41400D01*
X195900D01*
Y-47600D01*
X202100D01*
Y-45724D01*
X204900D01*
Y-47600D01*
X211100D01*
Y-45724D01*
X214400D01*
Y-47600D01*
X220600D01*
Y-41400D01*
X214400D01*
Y-43277D01*
X211100D01*
Y-41400D01*
X210723D01*
Y-30007D01*
X212007Y-28723D01*
X216353D01*
X216402Y-28798D01*
X216998Y-29196D01*
X217700Y-29335D01*
X223300D01*
X224002Y-29196D01*
X224598Y-28798D01*
X224996Y-28202D01*
X225135Y-27500D01*
X224996Y-26798D01*
X224598Y-26202D01*
X224002Y-25804D01*
X223300Y-25665D01*
D02*
G37*
G36*
Y-30257D02*
X221000D01*
Y-32000D01*
X225444D01*
X225372Y-31642D01*
X224886Y-30914D01*
X224158Y-30428D01*
X223300Y-30257D01*
D02*
G37*
G36*
X220000D02*
X217700D01*
X216842Y-30428D01*
X216114Y-30914D01*
X215628Y-31642D01*
X215556Y-32000D01*
X220000D01*
Y-30257D01*
D02*
G37*
G36*
X245300Y-30665D02*
X239700D01*
X238998Y-30804D01*
X238402Y-31202D01*
X238004Y-31798D01*
X237865Y-32500D01*
X238004Y-33202D01*
X238402Y-33798D01*
X238998Y-34196D01*
X239700Y-34335D01*
X245300D01*
X246002Y-34196D01*
X246598Y-33798D01*
X246996Y-33202D01*
X247135Y-32500D01*
X246996Y-31798D01*
X246598Y-31202D01*
X246002Y-30804D01*
X245300Y-30665D01*
D02*
G37*
G36*
X225444Y-33000D02*
X221000D01*
Y-34743D01*
X223300D01*
X224158Y-34572D01*
X224886Y-34086D01*
X225372Y-33358D01*
X225444Y-33000D01*
D02*
G37*
G36*
X220000D02*
X215556D01*
X215628Y-33358D01*
X216114Y-34086D01*
X216842Y-34572D01*
X217700Y-34743D01*
X220000D01*
Y-33000D01*
D02*
G37*
G36*
X245300Y-25665D02*
X239700D01*
X238998Y-25804D01*
X238402Y-26202D01*
X238004Y-26798D01*
X237865Y-27500D01*
X238004Y-28202D01*
X238402Y-28798D01*
X238998Y-29196D01*
X239700Y-29335D01*
X245300D01*
X246002Y-29196D01*
X246480Y-28876D01*
X252430D01*
X254872Y-31318D01*
Y-41888D01*
X253778D01*
Y-42883D01*
X252100D01*
Y-40900D01*
X245900D01*
Y-42883D01*
X243600D01*
Y-40900D01*
X237400D01*
Y-47100D01*
X243600D01*
Y-45636D01*
X245900D01*
Y-47100D01*
X252100D01*
Y-45636D01*
X253778D01*
Y-46632D01*
X258718D01*
Y-41888D01*
X257625D01*
Y-30748D01*
X257625Y-30748D01*
X257520Y-30221D01*
X257221Y-29775D01*
X253973Y-26527D01*
X253527Y-26228D01*
X253000Y-26124D01*
X246480D01*
X246002Y-25804D01*
X245300Y-25665D01*
D02*
G37*
G36*
X252500Y-49500D02*
X249500D01*
Y-52500D01*
X252500D01*
Y-49500D01*
D02*
G37*
G36*
X221000D02*
X218000D01*
Y-52500D01*
X221000D01*
Y-49500D01*
D02*
G37*
G36*
X244000D02*
X241000D01*
Y-52500D01*
X244000D01*
Y-49500D01*
D02*
G37*
G36*
X240000D02*
X237000D01*
Y-52500D01*
X240000D01*
Y-49500D01*
D02*
G37*
G36*
X217000D02*
X214000D01*
Y-52500D01*
X217000D01*
Y-49500D01*
D02*
G37*
G36*
X248500D02*
X245500D01*
Y-52500D01*
X248500D01*
Y-49500D01*
D02*
G37*
G36*
X211500Y-50000D02*
X208500D01*
Y-53000D01*
X211500D01*
Y-50000D01*
D02*
G37*
G36*
X202500D02*
X199500D01*
Y-53000D01*
X202500D01*
Y-50000D01*
D02*
G37*
G36*
X207500D02*
X204500D01*
Y-53000D01*
X207500D01*
Y-50000D01*
D02*
G37*
G36*
X198500D02*
X195500D01*
Y-53000D01*
X198500D01*
Y-50000D01*
D02*
G37*
G36*
X252500Y-53500D02*
X249500D01*
Y-56500D01*
X252500D01*
Y-53500D01*
D02*
G37*
G36*
X248500D02*
X245500D01*
Y-56500D01*
X248500D01*
Y-53500D01*
D02*
G37*
G36*
X244000D02*
X241000D01*
Y-56500D01*
X244000D01*
Y-53500D01*
D02*
G37*
G36*
X240000D02*
X237000D01*
Y-56500D01*
X240000D01*
Y-53500D01*
D02*
G37*
G36*
X221000D02*
X218000D01*
Y-56500D01*
X221000D01*
Y-53500D01*
D02*
G37*
G36*
X217000D02*
X214000D01*
Y-56500D01*
X217000D01*
Y-53500D01*
D02*
G37*
G36*
X211500Y-54000D02*
X208500D01*
Y-57000D01*
X211500D01*
Y-54000D01*
D02*
G37*
G36*
X207500D02*
X204500D01*
Y-57000D01*
X207500D01*
Y-54000D01*
D02*
G37*
G36*
X202500D02*
X199500D01*
Y-57000D01*
X202500D01*
Y-54000D01*
D02*
G37*
G36*
X198500D02*
X195500D01*
Y-57000D01*
X198500D01*
Y-54000D01*
D02*
G37*
G36*
X258718Y-49369D02*
X253778D01*
Y-54112D01*
X254233D01*
Y-58400D01*
X253400D01*
Y-60277D01*
X247600D01*
Y-58400D01*
X241400D01*
Y-64600D01*
X247600D01*
Y-62723D01*
X253400D01*
Y-64600D01*
X259600D01*
Y-58400D01*
X258515D01*
Y-54112D01*
X258718D01*
Y-49369D01*
D02*
G37*
G36*
X269000Y-58000D02*
X266000D01*
Y-61000D01*
X269000D01*
Y-58000D01*
D02*
G37*
G36*
X265000D02*
X262000D01*
Y-61000D01*
X265000D01*
Y-58000D01*
D02*
G37*
G36*
X223300Y-20665D02*
X217700D01*
X216998Y-20804D01*
X216402Y-21202D01*
X216004Y-21798D01*
X215865Y-22500D01*
X216004Y-23202D01*
X216402Y-23798D01*
X216998Y-24196D01*
X217700Y-24335D01*
X223300D01*
X224002Y-24196D01*
X224598Y-23798D01*
X224647Y-23723D01*
X225493D01*
X226777Y-25007D01*
Y-35000D01*
X226870Y-35468D01*
X227135Y-35865D01*
X232277Y-41007D01*
Y-56000D01*
X232370Y-56468D01*
X232635Y-56865D01*
X233670Y-57900D01*
X233519Y-58400D01*
X232400D01*
Y-64600D01*
X238600D01*
Y-58400D01*
X236224D01*
Y-57500D01*
X236130Y-57032D01*
X235865Y-56635D01*
X234723Y-55493D01*
Y-40500D01*
X234630Y-40032D01*
X234365Y-39635D01*
X229223Y-34493D01*
Y-24500D01*
X229130Y-24032D01*
X228865Y-23635D01*
X226865Y-21635D01*
X226468Y-21370D01*
X226000Y-21276D01*
X224647D01*
X224598Y-21202D01*
X224002Y-20804D01*
X223300Y-20665D01*
D02*
G37*
G36*
X229600Y-41400D02*
X223400D01*
Y-47600D01*
X225276D01*
Y-49900D01*
X223400D01*
Y-56100D01*
X225276D01*
Y-58400D01*
X223400D01*
Y-64600D01*
X229600D01*
Y-58400D01*
X227724D01*
Y-56100D01*
X229600D01*
Y-49900D01*
X227724D01*
Y-47600D01*
X229600D01*
Y-41400D01*
D02*
G37*
G36*
X269000Y-62000D02*
X266000D01*
Y-65000D01*
X269000D01*
Y-62000D01*
D02*
G37*
G36*
X265000D02*
X262000D01*
Y-65000D01*
X265000D01*
Y-62000D01*
D02*
G37*
G36*
X103000Y-66850D02*
X99500D01*
Y-70500D01*
X103000D01*
Y-66850D01*
D02*
G37*
G36*
X98500D02*
X95000D01*
Y-70500D01*
X98500D01*
Y-66850D01*
D02*
G37*
G36*
X92150Y-68900D02*
X88500D01*
Y-72400D01*
X92150D01*
Y-68900D01*
D02*
G37*
G36*
X103000Y-71500D02*
X99500D01*
Y-75150D01*
X103000D01*
Y-71500D01*
D02*
G37*
G36*
X98500D02*
X95000D01*
Y-75150D01*
X98500D01*
Y-71500D01*
D02*
G37*
G36*
X92150Y-73400D02*
X88500D01*
Y-76900D01*
X92150D01*
Y-73400D01*
D02*
G37*
G36*
X106465Y-79262D02*
X105000D01*
Y-81701D01*
X106465D01*
Y-79262D01*
D02*
G37*
G36*
X104000D02*
X102535D01*
Y-81701D01*
X104000D01*
Y-79262D01*
D02*
G37*
G36*
X97000Y-80500D02*
X94000D01*
Y-83500D01*
X97000D01*
Y-80500D01*
D02*
G37*
G36*
X93000D02*
X90000D01*
Y-83500D01*
X93000D01*
Y-80500D01*
D02*
G37*
G36*
X106465Y-82701D02*
X105000D01*
Y-85140D01*
X106465D01*
Y-82701D01*
D02*
G37*
G36*
X104000D02*
X102535D01*
Y-85140D01*
X104000D01*
Y-82701D01*
D02*
G37*
G36*
X97000Y-84500D02*
X94000D01*
Y-87500D01*
X97000D01*
Y-84500D01*
D02*
G37*
G36*
X93000D02*
X90000D01*
Y-87500D01*
X93000D01*
Y-84500D01*
D02*
G37*
G36*
X96600Y-89900D02*
X90400D01*
Y-96100D01*
X92124D01*
Y-99400D01*
X90400D01*
Y-105600D01*
X96600D01*
Y-103876D01*
X100300D01*
Y-105600D01*
X106500D01*
Y-99400D01*
X100300D01*
Y-101124D01*
X96600D01*
Y-99400D01*
X94876D01*
Y-96100D01*
X96600D01*
Y-89900D01*
D02*
G37*
G36*
X112000Y-108000D02*
X109000D01*
Y-111000D01*
X112000D01*
Y-108000D01*
D02*
G37*
G36*
Y-112000D02*
X109000D01*
Y-115000D01*
X112000D01*
Y-112000D01*
D02*
G37*
G36*
X91500Y-129000D02*
X88500D01*
Y-132000D01*
X91500D01*
Y-129000D01*
D02*
G37*
G36*
Y-133000D02*
X88500D01*
Y-136000D01*
X91500D01*
Y-133000D01*
D02*
G37*
G36*
X138100Y-18900D02*
X131900D01*
Y-20536D01*
X128600D01*
Y-18900D01*
X122400D01*
Y-25100D01*
X128600D01*
Y-22983D01*
X131900D01*
Y-25100D01*
X138100D01*
Y-22983D01*
X140404D01*
Y-24132D01*
X145344D01*
Y-19388D01*
X140404D01*
Y-20536D01*
X138100D01*
Y-18900D01*
D02*
G37*
G36*
X166657Y-22417D02*
X165730Y-22539D01*
X164866Y-22897D01*
X164124Y-23466D01*
X163554Y-24208D01*
X163422Y-24527D01*
X154596D01*
Y-23128D01*
X149656D01*
Y-27872D01*
X154596D01*
Y-26974D01*
X163215D01*
X163554Y-27792D01*
X164124Y-28534D01*
X164866Y-29103D01*
X165730Y-29461D01*
X166657Y-29583D01*
X167585Y-29461D01*
X168449Y-29103D01*
X169191Y-28534D01*
X169761Y-27792D01*
X170119Y-26927D01*
X170241Y-26000D01*
X170119Y-25073D01*
X169761Y-24208D01*
X169191Y-23466D01*
X168449Y-22897D01*
X167585Y-22539D01*
X166657Y-22417D01*
D02*
G37*
G36*
X145744Y-26469D02*
X143374D01*
Y-28740D01*
X145744D01*
Y-26469D01*
D02*
G37*
G36*
X142374D02*
X140004D01*
Y-28740D01*
X142374D01*
Y-26469D01*
D02*
G37*
G36*
X138500Y-27500D02*
X135500D01*
Y-30500D01*
X138500D01*
Y-27500D01*
D02*
G37*
G36*
X134500D02*
X131500D01*
Y-30500D01*
X134500D01*
Y-27500D01*
D02*
G37*
G36*
X145744Y-29740D02*
X143374D01*
Y-32012D01*
X145744D01*
Y-29740D01*
D02*
G37*
G36*
X142374D02*
X140004D01*
Y-32012D01*
X142374D01*
Y-29740D01*
D02*
G37*
G36*
X138500Y-31500D02*
X135500D01*
Y-34500D01*
X138500D01*
Y-31500D01*
D02*
G37*
G36*
X134500D02*
X131500D01*
Y-34500D01*
X134500D01*
Y-31500D01*
D02*
G37*
G36*
X150000Y-39453D02*
X149278Y-39548D01*
X148605Y-39827D01*
X148028Y-40270D01*
X147584Y-40848D01*
X147306Y-41521D01*
X147211Y-42243D01*
X147306Y-42965D01*
X147584Y-43637D01*
X148028Y-44215D01*
X148605Y-44658D01*
X149278Y-44937D01*
X150000Y-45032D01*
X150722Y-44937D01*
X151395Y-44658D01*
X151972Y-44215D01*
X152416Y-43637D01*
X152694Y-42965D01*
X152789Y-42243D01*
X152694Y-41521D01*
X152416Y-40848D01*
X151972Y-40270D01*
X151395Y-39827D01*
X150722Y-39548D01*
X150000Y-39453D01*
D02*
G37*
G36*
X159000Y-47873D02*
X158191Y-47980D01*
X157437Y-48292D01*
X156789Y-48789D01*
X156292Y-49437D01*
X155980Y-50191D01*
X155873Y-51000D01*
X155980Y-51809D01*
X156292Y-52563D01*
X156789Y-53211D01*
X157437Y-53708D01*
X158191Y-54020D01*
X159000Y-54127D01*
X159809Y-54020D01*
X160563Y-53708D01*
X161211Y-53211D01*
X161272Y-53131D01*
X164400D01*
Y-54600D01*
X170600D01*
Y-48400D01*
X164400D01*
Y-49869D01*
X161887D01*
X161708Y-49437D01*
X161211Y-48789D01*
X160563Y-48292D01*
X159809Y-47980D01*
X159000Y-47873D01*
D02*
G37*
G36*
X149902Y-68187D02*
X148974Y-68309D01*
X148110Y-68667D01*
X147368Y-69236D01*
X146798Y-69978D01*
X146440Y-70843D01*
X146318Y-71770D01*
X146440Y-72698D01*
X146798Y-73562D01*
X147368Y-74304D01*
X148110Y-74873D01*
X148974Y-75231D01*
X149902Y-75353D01*
X150829Y-75231D01*
X151693Y-74873D01*
X152435Y-74304D01*
X153005Y-73562D01*
X153363Y-72698D01*
X153485Y-71770D01*
X153363Y-70843D01*
X153005Y-69978D01*
X152435Y-69236D01*
X151693Y-68667D01*
X150829Y-68309D01*
X149902Y-68187D01*
D02*
G37*
G36*
X139131Y-82778D02*
X134388D01*
Y-84025D01*
X131754D01*
X131442Y-83558D01*
X130780Y-83116D01*
X130000Y-82961D01*
X129220Y-83116D01*
X128558Y-83558D01*
X128116Y-84220D01*
X127961Y-85000D01*
X128116Y-85780D01*
X128558Y-86442D01*
X129220Y-86884D01*
X130000Y-87039D01*
X130780Y-86884D01*
X131398Y-86471D01*
X134388D01*
Y-87718D01*
X139131D01*
Y-82778D01*
D02*
G37*
G36*
X155500Y-82000D02*
X152500D01*
Y-85000D01*
X155500D01*
Y-82000D01*
D02*
G37*
G36*
X151500D02*
X148500D01*
Y-85000D01*
X151500D01*
Y-82000D01*
D02*
G37*
G36*
X155500Y-86000D02*
X152500D01*
Y-89000D01*
X155500D01*
Y-86000D01*
D02*
G37*
G36*
X151500D02*
X148500D01*
Y-89000D01*
X151500D01*
Y-86000D01*
D02*
G37*
G36*
X170439Y-83413D02*
X168971Y-83558D01*
X167559Y-83986D01*
X166258Y-84681D01*
X165117Y-85617D01*
X164181Y-86758D01*
X163486Y-88059D01*
X163058Y-89471D01*
X162913Y-90939D01*
X163058Y-92407D01*
X163486Y-93819D01*
X164181Y-95120D01*
X165117Y-96261D01*
X166258Y-97197D01*
X167559Y-97892D01*
X168971Y-98320D01*
X170439Y-98465D01*
X171907Y-98320D01*
X173319Y-97892D01*
X174620Y-97197D01*
X175761Y-96261D01*
X176697Y-95120D01*
X177392Y-93819D01*
X177820Y-92407D01*
X177965Y-90939D01*
X177820Y-89471D01*
X177392Y-88059D01*
X176697Y-86758D01*
X175761Y-85617D01*
X174620Y-84681D01*
X173319Y-83986D01*
X171907Y-83558D01*
X170439Y-83413D01*
D02*
G37*
G36*
X139000Y-100500D02*
X136000D01*
Y-103500D01*
X139000D01*
Y-100500D01*
D02*
G37*
G36*
X135000D02*
X132000D01*
Y-103500D01*
X135000D01*
Y-100500D01*
D02*
G37*
G36*
X180500Y-104000D02*
X177500D01*
Y-107000D01*
X180500D01*
Y-104000D01*
D02*
G37*
G36*
X176500D02*
X173500D01*
Y-107000D01*
X176500D01*
Y-104000D01*
D02*
G37*
G36*
X139000Y-104500D02*
X136000D01*
Y-107500D01*
X139000D01*
Y-104500D01*
D02*
G37*
G36*
X135000D02*
X132000D01*
Y-107500D01*
X135000D01*
Y-104500D01*
D02*
G37*
G36*
X180500Y-108000D02*
X177500D01*
Y-111000D01*
X180500D01*
Y-108000D01*
D02*
G37*
G36*
X176500D02*
X173500D01*
Y-111000D01*
X176500D01*
Y-108000D01*
D02*
G37*
G36*
X139000Y-110000D02*
X136000D01*
Y-113000D01*
X139000D01*
Y-110000D01*
D02*
G37*
G36*
X135000D02*
X132000D01*
Y-113000D01*
X135000D01*
Y-110000D01*
D02*
G37*
G36*
X139000Y-114000D02*
X136000D01*
Y-117000D01*
X139000D01*
Y-114000D01*
D02*
G37*
G36*
X135000D02*
X132000D01*
Y-117000D01*
X135000D01*
Y-114000D01*
D02*
G37*
G36*
X146500Y-123500D02*
X143500D01*
Y-126500D01*
X146500D01*
Y-123500D01*
D02*
G37*
G36*
X142500D02*
X139500D01*
Y-126500D01*
X142500D01*
Y-123500D01*
D02*
G37*
G36*
X146500Y-127500D02*
X143500D01*
Y-130500D01*
X146500D01*
Y-127500D01*
D02*
G37*
G36*
X142500D02*
X139500D01*
Y-130500D01*
X142500D01*
Y-127500D01*
D02*
G37*
G36*
X147000Y-151000D02*
X144000D01*
Y-154000D01*
X147000D01*
Y-151000D01*
D02*
G37*
G36*
X143000D02*
X140000D01*
Y-154000D01*
X143000D01*
Y-151000D01*
D02*
G37*
G36*
X147000Y-155000D02*
X144000D01*
Y-158000D01*
X147000D01*
Y-155000D01*
D02*
G37*
G36*
X143000D02*
X140000D01*
Y-158000D01*
X143000D01*
Y-155000D01*
D02*
G37*
G36*
X192392Y-83486D02*
X188939D01*
Y-86939D01*
X192392D01*
Y-83486D01*
D02*
G37*
G36*
X187939D02*
X184486D01*
Y-86939D01*
X187939D01*
Y-83486D01*
D02*
G37*
G36*
X198439Y-83856D02*
X197511Y-83978D01*
X196647Y-84336D01*
X195905Y-84905D01*
X195336Y-85647D01*
X194978Y-86511D01*
X194856Y-87439D01*
X194978Y-88366D01*
X195336Y-89231D01*
X195905Y-89973D01*
X196647Y-90542D01*
X197511Y-90900D01*
X198439Y-91022D01*
X199366Y-90900D01*
X200231Y-90542D01*
X200973Y-89973D01*
X201542Y-89231D01*
X201900Y-88366D01*
X202022Y-87439D01*
X201900Y-86511D01*
X201542Y-85647D01*
X200973Y-84905D01*
X200231Y-84336D01*
X199366Y-83978D01*
X198439Y-83856D01*
D02*
G37*
G36*
X192392Y-87939D02*
X188939D01*
Y-91392D01*
X192392D01*
Y-87939D01*
D02*
G37*
G36*
X187939D02*
X184486D01*
Y-91392D01*
X187939D01*
Y-87939D01*
D02*
G37*
G36*
X292980Y-90130D02*
X290709D01*
Y-92500D01*
X292980D01*
Y-90130D01*
D02*
G37*
G36*
X296252Y-93500D02*
X293980D01*
Y-95870D01*
X296252D01*
Y-93500D01*
D02*
G37*
G36*
X292980D02*
X290709D01*
Y-95870D01*
X292980D01*
Y-93500D01*
D02*
G37*
G36*
X266439Y-83291D02*
X264971Y-83435D01*
X263559Y-83864D01*
X262258Y-84559D01*
X261117Y-85495D01*
X260181Y-86636D01*
X259486Y-87937D01*
X259058Y-89349D01*
X258913Y-90817D01*
X259058Y-92285D01*
X259486Y-93697D01*
X260181Y-94998D01*
X261117Y-96139D01*
X262258Y-97075D01*
X263559Y-97770D01*
X264971Y-98198D01*
X266439Y-98343D01*
X267907Y-98198D01*
X269319Y-97770D01*
X270620Y-97075D01*
X271761Y-96139D01*
X272697Y-94998D01*
X273392Y-93697D01*
X273820Y-92285D01*
X273965Y-90817D01*
X273820Y-89349D01*
X273392Y-87937D01*
X272697Y-86636D01*
X271761Y-85495D01*
X270620Y-84559D01*
X269319Y-83864D01*
X267907Y-83435D01*
X266439Y-83291D01*
D02*
G37*
G36*
X298500Y-98000D02*
X295500D01*
Y-101000D01*
X298500D01*
Y-98000D01*
D02*
G37*
G36*
X294500D02*
X291500D01*
Y-101000D01*
X294500D01*
Y-98000D01*
D02*
G37*
G36*
X200500Y-100500D02*
X197500D01*
Y-103500D01*
X200500D01*
Y-100500D01*
D02*
G37*
G36*
X298500Y-102000D02*
X295500D01*
Y-105000D01*
X298500D01*
Y-102000D01*
D02*
G37*
G36*
X294500D02*
X291500D01*
Y-105000D01*
X294500D01*
Y-102000D01*
D02*
G37*
G36*
X200500Y-104500D02*
X197500D01*
Y-107500D01*
X200500D01*
Y-104500D01*
D02*
G37*
G36*
X288372Y-90530D02*
X283628D01*
Y-95470D01*
X284776D01*
Y-98400D01*
X282900D01*
Y-104600D01*
X284776D01*
Y-107400D01*
X282900D01*
Y-113600D01*
X289100D01*
Y-107400D01*
X287224D01*
Y-104600D01*
X289100D01*
Y-98400D01*
X287224D01*
Y-95470D01*
X288372D01*
Y-90530D01*
D02*
G37*
G36*
X307100Y-107400D02*
X300900D01*
Y-113600D01*
X302777D01*
Y-122447D01*
X300447D01*
Y-129553D01*
X307553D01*
Y-122447D01*
X305223D01*
Y-113600D01*
X307100D01*
Y-107400D01*
D02*
G37*
G36*
X294000Y-122417D02*
X293073Y-122539D01*
X292208Y-122897D01*
X291466Y-123466D01*
X290897Y-124208D01*
X290539Y-125073D01*
X290417Y-126000D01*
X290539Y-126927D01*
X290897Y-127792D01*
X291466Y-128534D01*
X292208Y-129103D01*
X293073Y-129461D01*
X294000Y-129583D01*
X294927Y-129461D01*
X295792Y-129103D01*
X296534Y-128534D01*
X297103Y-127792D01*
X297461Y-126927D01*
X297583Y-126000D01*
X297461Y-125073D01*
X297103Y-124208D01*
X296534Y-123466D01*
X295792Y-122897D01*
X294927Y-122539D01*
X294000Y-122417D01*
D02*
G37*
G36*
X298100Y-107400D02*
X291900D01*
Y-113600D01*
X293776D01*
Y-114493D01*
X292493Y-115777D01*
X286500D01*
X286032Y-115870D01*
X285635Y-116135D01*
X283135Y-118635D01*
X282870Y-119032D01*
X282776Y-119500D01*
Y-122661D01*
X282208Y-122897D01*
X281466Y-123466D01*
X280897Y-124208D01*
X280539Y-125073D01*
X280417Y-126000D01*
X280539Y-126927D01*
X280897Y-127792D01*
X281466Y-128534D01*
X282208Y-129103D01*
X283073Y-129461D01*
X284000Y-129583D01*
X284927Y-129461D01*
X285792Y-129103D01*
X286534Y-128534D01*
X287103Y-127792D01*
X287461Y-126927D01*
X287583Y-126000D01*
X287461Y-125073D01*
X287103Y-124208D01*
X286534Y-123466D01*
X285792Y-122897D01*
X285224Y-122661D01*
Y-120007D01*
X287007Y-118224D01*
X293000D01*
X293468Y-118130D01*
X293865Y-117865D01*
X295865Y-115865D01*
X296130Y-115468D01*
X296223Y-115000D01*
Y-113600D01*
X298100D01*
Y-107400D01*
D02*
G37*
G36*
X273000Y-131500D02*
X270000D01*
Y-134500D01*
X273000D01*
Y-131500D01*
D02*
G37*
G36*
X269000D02*
X266000D01*
Y-134500D01*
X269000D01*
Y-131500D01*
D02*
G37*
G36*
X273000Y-135500D02*
X270000D01*
Y-138500D01*
X273000D01*
Y-135500D01*
D02*
G37*
G36*
X269000D02*
X266000D01*
Y-138500D01*
X269000D01*
Y-135500D01*
D02*
G37*
G36*
X303500Y-135579D02*
Y-139000D01*
X306921D01*
X306851Y-138468D01*
X306453Y-137507D01*
X305819Y-136681D01*
X304993Y-136047D01*
X304032Y-135649D01*
X303500Y-135579D01*
D02*
G37*
G36*
X302500D02*
X301968Y-135649D01*
X301007Y-136047D01*
X300181Y-136681D01*
X299547Y-137507D01*
X299149Y-138468D01*
X299079Y-139000D01*
X302500D01*
Y-135579D01*
D02*
G37*
G36*
X306921Y-140000D02*
X303500D01*
Y-143421D01*
X304032Y-143351D01*
X304993Y-142953D01*
X305819Y-142319D01*
X306453Y-141493D01*
X306851Y-140532D01*
X306921Y-140000D01*
D02*
G37*
G36*
X302500D02*
X299079D01*
X299149Y-140532D01*
X299547Y-141493D01*
X300181Y-142319D01*
X301007Y-142953D01*
X301968Y-143351D01*
X302500Y-143421D01*
Y-140000D01*
D02*
G37*
G36*
X273000Y-144500D02*
X270000D01*
Y-147500D01*
X273000D01*
Y-144500D01*
D02*
G37*
G36*
X269000D02*
X266000D01*
Y-147500D01*
X269000D01*
Y-144500D01*
D02*
G37*
G36*
X286500Y-145579D02*
Y-149000D01*
X289921D01*
X289851Y-148468D01*
X289453Y-147507D01*
X288819Y-146681D01*
X287993Y-146047D01*
X287032Y-145649D01*
X286500Y-145579D01*
D02*
G37*
G36*
X285500D02*
X284968Y-145649D01*
X284007Y-146047D01*
X283181Y-146681D01*
X282547Y-147507D01*
X282149Y-148468D01*
X282079Y-149000D01*
X285500D01*
Y-145579D01*
D02*
G37*
G36*
X273000Y-148500D02*
X270000D01*
Y-151500D01*
X273000D01*
Y-148500D01*
D02*
G37*
G36*
X269000D02*
X266000D01*
Y-151500D01*
X269000D01*
Y-148500D01*
D02*
G37*
G36*
X303000Y-145917D02*
X302073Y-146039D01*
X301208Y-146397D01*
X300466Y-146966D01*
X299897Y-147708D01*
X299539Y-148573D01*
X299417Y-149500D01*
X299539Y-150427D01*
X299897Y-151292D01*
X300466Y-152034D01*
X301208Y-152603D01*
X302073Y-152961D01*
X303000Y-153083D01*
X303927Y-152961D01*
X304792Y-152603D01*
X305534Y-152034D01*
X306103Y-151292D01*
X306461Y-150427D01*
X306583Y-149500D01*
X306461Y-148573D01*
X306103Y-147708D01*
X305534Y-146966D01*
X304792Y-146397D01*
X303927Y-146039D01*
X303000Y-145917D01*
D02*
G37*
G36*
X289921Y-150000D02*
X286500D01*
Y-153421D01*
X287032Y-153351D01*
X287993Y-152953D01*
X288819Y-152319D01*
X289453Y-151493D01*
X289851Y-150532D01*
X289921Y-150000D01*
D02*
G37*
G36*
X285500D02*
X282079D01*
X282149Y-150532D01*
X282547Y-151493D01*
X283181Y-152319D01*
X284007Y-152953D01*
X284968Y-153351D01*
X285500Y-153421D01*
Y-150000D01*
D02*
G37*
G36*
X306553Y-175947D02*
X299447D01*
Y-183053D01*
X306553D01*
Y-175947D01*
D02*
G37*
G36*
X289553D02*
X282447D01*
Y-183053D01*
X289553D01*
Y-175947D01*
D02*
G37*
G36*
X213000Y-186000D02*
X210000D01*
Y-189000D01*
X213000D01*
Y-186000D01*
D02*
G37*
G36*
X209000D02*
X206000D01*
Y-189000D01*
X209000D01*
Y-186000D01*
D02*
G37*
G36*
X213000Y-190000D02*
X210000D01*
Y-193000D01*
X213000D01*
Y-190000D01*
D02*
G37*
G36*
X209000D02*
X206000D01*
Y-193000D01*
X209000D01*
Y-190000D01*
D02*
G37*
G36*
X266561Y-178913D02*
X265093Y-179058D01*
X263681Y-179486D01*
X262380Y-180181D01*
X261239Y-181117D01*
X260303Y-182258D01*
X259608Y-183559D01*
X259180Y-184971D01*
X259035Y-186439D01*
X259180Y-187907D01*
X259608Y-189319D01*
X260303Y-190620D01*
X261239Y-191761D01*
X262380Y-192697D01*
X263681Y-193392D01*
X265093Y-193820D01*
X266561Y-193965D01*
X268029Y-193820D01*
X269441Y-193392D01*
X270742Y-192697D01*
X271883Y-191761D01*
X272819Y-190620D01*
X273514Y-189319D01*
X273942Y-187907D01*
X274087Y-186439D01*
X273942Y-184971D01*
X273514Y-183559D01*
X272819Y-182258D01*
X271883Y-181117D01*
X270742Y-180181D01*
X269441Y-179486D01*
X268029Y-179058D01*
X266561Y-178913D01*
D02*
G37*
G36*
X166100Y-211900D02*
X158900D01*
Y-213776D01*
X155600D01*
Y-211900D01*
X149400D01*
Y-218100D01*
X155600D01*
Y-216224D01*
X158900D01*
Y-218100D01*
X166100D01*
Y-211900D01*
D02*
G37*
G36*
X178500Y-211500D02*
X175000D01*
Y-214500D01*
X178500D01*
Y-211500D01*
D02*
G37*
G36*
X174000D02*
X170500D01*
Y-214500D01*
X174000D01*
Y-211500D01*
D02*
G37*
G36*
X178500Y-215500D02*
X175000D01*
Y-218500D01*
X178500D01*
Y-215500D01*
D02*
G37*
G36*
X174000D02*
X170500D01*
Y-218500D01*
X174000D01*
Y-215500D01*
D02*
G37*
G36*
X166100Y-223900D02*
X158900D01*
Y-225777D01*
X155600D01*
Y-223900D01*
X149400D01*
Y-230100D01*
X155600D01*
Y-228223D01*
X158900D01*
Y-230100D01*
X166100D01*
Y-223900D01*
D02*
G37*
G36*
X178500Y-223500D02*
X175000D01*
Y-226500D01*
X178500D01*
Y-223500D01*
D02*
G37*
G36*
X174000D02*
X170500D01*
Y-226500D01*
X174000D01*
Y-223500D01*
D02*
G37*
G36*
X178500Y-227500D02*
X175000D01*
Y-230500D01*
X178500D01*
Y-227500D01*
D02*
G37*
G36*
X174000D02*
X170500D01*
Y-230500D01*
X174000D01*
Y-227500D01*
D02*
G37*
G36*
X166100Y-235900D02*
X158900D01*
Y-237776D01*
X155600D01*
Y-235900D01*
X149400D01*
Y-242100D01*
X155600D01*
Y-240224D01*
X158900D01*
Y-242100D01*
X166100D01*
Y-235900D01*
D02*
G37*
G36*
X214500Y-236233D02*
Y-240250D01*
X218517D01*
X218426Y-239564D01*
X217969Y-238459D01*
X217240Y-237510D01*
X216291Y-236781D01*
X215186Y-236324D01*
X214500Y-236233D01*
D02*
G37*
G36*
X213500D02*
X212814Y-236324D01*
X211709Y-236781D01*
X210760Y-237510D01*
X210031Y-238459D01*
X209574Y-239564D01*
X209483Y-240250D01*
X213500D01*
Y-236233D01*
D02*
G37*
G36*
X189500D02*
Y-240250D01*
X193517D01*
X193426Y-239564D01*
X192969Y-238459D01*
X192240Y-237510D01*
X191291Y-236781D01*
X190186Y-236324D01*
X189500Y-236233D01*
D02*
G37*
G36*
X188500D02*
X187814Y-236324D01*
X186709Y-236781D01*
X185760Y-237510D01*
X185031Y-238459D01*
X184574Y-239564D01*
X184483Y-240250D01*
X188500D01*
Y-236233D01*
D02*
G37*
G36*
X304500Y-236233D02*
Y-240250D01*
X308517D01*
X308426Y-239564D01*
X307969Y-238459D01*
X307240Y-237510D01*
X306291Y-236781D01*
X305186Y-236324D01*
X304500Y-236233D01*
D02*
G37*
G36*
X234500D02*
Y-240250D01*
X238517D01*
X238426Y-239564D01*
X237969Y-238459D01*
X237240Y-237510D01*
X236291Y-236781D01*
X235186Y-236324D01*
X234500Y-236233D01*
D02*
G37*
G36*
X279500D02*
Y-240250D01*
X283517D01*
X283426Y-239564D01*
X282969Y-238459D01*
X282240Y-237510D01*
X281291Y-236781D01*
X280186Y-236324D01*
X279500Y-236233D01*
D02*
G37*
G36*
X259500D02*
Y-240250D01*
X263517D01*
X263426Y-239564D01*
X262969Y-238459D01*
X262240Y-237510D01*
X261291Y-236781D01*
X260186Y-236324D01*
X259500Y-236233D01*
D02*
G37*
G36*
X303500Y-236233D02*
X302814Y-236324D01*
X301709Y-236781D01*
X300760Y-237510D01*
X300031Y-238459D01*
X299574Y-239564D01*
X299483Y-240250D01*
X303500D01*
Y-236233D01*
D02*
G37*
G36*
X233500D02*
X232814Y-236324D01*
X231709Y-236781D01*
X230760Y-237510D01*
X230031Y-238459D01*
X229574Y-239564D01*
X229483Y-240250D01*
X233500D01*
Y-236233D01*
D02*
G37*
G36*
X278500D02*
X277814Y-236324D01*
X276709Y-236781D01*
X275760Y-237510D01*
X275031Y-238459D01*
X274574Y-239564D01*
X274483Y-240250D01*
X278500D01*
Y-236233D01*
D02*
G37*
G36*
X258500D02*
X257814Y-236324D01*
X256709Y-236781D01*
X255760Y-237510D01*
X255031Y-238459D01*
X254574Y-239564D01*
X254483Y-240250D01*
X258500D01*
Y-236233D01*
D02*
G37*
G36*
X143500Y-231461D02*
X142720Y-231616D01*
X142058Y-232058D01*
X141616Y-232720D01*
X141461Y-233500D01*
X141616Y-234280D01*
X142058Y-234942D01*
X142277Y-235088D01*
Y-235900D01*
X140400D01*
Y-242100D01*
X146600D01*
Y-235900D01*
X144723D01*
Y-235088D01*
X144942Y-234942D01*
X145384Y-234280D01*
X145539Y-233500D01*
X145384Y-232720D01*
X144942Y-232058D01*
X144280Y-231616D01*
X143500Y-231461D01*
D02*
G37*
G36*
X218517Y-241250D02*
X214500D01*
Y-245267D01*
X215186Y-245176D01*
X216291Y-244719D01*
X217240Y-243990D01*
X217969Y-243041D01*
X218426Y-241936D01*
X218517Y-241250D01*
D02*
G37*
G36*
X213500D02*
X209483D01*
X209574Y-241936D01*
X210031Y-243041D01*
X210760Y-243990D01*
X211709Y-244719D01*
X212814Y-245176D01*
X213500Y-245267D01*
Y-241250D01*
D02*
G37*
G36*
X193517D02*
X189500D01*
Y-245267D01*
X190186Y-245176D01*
X191291Y-244719D01*
X192240Y-243990D01*
X192969Y-243041D01*
X193426Y-241936D01*
X193517Y-241250D01*
D02*
G37*
G36*
X188500D02*
X184483D01*
X184574Y-241936D01*
X185031Y-243041D01*
X185760Y-243990D01*
X186709Y-244719D01*
X187814Y-245176D01*
X188500Y-245267D01*
Y-241250D01*
D02*
G37*
G36*
X308517Y-241250D02*
X304500D01*
Y-245267D01*
X305186Y-245176D01*
X306291Y-244719D01*
X307240Y-243990D01*
X307969Y-243041D01*
X308426Y-241936D01*
X308517Y-241250D01*
D02*
G37*
G36*
X283517D02*
X279500D01*
Y-245267D01*
X280186Y-245176D01*
X281291Y-244719D01*
X282240Y-243990D01*
X282969Y-243041D01*
X283426Y-241936D01*
X283517Y-241250D01*
D02*
G37*
G36*
X263517D02*
X259500D01*
Y-245267D01*
X260186Y-245176D01*
X261291Y-244719D01*
X262240Y-243990D01*
X262969Y-243041D01*
X263426Y-241936D01*
X263517Y-241250D01*
D02*
G37*
G36*
X238517D02*
X234500D01*
Y-245267D01*
X235186Y-245176D01*
X236291Y-244719D01*
X237240Y-243990D01*
X237969Y-243041D01*
X238426Y-241936D01*
X238517Y-241250D01*
D02*
G37*
G36*
X303500D02*
X299483D01*
X299574Y-241936D01*
X300031Y-243041D01*
X300760Y-243990D01*
X301709Y-244719D01*
X302814Y-245176D01*
X303500Y-245267D01*
Y-241250D01*
D02*
G37*
G36*
X278500D02*
X274483D01*
X274574Y-241936D01*
X275031Y-243041D01*
X275760Y-243990D01*
X276709Y-244719D01*
X277814Y-245176D01*
X278500Y-245267D01*
Y-241250D01*
D02*
G37*
G36*
X258500D02*
X254483D01*
X254574Y-241936D01*
X255031Y-243041D01*
X255760Y-243990D01*
X256709Y-244719D01*
X257814Y-245176D01*
X258500Y-245267D01*
Y-241250D01*
D02*
G37*
G36*
X233500D02*
X229483D01*
X229574Y-241936D01*
X230031Y-243041D01*
X230760Y-243990D01*
X231709Y-244719D01*
X232814Y-245176D01*
X233500Y-245267D01*
Y-241250D01*
D02*
G37*
G36*
X156100Y-245400D02*
X149900D01*
Y-247036D01*
X146600D01*
Y-245400D01*
X140400D01*
Y-251600D01*
X146600D01*
Y-249483D01*
X149900D01*
Y-251600D01*
X156100D01*
Y-249483D01*
X162904D01*
Y-250631D01*
X167844D01*
Y-245888D01*
X162904D01*
Y-247036D01*
X156100D01*
Y-245400D01*
D02*
G37*
G36*
X178100Y-235900D02*
X170900D01*
Y-242100D01*
X173403D01*
Y-249628D01*
X172156D01*
Y-254372D01*
X177096D01*
Y-249628D01*
X175849D01*
Y-242100D01*
X178100D01*
Y-235900D01*
D02*
G37*
G36*
X168244Y-252969D02*
X165874D01*
Y-255240D01*
X168244D01*
Y-252969D01*
D02*
G37*
G36*
X164874D02*
X162504D01*
Y-255240D01*
X164874D01*
Y-252969D01*
D02*
G37*
G36*
X156500Y-254000D02*
X153500D01*
Y-257000D01*
X156500D01*
Y-254000D01*
D02*
G37*
G36*
X152500D02*
X149500D01*
Y-257000D01*
X152500D01*
Y-254000D01*
D02*
G37*
G36*
X168244Y-256240D02*
X165874D01*
Y-258512D01*
X168244D01*
Y-256240D01*
D02*
G37*
G36*
X164874D02*
X162504D01*
Y-258512D01*
X164874D01*
Y-256240D01*
D02*
G37*
G36*
X156500Y-258000D02*
X153500D01*
Y-261000D01*
X156500D01*
Y-258000D01*
D02*
G37*
G36*
X152500D02*
X149500D01*
Y-261000D01*
X152500D01*
Y-258000D01*
D02*
G37*
G36*
X173500Y-267049D02*
X170500D01*
Y-270048D01*
X173500D01*
Y-267049D01*
D02*
G37*
G36*
X169500D02*
X166500D01*
Y-270048D01*
X169500D01*
Y-267049D01*
D02*
G37*
G36*
X152500Y-261961D02*
X151720Y-262116D01*
X151058Y-262558D01*
X150616Y-263220D01*
X150461Y-264000D01*
X150616Y-264780D01*
X151058Y-265442D01*
X151277Y-265588D01*
Y-266349D01*
X148554D01*
Y-271879D01*
X156447D01*
Y-266349D01*
X153724D01*
Y-265588D01*
X153942Y-265442D01*
X154384Y-264780D01*
X154539Y-264000D01*
X154384Y-263220D01*
X153942Y-262558D01*
X153280Y-262116D01*
X152500Y-261961D01*
D02*
G37*
G36*
X173500Y-271048D02*
X170500D01*
Y-274048D01*
X173500D01*
Y-271048D01*
D02*
G37*
G36*
X169500D02*
X166500D01*
Y-274048D01*
X169500D01*
Y-271048D01*
D02*
G37*
G36*
X173100Y-276448D02*
X166900D01*
Y-278325D01*
X164100D01*
Y-276448D01*
X157900D01*
Y-282648D01*
X164100D01*
Y-280772D01*
X166900D01*
Y-282648D01*
X169017D01*
Y-287904D01*
X167868D01*
Y-292844D01*
X172612D01*
Y-287904D01*
X171464D01*
Y-282648D01*
X173100D01*
Y-276448D01*
D02*
G37*
G36*
X214500Y-280233D02*
Y-284250D01*
X218517D01*
X218426Y-283564D01*
X217969Y-282459D01*
X217240Y-281510D01*
X216291Y-280781D01*
X215186Y-280324D01*
X214500Y-280233D01*
D02*
G37*
G36*
X189500D02*
Y-284250D01*
X193517D01*
X193426Y-283564D01*
X192969Y-282459D01*
X192240Y-281510D01*
X191291Y-280781D01*
X190186Y-280324D01*
X189500Y-280233D01*
D02*
G37*
G36*
X213500Y-280233D02*
X212814Y-280324D01*
X211709Y-280781D01*
X210760Y-281510D01*
X210031Y-282459D01*
X209574Y-283564D01*
X209483Y-284250D01*
X213500D01*
Y-280233D01*
D02*
G37*
G36*
X188500D02*
X187814Y-280324D01*
X186709Y-280781D01*
X185760Y-281510D01*
X185031Y-282459D01*
X184574Y-283564D01*
X184483Y-284250D01*
X188500D01*
Y-280233D01*
D02*
G37*
G36*
X304500Y-280733D02*
Y-284750D01*
X308517D01*
X308426Y-284064D01*
X307969Y-282959D01*
X307240Y-282010D01*
X306291Y-281281D01*
X305186Y-280824D01*
X304500Y-280733D01*
D02*
G37*
G36*
X234500D02*
Y-284750D01*
X238517D01*
X238426Y-284064D01*
X237969Y-282959D01*
X237240Y-282010D01*
X236291Y-281281D01*
X235186Y-280824D01*
X234500Y-280733D01*
D02*
G37*
G36*
X279500D02*
Y-284750D01*
X283517D01*
X283426Y-284064D01*
X282969Y-282959D01*
X282240Y-282010D01*
X281291Y-281281D01*
X280186Y-280824D01*
X279500Y-280733D01*
D02*
G37*
G36*
X259500D02*
Y-284750D01*
X263517D01*
X263426Y-284064D01*
X262969Y-282959D01*
X262240Y-282010D01*
X261291Y-281281D01*
X260186Y-280824D01*
X259500Y-280733D01*
D02*
G37*
G36*
X303500Y-280733D02*
X302814Y-280824D01*
X301709Y-281281D01*
X300760Y-282010D01*
X300031Y-282959D01*
X299574Y-284064D01*
X299483Y-284750D01*
X303500D01*
Y-280733D01*
D02*
G37*
G36*
X233500D02*
X232814Y-280824D01*
X231709Y-281281D01*
X230760Y-282010D01*
X230031Y-282959D01*
X229574Y-284064D01*
X229483Y-284750D01*
X233500D01*
Y-280733D01*
D02*
G37*
G36*
X278500D02*
X277814Y-280824D01*
X276709Y-281281D01*
X275760Y-282010D01*
X275031Y-282959D01*
X274574Y-284064D01*
X274483Y-284750D01*
X278500D01*
Y-280733D01*
D02*
G37*
G36*
X258500D02*
X257814Y-280824D01*
X256709Y-281281D01*
X255760Y-282010D01*
X255031Y-282959D01*
X254574Y-284064D01*
X254483Y-284750D01*
X258500D01*
Y-280733D01*
D02*
G37*
G36*
X218517Y-285250D02*
X214500D01*
Y-289267D01*
X215186Y-289176D01*
X216291Y-288719D01*
X217240Y-287990D01*
X217969Y-287041D01*
X218426Y-285936D01*
X218517Y-285250D01*
D02*
G37*
G36*
X193517D02*
X189500D01*
Y-289267D01*
X190186Y-289176D01*
X191291Y-288719D01*
X192240Y-287990D01*
X192969Y-287041D01*
X193426Y-285936D01*
X193517Y-285250D01*
D02*
G37*
G36*
X213500D02*
X209483D01*
X209574Y-285936D01*
X210031Y-287041D01*
X210760Y-287990D01*
X211709Y-288719D01*
X212814Y-289176D01*
X213500Y-289267D01*
Y-285250D01*
D02*
G37*
G36*
X188500D02*
X184483D01*
X184574Y-285936D01*
X185031Y-287041D01*
X185760Y-287990D01*
X186709Y-288719D01*
X187814Y-289176D01*
X188500Y-289267D01*
Y-285250D01*
D02*
G37*
G36*
X308517Y-285750D02*
X304500D01*
Y-289767D01*
X305186Y-289676D01*
X306291Y-289219D01*
X307240Y-288490D01*
X307969Y-287541D01*
X308426Y-286436D01*
X308517Y-285750D01*
D02*
G37*
G36*
X283517D02*
X279500D01*
Y-289767D01*
X280186Y-289676D01*
X281291Y-289219D01*
X282240Y-288490D01*
X282969Y-287541D01*
X283426Y-286436D01*
X283517Y-285750D01*
D02*
G37*
G36*
X263517D02*
X259500D01*
Y-289767D01*
X260186Y-289676D01*
X261291Y-289219D01*
X262240Y-288490D01*
X262969Y-287541D01*
X263426Y-286436D01*
X263517Y-285750D01*
D02*
G37*
G36*
X238517D02*
X234500D01*
Y-289767D01*
X235186Y-289676D01*
X236291Y-289219D01*
X237240Y-288490D01*
X237969Y-287541D01*
X238426Y-286436D01*
X238517Y-285750D01*
D02*
G37*
G36*
X303500D02*
X299483D01*
X299574Y-286436D01*
X300031Y-287541D01*
X300760Y-288490D01*
X301709Y-289219D01*
X302814Y-289676D01*
X303500Y-289767D01*
Y-285750D01*
D02*
G37*
G36*
X278500D02*
X274483D01*
X274574Y-286436D01*
X275031Y-287541D01*
X275760Y-288490D01*
X276709Y-289219D01*
X277814Y-289676D01*
X278500Y-289767D01*
Y-285750D01*
D02*
G37*
G36*
X258500D02*
X254483D01*
X254574Y-286436D01*
X255031Y-287541D01*
X255760Y-288490D01*
X256709Y-289219D01*
X257814Y-289676D01*
X258500Y-289767D01*
Y-285750D01*
D02*
G37*
G36*
X233500D02*
X229483D01*
X229574Y-286436D01*
X230031Y-287541D01*
X230760Y-288490D01*
X231709Y-289219D01*
X232814Y-289676D01*
X233500Y-289767D01*
Y-285750D01*
D02*
G37*
G36*
X165532Y-287504D02*
X163260D01*
Y-289874D01*
X165532D01*
Y-287504D01*
D02*
G37*
G36*
X162260D02*
X159988D01*
Y-289874D01*
X162260D01*
Y-287504D01*
D02*
G37*
G36*
X165532Y-290874D02*
X163260D01*
Y-293244D01*
X165532D01*
Y-290874D01*
D02*
G37*
G36*
X162260D02*
X159988D01*
Y-293244D01*
X162260D01*
Y-290874D01*
D02*
G37*
G36*
X156447Y-279735D02*
X148554D01*
Y-285265D01*
X151277D01*
Y-287900D01*
X149400D01*
Y-294100D01*
X155600D01*
Y-287900D01*
X153724D01*
Y-285265D01*
X156447D01*
Y-279735D01*
D02*
G37*
G36*
X155600Y-296400D02*
X149400D01*
Y-302600D01*
X155600D01*
Y-300724D01*
X164128D01*
Y-302096D01*
X168872D01*
Y-297156D01*
X164128D01*
Y-298276D01*
X155600D01*
Y-296400D01*
D02*
G37*
G36*
X249000Y-127000D02*
X246000D01*
Y-130000D01*
X249000D01*
Y-127000D01*
D02*
G37*
G36*
X245000D02*
X242000D01*
Y-130000D01*
X245000D01*
Y-127000D01*
D02*
G37*
G36*
X249000Y-131000D02*
X246000D01*
Y-134000D01*
X249000D01*
Y-131000D01*
D02*
G37*
G36*
X245000D02*
X242000D01*
Y-134000D01*
X245000D01*
Y-131000D01*
D02*
G37*
G36*
X89500Y-144000D02*
X86500D01*
Y-147000D01*
X89500D01*
Y-144000D01*
D02*
G37*
G36*
Y-148000D02*
X86500D01*
Y-151000D01*
X89500D01*
Y-148000D01*
D02*
G37*
G36*
Y-152500D02*
X86500D01*
Y-155500D01*
X89500D01*
Y-152500D01*
D02*
G37*
G36*
Y-156500D02*
X86500D01*
Y-159500D01*
X89500D01*
Y-156500D01*
D02*
G37*
G36*
Y-161000D02*
X86500D01*
Y-164000D01*
X89500D01*
Y-161000D01*
D02*
G37*
G36*
Y-165000D02*
X86500D01*
Y-168000D01*
X89500D01*
Y-165000D01*
D02*
G37*
G36*
X137000Y-165500D02*
X134000D01*
Y-168500D01*
X137000D01*
Y-165500D01*
D02*
G37*
G36*
X146500D02*
X143500D01*
Y-168500D01*
X146500D01*
Y-165500D01*
D02*
G37*
G36*
X142500D02*
X139500D01*
Y-168500D01*
X142500D01*
Y-165500D01*
D02*
G37*
G36*
X133000D02*
X130000D01*
Y-168500D01*
X133000D01*
Y-165500D01*
D02*
G37*
G36*
X146500Y-169500D02*
X143500D01*
Y-172500D01*
X146500D01*
Y-169500D01*
D02*
G37*
G36*
X142500D02*
X139500D01*
Y-172500D01*
X142500D01*
Y-169500D01*
D02*
G37*
G36*
X137000D02*
X134000D01*
Y-172500D01*
X137000D01*
Y-169500D01*
D02*
G37*
G36*
X133000D02*
X130000D01*
Y-172500D01*
X133000D01*
Y-169500D01*
D02*
G37*
G36*
X22500Y-182500D02*
X19500D01*
Y-185500D01*
X22500D01*
Y-182500D01*
D02*
G37*
G36*
X18500D02*
X15500D01*
Y-185500D01*
X18500D01*
Y-182500D01*
D02*
G37*
G36*
X22500Y-186500D02*
X19500D01*
Y-189500D01*
X22500D01*
Y-186500D01*
D02*
G37*
G36*
X18500D02*
X15500D01*
Y-189500D01*
X18500D01*
Y-186500D01*
D02*
G37*
G36*
X22500Y-191000D02*
X19500D01*
Y-194000D01*
X22500D01*
Y-191000D01*
D02*
G37*
G36*
X18500D02*
X15500D01*
Y-194000D01*
X18500D01*
Y-191000D01*
D02*
G37*
G36*
X22500Y-195000D02*
X19500D01*
Y-198000D01*
X22500D01*
Y-195000D01*
D02*
G37*
G36*
X18500D02*
X15500D01*
Y-198000D01*
X18500D01*
Y-195000D01*
D02*
G37*
G36*
X66500Y-197500D02*
X63500D01*
Y-200500D01*
X66500D01*
Y-197500D01*
D02*
G37*
G36*
X62500D02*
X59500D01*
Y-200500D01*
X62500D01*
Y-197500D01*
D02*
G37*
G36*
X58000D02*
X55000D01*
Y-200500D01*
X58000D01*
Y-197500D01*
D02*
G37*
G36*
X54000D02*
X51000D01*
Y-200500D01*
X54000D01*
Y-197500D01*
D02*
G37*
G36*
X66100Y-202900D02*
X59900D01*
Y-203859D01*
X57600D01*
Y-202900D01*
X51400D01*
Y-209100D01*
X52359D01*
Y-212400D01*
X51400D01*
Y-218600D01*
X52359D01*
Y-221400D01*
X51400D01*
Y-222359D01*
X48500D01*
X47681Y-222522D01*
X46986Y-222986D01*
X43113Y-226859D01*
X39765D01*
Y-224168D01*
X34235D01*
Y-233832D01*
X39765D01*
Y-231141D01*
X44000D01*
X44819Y-230978D01*
X45514Y-230514D01*
X49387Y-226641D01*
X51400D01*
Y-227600D01*
X57600D01*
Y-221400D01*
X56641D01*
Y-218600D01*
X57600D01*
Y-212400D01*
X56641D01*
Y-209100D01*
X57600D01*
Y-208141D01*
X59900D01*
Y-209100D01*
X66100D01*
Y-208141D01*
X72113D01*
X73859Y-209887D01*
Y-216900D01*
X72400D01*
Y-232100D01*
X79600D01*
Y-216900D01*
X78141D01*
Y-209000D01*
X77978Y-208181D01*
X77514Y-207486D01*
X74514Y-204486D01*
X73819Y-204022D01*
X73000Y-203859D01*
X66100D01*
Y-202900D01*
D02*
G37*
G36*
X22165Y-223768D02*
X19500D01*
Y-228500D01*
X22165D01*
Y-223768D01*
D02*
G37*
G36*
X18500D02*
X15835D01*
Y-228500D01*
X18500D01*
Y-223768D01*
D02*
G37*
G36*
X120953Y-227067D02*
X117500D01*
Y-230716D01*
X120953D01*
Y-227067D01*
D02*
G37*
G36*
X116500D02*
X113047D01*
Y-230716D01*
X116500D01*
Y-227067D01*
D02*
G37*
G36*
X58000Y-230000D02*
X55000D01*
Y-233000D01*
X58000D01*
Y-230000D01*
D02*
G37*
G36*
X54000D02*
X51000D01*
Y-233000D01*
X54000D01*
Y-230000D01*
D02*
G37*
G36*
X22165Y-229500D02*
X19500D01*
Y-234232D01*
X22165D01*
Y-229500D01*
D02*
G37*
G36*
X18500D02*
X15835D01*
Y-234232D01*
X18500D01*
Y-229500D01*
D02*
G37*
G36*
X58000Y-234000D02*
X55000D01*
Y-237000D01*
X58000D01*
Y-234000D01*
D02*
G37*
G36*
X54000D02*
X51000D01*
Y-237000D01*
X54000D01*
Y-234000D01*
D02*
G37*
G36*
X119874Y-244471D02*
Y-247500D01*
X122903D01*
X122727Y-246611D01*
X121940Y-245434D01*
X120763Y-244647D01*
X119874Y-244471D01*
D02*
G37*
G36*
X118874D02*
X117985Y-244647D01*
X116808Y-245434D01*
X116021Y-246611D01*
X115845Y-247500D01*
X118874D01*
Y-244471D01*
D02*
G37*
G36*
X122903Y-248500D02*
X119874D01*
Y-251529D01*
X120763Y-251353D01*
X121940Y-250566D01*
X122727Y-249389D01*
X122903Y-248500D01*
D02*
G37*
G36*
X118874D02*
X115845D01*
X116021Y-249389D01*
X116808Y-250566D01*
X117985Y-251353D01*
X118874Y-251529D01*
Y-248500D01*
D02*
G37*
G36*
X56500Y-247566D02*
Y-252000D01*
X60934D01*
X60650Y-250574D01*
X59559Y-248941D01*
X57926Y-247849D01*
X56500Y-247566D01*
D02*
G37*
G36*
X55500D02*
X54074Y-247849D01*
X52441Y-248941D01*
X51350Y-250574D01*
X51066Y-252000D01*
X55500D01*
Y-247566D01*
D02*
G37*
G36*
X84000Y-245365D02*
X83298Y-245504D01*
X82702Y-245902D01*
X82304Y-246498D01*
X82165Y-247200D01*
Y-252800D01*
X82304Y-253502D01*
X82702Y-254098D01*
X83298Y-254496D01*
X84000Y-254635D01*
X84702Y-254496D01*
X85298Y-254098D01*
X85696Y-253502D01*
X85835Y-252800D01*
Y-247200D01*
X85696Y-246498D01*
X85298Y-245902D01*
X84702Y-245504D01*
X84000Y-245365D01*
D02*
G37*
G36*
X60934Y-253000D02*
X56500D01*
Y-257434D01*
X57926Y-257151D01*
X59559Y-256059D01*
X60650Y-254426D01*
X60934Y-253000D01*
D02*
G37*
G36*
X55500D02*
X51066D01*
X51350Y-254426D01*
X52441Y-256059D01*
X54074Y-257151D01*
X55500Y-257434D01*
Y-253000D01*
D02*
G37*
G36*
X119874Y-266971D02*
Y-270000D01*
X122903D01*
X122727Y-269111D01*
X121940Y-267934D01*
X120763Y-267147D01*
X119874Y-266971D01*
D02*
G37*
G36*
X118874D02*
X117985Y-267147D01*
X116808Y-267934D01*
X116021Y-269111D01*
X115845Y-270000D01*
X118874D01*
Y-266971D01*
D02*
G37*
G36*
X99500Y-267056D02*
Y-271500D01*
X101243D01*
Y-269200D01*
X101072Y-268342D01*
X100586Y-267614D01*
X99858Y-267128D01*
X99500Y-267056D01*
D02*
G37*
G36*
X83500D02*
X83142Y-267128D01*
X82414Y-267614D01*
X81928Y-268342D01*
X81757Y-269200D01*
Y-271500D01*
X83500D01*
Y-267056D01*
D02*
G37*
G36*
X122903Y-271000D02*
X119874D01*
Y-274029D01*
X120763Y-273853D01*
X121940Y-273066D01*
X122727Y-271889D01*
X122903Y-271000D01*
D02*
G37*
G36*
X118874D02*
X115845D01*
X116021Y-271889D01*
X116808Y-273066D01*
X117985Y-273853D01*
X118874Y-274029D01*
Y-271000D01*
D02*
G37*
G36*
X101243Y-272500D02*
X99500D01*
Y-276944D01*
X99858Y-276872D01*
X100586Y-276386D01*
X101072Y-275658D01*
X101243Y-274800D01*
Y-272500D01*
D02*
G37*
G36*
X89500Y-267056D02*
Y-272000D01*
Y-276944D01*
X89858Y-276872D01*
X90586Y-276386D01*
X90946Y-275848D01*
X91410Y-275758D01*
X91590D01*
X92054Y-275848D01*
X92414Y-276386D01*
X93142Y-276872D01*
X93500Y-276944D01*
Y-272000D01*
Y-267056D01*
X93142Y-267128D01*
X92414Y-267614D01*
X92054Y-268152D01*
X91590Y-268242D01*
X91410D01*
X90946Y-268152D01*
X90586Y-267614D01*
X89858Y-267128D01*
X89500Y-267056D01*
D02*
G37*
G36*
X94500D02*
Y-272000D01*
Y-276944D01*
X94858Y-276872D01*
X95586Y-276386D01*
X95946Y-275848D01*
X96410Y-275758D01*
X96590D01*
X97054Y-275848D01*
X97414Y-276386D01*
X98142Y-276872D01*
X98500Y-276944D01*
Y-272000D01*
X99000D01*
D01*
X98500D01*
Y-267056D01*
X98142Y-267128D01*
X97414Y-267614D01*
X97054Y-268152D01*
X96590Y-268242D01*
X96410D01*
X95946Y-268152D01*
X95586Y-267614D01*
X94858Y-267128D01*
X94500Y-267056D01*
D02*
G37*
G36*
X84500D02*
Y-272000D01*
X84000D01*
D01*
X84500D01*
Y-276944D01*
X84858Y-276872D01*
X85586Y-276386D01*
X85946Y-275848D01*
X86410Y-275758D01*
X86590D01*
X87054Y-275848D01*
X87414Y-276386D01*
X88142Y-276872D01*
X88500Y-276944D01*
Y-272000D01*
Y-267056D01*
X88142Y-267128D01*
X87414Y-267614D01*
X87054Y-268152D01*
X86590Y-268242D01*
X86410D01*
X85946Y-268152D01*
X85586Y-267614D01*
X84858Y-267128D01*
X84500Y-267056D01*
D02*
G37*
G36*
X83500Y-272500D02*
X81757D01*
Y-274800D01*
X81928Y-275658D01*
X82414Y-276386D01*
X83142Y-276872D01*
X83500Y-276944D01*
Y-272500D01*
D02*
G37*
G36*
X56000Y-267874D02*
X54230Y-268226D01*
X52729Y-269229D01*
X51726Y-270730D01*
X51374Y-272500D01*
X51726Y-274270D01*
X52729Y-275771D01*
X54230Y-276774D01*
X56000Y-277126D01*
X57770Y-276774D01*
X59271Y-275771D01*
X60274Y-274270D01*
X60626Y-272500D01*
X60274Y-270730D01*
X59271Y-269229D01*
X57770Y-268226D01*
X56000Y-267874D01*
D02*
G37*
G36*
X123876Y-283500D02*
X120876D01*
Y-286500D01*
X123876D01*
Y-283500D01*
D02*
G37*
G36*
X119876D02*
X116876D01*
Y-286500D01*
X119876D01*
Y-283500D01*
D02*
G37*
G36*
X123876Y-287500D02*
X120876D01*
Y-290500D01*
X123876D01*
Y-287500D01*
D02*
G37*
G36*
X119876D02*
X116876D01*
Y-290500D01*
X119876D01*
Y-287500D01*
D02*
G37*
G36*
X102000Y-284961D02*
X101220Y-285116D01*
X100558Y-285558D01*
X100462Y-285701D01*
X94500D01*
X93582Y-286082D01*
X92082Y-287582D01*
X91701Y-288500D01*
Y-290400D01*
X89900D01*
Y-296600D01*
X96100D01*
Y-290400D01*
X94299D01*
Y-289038D01*
X95038Y-288299D01*
X100462D01*
X100558Y-288442D01*
X100701Y-288538D01*
Y-292648D01*
X99530D01*
Y-297391D01*
X104470D01*
Y-292648D01*
X103299D01*
Y-288538D01*
X103442Y-288442D01*
X103884Y-287780D01*
X104039Y-287000D01*
X103884Y-286220D01*
X103442Y-285558D01*
X102780Y-285116D01*
X102000Y-284961D01*
D02*
G37*
G36*
X96100Y-299400D02*
X89900D01*
Y-305600D01*
X96100D01*
Y-303799D01*
X99530D01*
Y-304872D01*
X100701D01*
Y-308872D01*
X96872D01*
Y-319128D01*
X107128D01*
Y-308872D01*
X103299D01*
Y-304872D01*
X104470D01*
Y-300128D01*
X99530D01*
Y-301201D01*
X96100D01*
Y-299400D01*
D02*
G37*
G36*
X120953Y-209350D02*
X117500D01*
Y-213000D01*
X120953D01*
Y-209350D01*
D02*
G37*
G36*
X116500D02*
X113047D01*
Y-213000D01*
X116500D01*
Y-209350D01*
D02*
G37*
G36*
X120953Y-214000D02*
X117500D01*
Y-217650D01*
X120953D01*
Y-214000D01*
D02*
G37*
G36*
X116500D02*
X113047D01*
Y-217650D01*
X116500D01*
Y-214000D01*
D02*
G37*
G36*
X105000Y-216500D02*
X101500D01*
Y-224000D01*
X105000D01*
Y-216500D01*
D02*
G37*
G36*
X100500D02*
X97000D01*
Y-224000D01*
X100500D01*
Y-216500D01*
D02*
G37*
G36*
X105000Y-225000D02*
X101500D01*
Y-232500D01*
X105000D01*
Y-225000D01*
D02*
G37*
G36*
X100500D02*
X97000D01*
Y-232500D01*
X100500D01*
Y-225000D01*
D02*
G37*
%LPD*%
D11*
X152000Y-161020D02*
X166599Y-146421D01*
X143000Y-178000D02*
X151000D01*
X152000Y-177000D02*
Y-161020D01*
X151000Y-178000D02*
X152000Y-177000D01*
X153400Y-161600D02*
X166610Y-148390D01*
X107000Y-183400D02*
X152000D01*
X153400Y-182000D02*
Y-161600D01*
X152000Y-183400D02*
X153400Y-182000D01*
X102100Y-181580D02*
X105320Y-184800D01*
X104740Y-186200D02*
X154000D01*
X100700Y-182160D02*
X104740Y-186200D01*
X45100Y-187600D02*
X155480D01*
X42500Y-189000D02*
X156060D01*
X155480Y-187600D02*
X157600Y-185480D01*
X156060Y-189000D02*
X159000Y-186060D01*
X100700Y-182160D02*
Y-144000D01*
X154000Y-186200D02*
X156200Y-184000D01*
X102100Y-181580D02*
Y-133500D01*
X33000Y-175500D02*
X45100Y-187600D01*
X31000Y-177500D02*
X42500Y-189000D01*
X103500Y-179900D02*
Y-111500D01*
Y-179900D02*
X107000Y-183400D01*
X154800Y-162180D02*
X166622Y-150358D01*
X105320Y-184800D02*
X153420D01*
X154800Y-183420D01*
Y-162180D01*
X156200Y-184000D02*
Y-162760D01*
X157600Y-185480D02*
Y-173420D01*
X159000Y-186060D02*
Y-174000D01*
X162000Y-171000D01*
X156200Y-162760D02*
X166633Y-152327D01*
X157600Y-173420D02*
X162020Y-169000D01*
X183500D01*
X162000Y-171000D02*
X185142D01*
X74000Y-140500D02*
X97200D01*
X100700Y-144000D01*
X97000Y-132500D02*
Y-123000D01*
Y-132500D02*
X101100D01*
X102100Y-133500D01*
X166633Y-152327D02*
X181154D01*
X186173Y-166327D02*
Y-157346D01*
X183500Y-169000D02*
X186173Y-166327D01*
X188142Y-168000D02*
Y-157346D01*
X185142Y-171000D02*
X188142Y-168000D01*
X135500Y-200000D02*
X188000D01*
X190110Y-197890D02*
Y-157346D01*
X188000Y-200000D02*
X190110Y-197890D01*
X137500Y-202000D02*
X190500D01*
X192079Y-200421D02*
Y-157346D01*
X190500Y-202000D02*
X192079Y-200421D01*
X139000Y-204000D02*
X191500D01*
X194047Y-201453D01*
Y-157346D01*
X146250Y-206500D02*
X194000D01*
X196016Y-204484D01*
Y-157346D01*
X197984Y-209016D02*
Y-157346D01*
X196000Y-211000D02*
X197984Y-209016D01*
X183500Y-211000D02*
X196000D01*
X199953Y-212453D02*
Y-157346D01*
Y-212453D02*
X201000Y-213500D01*
X204000Y-212000D02*
X218480D01*
X201921Y-209921D02*
Y-157346D01*
Y-209921D02*
X204000Y-212000D01*
X203890Y-208390D02*
Y-157346D01*
Y-208390D02*
X206000Y-210500D01*
X201000Y-213500D02*
X218000D01*
X226500D02*
X264500D01*
X222600Y-209600D02*
Y-155600D01*
Y-209600D02*
X226500Y-213500D01*
X212846Y-152327D02*
X219327D01*
X222600Y-155600D01*
X224000Y-208000D02*
Y-152500D01*
X212846Y-150358D02*
X221858D01*
X224000Y-152500D01*
X19000Y-177500D02*
X31000D01*
X13000Y-171500D02*
Y-113000D01*
Y-171500D02*
X19000Y-177500D01*
X13000Y-113000D02*
X15000Y-111000D01*
X166599Y-146421D02*
X181154D01*
X209500Y-180500D02*
X216500D01*
X207827Y-172827D02*
Y-157346D01*
X209500Y-180500D02*
Y-174500D01*
X207827Y-172827D02*
X209500Y-174500D01*
X133500Y-178000D02*
X138000D01*
X143000D01*
X27500Y-175500D02*
X33000D01*
X15000Y-111000D02*
X20000D01*
X184000Y-100500D02*
X186000Y-102500D01*
X180600Y-93080D02*
X190110Y-102590D01*
X182000Y-92500D02*
X192079Y-102579D01*
Y-125654D02*
Y-102579D01*
X190110Y-125654D02*
Y-102590D01*
X182000Y-92500D02*
Y-66500D01*
X180600Y-93080D02*
Y-66600D01*
X186000Y-107500D02*
Y-102500D01*
X144500Y-61500D02*
X175500D01*
X125500Y-42500D02*
Y-31000D01*
Y-42500D02*
X144500Y-61500D01*
X236500Y-130500D02*
Y-123500D01*
X212846Y-138547D02*
X212870Y-138524D01*
X226476D01*
X226500Y-138500D01*
X238000Y-142500D02*
X260500D01*
X212846Y-134610D02*
X230110D01*
X238000Y-142500D01*
X248439Y-95000D02*
Y-87439D01*
X218700Y-99800D02*
X221600Y-96900D01*
X246539D01*
X248439Y-95000D01*
X218700Y-110280D02*
Y-99800D01*
X205500Y-117100D02*
X211880D01*
X218700Y-110280D01*
X203890Y-125654D02*
Y-118710D01*
X205500Y-117100D01*
X238439Y-93500D02*
Y-87439D01*
X220000Y-95500D02*
X236439D01*
X238439Y-93500D01*
X217300Y-98200D02*
X220000Y-95500D01*
X215500Y-111500D02*
Y-111460D01*
X217300Y-109660D01*
Y-98200D01*
X203500Y-115700D02*
X211300D01*
X215500Y-111500D01*
X210100Y-112900D02*
X214500Y-108500D01*
X199000Y-112900D02*
X210100D01*
X197984Y-113916D02*
X199000Y-112900D01*
X209000Y-111500D02*
X212500Y-108000D01*
X197000Y-111500D02*
X209000D01*
X204500Y-109500D02*
X206000Y-108000D01*
X195500Y-109500D02*
X204500D01*
X201921Y-125654D02*
Y-117279D01*
X203500Y-115700D01*
X228439Y-91500D02*
Y-87439D01*
X219000Y-93500D02*
X226439D01*
X228439Y-91500D01*
X215900Y-96600D02*
X219000Y-93500D01*
X215900Y-109080D02*
Y-96600D01*
X210680Y-114300D02*
X215900Y-109080D01*
X201000Y-114300D02*
X210680D01*
X196016Y-112484D02*
X197000Y-111500D01*
X199953Y-125654D02*
Y-115347D01*
X201000Y-114300D01*
X208878Y-87878D02*
X212500Y-91500D01*
Y-108000D02*
Y-91500D01*
X214500Y-108500D02*
Y-91378D01*
X218439Y-87439D01*
X197984Y-125654D02*
Y-113916D01*
X208000Y-87878D02*
X208878D01*
X196016Y-125654D02*
Y-112484D01*
X206000Y-108000D02*
Y-104000D01*
X194047Y-125654D02*
Y-110953D01*
X195500Y-109500D01*
X175500Y-61500D02*
X180600Y-66600D01*
X187000Y-61500D02*
X217500D01*
X182000Y-66500D02*
X187000Y-61500D01*
X186173Y-125654D02*
Y-107673D01*
X186000Y-107500D02*
X186173Y-107673D01*
X260500Y-142500D02*
X292500D01*
X260500Y-148000D02*
Y-142500D01*
Y-140500D02*
X293000D01*
X254500D02*
X260500D01*
Y-135000D01*
X209000Y-119000D02*
X249500D01*
X251500Y-137500D02*
Y-121000D01*
X249500Y-119000D02*
X251500Y-121000D01*
Y-137500D02*
X254500Y-140500D01*
X207827Y-125654D02*
Y-120173D01*
X209000Y-119000D01*
X250000Y-169500D02*
X286000D01*
X222984Y-142484D02*
X250000Y-169500D01*
X212846Y-142484D02*
X222984D01*
X212846Y-140516D02*
X223516D01*
X242500Y-159500D02*
X286000D01*
X223516Y-140516D02*
X242500Y-159500D01*
X135100Y-267100D02*
X137114Y-269114D01*
X133000Y-232000D02*
X135100Y-234100D01*
Y-267100D02*
Y-234100D01*
X133000Y-232000D02*
Y-202500D01*
X135500Y-200000D01*
X138500Y-257500D02*
X143500D01*
X136500Y-255500D02*
X138500Y-257500D01*
X136500Y-255500D02*
Y-231500D01*
X135000Y-230000D02*
Y-204500D01*
Y-230000D02*
X136500Y-231500D01*
X135000Y-204500D02*
X137500Y-202000D01*
X138950Y-227000D02*
X143500D01*
X137000Y-225050D02*
Y-206000D01*
Y-225050D02*
X138950Y-227000D01*
X137000Y-206000D02*
X139000Y-204000D01*
X143500Y-215000D02*
Y-209250D01*
X146250Y-206500D01*
X180400Y-258600D02*
Y-214100D01*
X183500Y-211000D01*
X206000Y-210500D02*
X218960D01*
X228100Y-212100D02*
X265080D01*
X224000Y-208000D02*
X228100Y-212100D01*
X177000Y-262000D02*
X180400Y-258600D01*
X162000Y-262000D02*
X177000D01*
X161000Y-263000D02*
X162000Y-262000D01*
X161000Y-270549D02*
Y-263000D01*
X223400Y-221400D02*
Y-214940D01*
X218960Y-210500D02*
X223400Y-214940D01*
X218480Y-212000D02*
X222000Y-215520D01*
Y-262500D02*
X227250Y-267750D01*
X222000Y-262500D02*
Y-215520D01*
X227250Y-267750D02*
X234000D01*
X220500Y-265500D02*
Y-216000D01*
X218000Y-213500D02*
X220500Y-216000D01*
X137114Y-269114D02*
X143500D01*
X166622Y-150358D02*
X181154D01*
X166610Y-148390D02*
X181154D01*
X212846Y-130673D02*
X236327D01*
X236500Y-130500D01*
X124500Y-169000D02*
Y-163500D01*
Y-178000D02*
Y-169000D01*
X167016Y-142484D02*
X181154D01*
X147500Y-162000D02*
X167016Y-142484D01*
X126000Y-162000D02*
X147500D01*
X124500Y-163500D02*
X126000Y-162000D01*
X143500Y-145500D02*
X160000D01*
X132500D02*
X143500D01*
X127000Y-151000D02*
X132500Y-145500D01*
X131213Y-136000D02*
X143000D01*
X127000Y-131787D02*
X131213Y-136000D01*
X164984Y-140516D02*
X181154D01*
X160000Y-145500D02*
X164984Y-140516D01*
X153000Y-136000D02*
X163500D01*
X143000D02*
X153000D01*
X166047Y-138547D02*
X181154D01*
X163500Y-136000D02*
X166047Y-138547D01*
X165000Y-121100D02*
Y-109000D01*
X160000Y-104000D02*
Y-98000D01*
Y-104000D02*
X165000Y-109000D01*
X156500Y-94500D02*
X160000Y-98000D01*
X152000Y-94500D02*
X156500D01*
X163500Y-126500D02*
Y-111500D01*
X154500Y-106400D02*
X158400D01*
X163500Y-111500D01*
X162100Y-128500D02*
Y-116000D01*
X154500Y-112000D02*
X158100D01*
X162100Y-116000D01*
X170179Y-136579D02*
X181154D01*
X162100Y-128500D02*
X170179Y-136579D01*
X171610Y-134610D02*
X181154D01*
X163500Y-126500D02*
X171610Y-134610D01*
X165000Y-121100D02*
X174573Y-130673D01*
X164900Y-121000D02*
X165000Y-121100D01*
X174573Y-130673D02*
X181154D01*
X144500Y-113500D02*
X151634D01*
X153134Y-112000D01*
X154500D01*
X144500Y-104000D02*
X151600D01*
X154000Y-106400D01*
X154500D01*
X296000Y-157000D02*
X298500Y-159500D01*
X296000Y-157000D02*
Y-143500D01*
X293000Y-140500D02*
X296000Y-143500D01*
X298500Y-159500D02*
X303000D01*
X296000Y-169500D02*
X303000D01*
X294500Y-168000D02*
Y-144500D01*
X292500Y-142500D02*
X294500Y-144500D01*
Y-168000D02*
X296000Y-169500D01*
X279000Y-223250D02*
X304000D01*
X270650D02*
X279000D01*
X269400Y-222000D02*
Y-216420D01*
X265080Y-212100D02*
X269400Y-216420D01*
Y-222000D02*
X270650Y-223250D01*
X279000Y-267750D02*
X304000D01*
X270250D02*
X279000D01*
X268000Y-265500D02*
Y-217000D01*
X264500Y-213500D02*
X268000Y-217000D01*
Y-265500D02*
X270250Y-267750D01*
X234000Y-223250D02*
X259000D01*
X225250D02*
X234000D01*
X223400Y-221400D02*
X225250Y-223250D01*
X234000Y-267750D02*
X259000D01*
X214000Y-267250D02*
X218750D01*
X220500Y-265500D01*
X189000Y-267250D02*
X214000D01*
X25500Y-173500D02*
X27500Y-175500D01*
X25500Y-173500D02*
Y-166500D01*
Y-156500D01*
X20000Y-111000D02*
X29000D01*
D13*
X205858Y-157346D02*
Y-147642D01*
X206000Y-147500D01*
X202142Y-132642D02*
X212846D01*
X188142Y-133500D02*
Y-125654D01*
X190500Y-134500D02*
X191500D01*
X181154Y-144453D02*
X191953D01*
X192000Y-144500D01*
D14*
X152500Y-269114D02*
Y-264000D01*
X118500Y-178000D02*
X124500D01*
X144500Y-305500D02*
X177500D01*
X182000Y-301000D01*
Y-230250D02*
X189000Y-223250D01*
X182000Y-301000D02*
Y-230250D01*
X304000Y-83000D02*
X319500D01*
X102000Y-295020D02*
X102000Y-295020D01*
X102000Y-295020D02*
Y-287000D01*
X93000Y-288500D02*
X94500Y-287000D01*
X102000D01*
X93000Y-293500D02*
Y-288500D01*
Y-302500D02*
X102000D01*
Y-314000D02*
Y-302500D01*
X63500Y-239000D02*
Y-233500D01*
X89000Y-250000D02*
Y-243500D01*
X87000Y-241500D02*
X89000Y-243500D01*
X66000Y-241500D02*
X87000D01*
X63500Y-239000D02*
X66000Y-241500D01*
X143500Y-239000D02*
Y-233500D01*
X140500Y-94500D02*
X152000D01*
X130248Y-85248D02*
X136760D01*
X130000Y-85000D02*
X130248Y-85248D01*
X166408Y-25750D02*
X166657Y-26000D01*
X152376Y-25750D02*
X166408D01*
X152126Y-25500D02*
X152376Y-25750D01*
X125740Y-21760D02*
X142874D01*
X125500Y-22000D02*
X125740Y-21760D01*
X292500Y-59000D02*
X299500D01*
X289740Y-61760D02*
X292500Y-59000D01*
X289740Y-83748D02*
Y-61760D01*
Y-83748D02*
X295748D01*
X297500Y-85500D01*
Y-90500D02*
Y-85500D01*
X299000Y-92000D02*
X304000D01*
X297500Y-90500D02*
X299000Y-92000D01*
X304000Y-101500D02*
Y-92000D01*
Y-126000D02*
Y-110500D01*
X295000Y-115000D02*
Y-110500D01*
X293000Y-117000D02*
X295000Y-115000D01*
X284000Y-119500D02*
X286500Y-117000D01*
X293000D01*
X284000Y-126000D02*
Y-119500D01*
X286000Y-101500D02*
Y-93000D01*
Y-110500D02*
Y-101500D01*
X244500Y-61500D02*
X256500D01*
X228000Y-35000D02*
X233500Y-40500D01*
Y-56000D02*
Y-40500D01*
X228000Y-35000D02*
Y-24500D01*
X226000Y-22500D02*
X228000Y-24500D01*
X220500Y-22500D02*
X226000D01*
X233500Y-56000D02*
X235000Y-57500D01*
Y-61000D02*
X235500Y-61500D01*
X235000Y-61000D02*
Y-57500D01*
X211500Y-27500D02*
X220500D01*
X209500Y-44500D02*
Y-29500D01*
X211500Y-27500D01*
X208000Y-44500D02*
X217500D01*
X199000D02*
X208000D01*
X226500Y-53000D02*
Y-44500D01*
Y-61500D02*
Y-53000D01*
X186000Y-26342D02*
X186343Y-26000D01*
X186000Y-47500D02*
Y-26342D01*
X176500Y-51500D02*
X182000D01*
X186000Y-47500D01*
X189000Y-223250D02*
X214000D01*
X143500Y-304500D02*
Y-299500D01*
Y-304500D02*
X144500Y-305500D01*
X161000Y-279549D02*
X170000D01*
X170240Y-290374D02*
Y-279789D01*
X170000Y-279549D02*
X170240Y-279789D01*
X152500Y-299500D02*
X166374D01*
X166500Y-299626D01*
X152500Y-291000D02*
Y-282500D01*
X143500Y-291000D02*
Y-282500D01*
Y-299500D02*
Y-291000D01*
X174626Y-252000D02*
Y-239126D01*
X174500Y-239000D02*
X174626Y-239126D01*
X143740Y-248260D02*
X165374D01*
X143500Y-248500D02*
X143740Y-248260D01*
X152500Y-239000D02*
X162500D01*
X152500Y-227000D02*
X162500D01*
X152500Y-215000D02*
X162500D01*
X63500Y-224500D02*
Y-215500D01*
Y-233500D02*
Y-224500D01*
D19*
X33263Y-192500D02*
X92500D01*
X28000Y-190000D02*
X28100Y-190100D01*
X30863D02*
X33263Y-192500D01*
X28100Y-190100D02*
X30863D01*
X8000Y-178500D02*
Y-107500D01*
Y-178500D02*
X11500Y-182000D01*
X8000Y-107500D02*
X13500Y-102000D01*
X20000D01*
X34500Y-166500D02*
X41500D01*
X17000D02*
Y-143000D01*
X20000Y-140000D02*
Y-131000D01*
X17000Y-143000D02*
X20000Y-140000D01*
Y-131000D02*
Y-123000D01*
X86000Y-173000D02*
X92500D01*
X86000Y-179500D02*
Y-173000D01*
X68800Y-181500D02*
X84000D01*
X86000Y-179500D01*
X121500Y-78000D02*
Y-57500D01*
Y-114500D02*
Y-78000D01*
X159000Y-51000D02*
X159500Y-51500D01*
X167500D01*
X121500Y-57500D02*
X127500Y-51500D01*
X110500Y-125500D02*
X121500Y-114500D01*
X110500Y-170500D02*
Y-125500D01*
X312311Y-19185D02*
G03*
X312311Y-19185I-6496J0D01*
G01*
X313811Y-306815D02*
G03*
X313811Y-306815I-6496J0D01*
G01*
X26681Y-308315D02*
G03*
X26681Y-308315I-6496J0D01*
G01*
X26181Y-19685D02*
G03*
X26181Y-19685I-6496J0D01*
G01*
D20*
X56000Y-292500D02*
X56500Y-293000D01*
Y-308500D02*
Y-293000D01*
X62000Y-314000D02*
X84284D01*
X56500Y-308500D02*
X62000Y-314000D01*
X326500Y16D02*
X326500Y-328000D01*
X500Y16D02*
X326500D01*
X0Y-328000D02*
X326500D01*
X0D02*
Y516D01*
D21*
X152500Y-215000D02*
D03*
X143500D02*
D03*
X152500Y-227000D02*
D03*
X143500D02*
D03*
Y-239000D02*
D03*
X152500D02*
D03*
Y-291000D02*
D03*
X143500D02*
D03*
Y-299500D02*
D03*
X152500D02*
D03*
X286000Y-110500D02*
D03*
X295000D02*
D03*
X286000Y-101500D02*
D03*
X295000D02*
D03*
X269500Y-135000D02*
D03*
X260500D02*
D03*
X269500Y-148000D02*
D03*
X260500D02*
D03*
X186000Y-107500D02*
D03*
X177000D02*
D03*
X206000Y-104000D02*
D03*
X197000D02*
D03*
X265500Y-61500D02*
D03*
X256500D02*
D03*
X244500D02*
D03*
X235500D02*
D03*
X226500Y-53000D02*
D03*
X217500D02*
D03*
Y-61500D02*
D03*
X226500D02*
D03*
X167500Y-51500D02*
D03*
X176500D02*
D03*
X135500Y-104000D02*
D03*
X144500D02*
D03*
X135500Y-113500D02*
D03*
X144500D02*
D03*
X124500Y-169000D02*
D03*
X133500D02*
D03*
X124500Y-178000D02*
D03*
X133500D02*
D03*
X111376Y-287000D02*
D03*
X120376D02*
D03*
X63500Y-233500D02*
D03*
X54500D02*
D03*
Y-224500D02*
D03*
X63500D02*
D03*
X54500Y-215500D02*
D03*
X63500D02*
D03*
X28000Y-194500D02*
D03*
X19000D02*
D03*
X28000Y-186000D02*
D03*
X19000D02*
D03*
X77000Y-147500D02*
D03*
X86000D02*
D03*
X77000Y-156000D02*
D03*
X86000D02*
D03*
X77000Y-164500D02*
D03*
X86000D02*
D03*
X77000Y-173000D02*
D03*
X86000D02*
D03*
X52500Y-174000D02*
D03*
X61500D02*
D03*
Y-165000D02*
D03*
X52500D02*
D03*
Y-156000D02*
D03*
X61500D02*
D03*
X52500Y-147500D02*
D03*
X61500D02*
D03*
X34500Y-156500D02*
D03*
X43500D02*
D03*
X34500Y-147500D02*
D03*
X43500D02*
D03*
X25500Y-166500D02*
D03*
X34500D02*
D03*
X20000Y-131000D02*
D03*
X29000D02*
D03*
X20000Y-123000D02*
D03*
X29000D02*
D03*
X97000D02*
D03*
X88000D02*
D03*
X97000Y-132500D02*
D03*
X88000D02*
D03*
X112400Y-102500D02*
D03*
X103400D02*
D03*
X103500Y-111500D02*
D03*
X112500D02*
D03*
X68000Y-58500D02*
D03*
X77000D02*
D03*
X78000Y-88000D02*
D03*
X69000D02*
D03*
X28500Y-58500D02*
D03*
X37500D02*
D03*
X46500D02*
D03*
X55500D02*
D03*
Y-67000D02*
D03*
X46500D02*
D03*
X37500D02*
D03*
X28500D02*
D03*
X236500Y-130500D02*
D03*
X245500D02*
D03*
X226500Y-44500D02*
D03*
X217500D02*
D03*
D22*
X153000Y-248500D02*
D03*
Y-257500D02*
D03*
X143500Y-248500D02*
D03*
Y-257500D02*
D03*
X161000Y-279549D02*
D03*
Y-270549D02*
D03*
X170000D02*
D03*
Y-279549D02*
D03*
X304000Y-101500D02*
D03*
Y-110500D02*
D03*
Y-83000D02*
D03*
Y-92000D02*
D03*
X240500Y-53000D02*
D03*
Y-44000D02*
D03*
X249000Y-53000D02*
D03*
Y-44000D02*
D03*
X199000Y-44500D02*
D03*
Y-53500D02*
D03*
X208000D02*
D03*
Y-44500D02*
D03*
X135000Y-22000D02*
D03*
Y-31000D02*
D03*
X125500Y-22000D02*
D03*
Y-31000D02*
D03*
X152000Y-94500D02*
D03*
Y-85500D02*
D03*
X143000Y-127000D02*
D03*
Y-136000D02*
D03*
X153000D02*
D03*
Y-145000D02*
D03*
X143500Y-154500D02*
D03*
Y-145500D02*
D03*
X143000Y-178000D02*
D03*
Y-169000D02*
D03*
X63000Y-206000D02*
D03*
Y-197000D02*
D03*
X54500Y-206000D02*
D03*
Y-197000D02*
D03*
X25500Y-156500D02*
D03*
Y-147500D02*
D03*
X29000Y-111000D02*
D03*
Y-102000D02*
D03*
X20000Y-111000D02*
D03*
Y-102000D02*
D03*
X93500Y-93000D02*
D03*
Y-84000D02*
D03*
Y-102500D02*
D03*
Y-111500D02*
D03*
X112500Y-82000D02*
D03*
Y-91000D02*
D03*
X77000Y-76000D02*
D03*
Y-67000D02*
D03*
X68000Y-76000D02*
D03*
Y-67000D02*
D03*
X55500Y-78500D02*
D03*
Y-87500D02*
D03*
X93000Y-302500D02*
D03*
Y-293500D02*
D03*
X209500Y-180500D02*
D03*
Y-189500D02*
D03*
D23*
X174500Y-239000D02*
D03*
X162500D02*
D03*
X174500Y-227000D02*
D03*
X162500D02*
D03*
X174500Y-215000D02*
D03*
X162500D02*
D03*
D24*
X165374Y-248260D02*
D03*
X174626Y-252000D02*
D03*
X256248Y-44260D02*
D03*
X265500Y-48000D02*
D03*
X111252Y-298760D02*
D03*
X102000Y-295020D02*
D03*
X142874Y-21760D02*
D03*
X152126Y-25500D02*
D03*
D25*
X165374Y-255740D02*
D03*
X256248Y-51740D02*
D03*
X102000Y-302500D02*
D03*
X142874Y-29240D02*
D03*
D26*
X143500Y-269114D02*
D03*
Y-282500D02*
D03*
X152500Y-269114D02*
D03*
Y-282500D02*
D03*
D27*
X170240Y-290374D02*
D03*
X166500Y-299626D02*
D03*
X286000Y-93000D02*
D03*
X289740Y-83748D02*
D03*
X140500Y-94500D02*
D03*
X144240Y-85248D02*
D03*
D28*
X162760Y-290374D02*
D03*
X293480Y-93000D02*
D03*
X136760Y-85248D02*
D03*
D29*
X181154Y-130673D02*
D03*
Y-132642D02*
D03*
Y-134610D02*
D03*
Y-136579D02*
D03*
Y-138547D02*
D03*
Y-140516D02*
D03*
Y-142484D02*
D03*
Y-144453D02*
D03*
Y-146421D02*
D03*
Y-148390D02*
D03*
Y-150358D02*
D03*
Y-152327D02*
D03*
X212846D02*
D03*
Y-150358D02*
D03*
Y-148390D02*
D03*
Y-146421D02*
D03*
Y-144453D02*
D03*
Y-142484D02*
D03*
Y-140516D02*
D03*
Y-138547D02*
D03*
Y-136579D02*
D03*
Y-134610D02*
D03*
Y-132642D02*
D03*
Y-130673D02*
D03*
D30*
X186173Y-157346D02*
D03*
X188142D02*
D03*
X190110D02*
D03*
X192079D02*
D03*
X194047D02*
D03*
X196016D02*
D03*
X197984D02*
D03*
X199953D02*
D03*
X201921D02*
D03*
X203890D02*
D03*
X205858D02*
D03*
X207827D02*
D03*
Y-125654D02*
D03*
X205858D02*
D03*
X203890D02*
D03*
X201921D02*
D03*
X199953D02*
D03*
X197984D02*
D03*
X196016D02*
D03*
X194047D02*
D03*
X192079D02*
D03*
X190110D02*
D03*
X188142D02*
D03*
X186173D02*
D03*
D31*
X180500Y-125000D02*
D03*
D32*
X102000Y-314000D02*
D03*
X84284D02*
D03*
D33*
X99000Y-272000D02*
D03*
X94000D02*
D03*
X89000D02*
D03*
X84000D02*
D03*
Y-250000D02*
D03*
X89000D02*
D03*
X94000D02*
D03*
X99000D02*
D03*
X74000Y-108500D02*
D03*
X69000D02*
D03*
X64000D02*
D03*
X59000D02*
D03*
X53800D02*
D03*
X49000D02*
D03*
X44000D02*
D03*
Y-132500D02*
D03*
X49000D02*
D03*
X54000D02*
D03*
X59000D02*
D03*
X64000D02*
D03*
X69000D02*
D03*
X74000D02*
D03*
D34*
X28000Y-204000D02*
D03*
D35*
X37000Y-229000D02*
D03*
X19000D02*
D03*
D36*
X28000D02*
D03*
D37*
X61500Y-181500D02*
D03*
X68800D02*
D03*
D38*
X104500Y-91000D02*
D03*
Y-82201D02*
D03*
D39*
X99000Y-59400D02*
D03*
X112500D02*
D03*
X99000Y-71000D02*
D03*
X112500D02*
D03*
D40*
X88000Y-59400D02*
D03*
Y-72900D02*
D03*
X265500Y-22500D02*
D03*
Y-36000D02*
D03*
D41*
X117000Y-213500D02*
D03*
Y-231217D02*
D03*
D42*
X101000Y-224500D02*
D03*
X76000D02*
D03*
D43*
X242500Y-17500D02*
D03*
Y-22500D02*
D03*
Y-27500D02*
D03*
Y-32500D02*
D03*
X220500D02*
D03*
Y-27500D02*
D03*
Y-22500D02*
D03*
Y-17500D02*
D03*
D81*
X43352Y-165000D02*
X52500D01*
X41852Y-166500D02*
X43352Y-165000D01*
X41500Y-166500D02*
X41852D01*
X17000Y-180000D02*
X26500D01*
X12500Y-175500D02*
X17000Y-180000D01*
X26500D02*
X28000Y-181500D01*
X37500Y-48000D02*
Y-41000D01*
Y-58500D02*
Y-48000D01*
X78250Y-46750D02*
X79500Y-45500D01*
X77000Y-48000D02*
X78250Y-46750D01*
X28000Y-186000D02*
Y-181500D01*
X29000Y-137500D02*
Y-131000D01*
X142000Y-78000D02*
X144240Y-80240D01*
X121500Y-78000D02*
X142000D01*
X144240Y-85248D02*
Y-80240D01*
X61500Y-165000D02*
Y-156000D01*
Y-174000D02*
Y-165000D01*
Y-181500D02*
Y-174000D01*
X265500Y-61500D02*
X273000D01*
X77000Y-147500D02*
Y-143500D01*
X74000Y-140500D02*
X77000Y-143500D01*
X87500Y-133000D02*
X88000Y-132500D01*
X83000Y-133000D02*
X87500D01*
X59000Y-132500D02*
Y-124500D01*
X55500Y-72500D02*
Y-67000D01*
X104500Y-82201D02*
Y-81226D01*
X55500Y-78500D02*
Y-72500D01*
X43000Y-35500D02*
X50000D01*
X37500Y-41000D02*
X43000Y-35500D01*
X34500Y-161500D02*
Y-156500D01*
X61500Y-147500D02*
X67000D01*
X52500Y-174000D02*
Y-165000D01*
X70500Y-140500D02*
X74000D01*
Y-132500D01*
X69000Y-139000D02*
Y-132500D01*
Y-139000D02*
X70500Y-140500D01*
Y-156000D02*
Y-146500D01*
X64000Y-140000D02*
Y-132500D01*
Y-140000D02*
X70500Y-146500D01*
X242500Y-27500D02*
X253000D01*
X256248Y-44260D02*
Y-30748D01*
X253000Y-27500D02*
X256248Y-30748D01*
X240760Y-44260D02*
X256248D01*
X240500Y-44000D02*
X240760Y-44260D01*
X70500Y-164500D02*
Y-156000D01*
Y-171500D02*
Y-164500D01*
Y-171500D02*
X72000Y-173000D01*
X70500Y-164500D02*
X77000D01*
X70500Y-156000D02*
X77000D01*
X72000Y-173000D02*
X77000D01*
X61500Y-156000D02*
X61650Y-156150D01*
X52500Y-147500D02*
Y-141000D01*
Y-156000D02*
Y-147500D01*
X54000Y-139500D02*
Y-132500D01*
X52500Y-141000D02*
X54000Y-139500D01*
X43500Y-156500D02*
Y-147500D01*
X25500D02*
X34500D01*
Y-141000D01*
X36000Y-139500D01*
X42000D01*
X43828Y-132672D02*
X44000Y-132500D01*
X43828Y-137672D02*
Y-132672D01*
X42000Y-139500D02*
X43828Y-137672D01*
X49000Y-138500D02*
Y-132500D01*
X47500Y-140000D02*
X49000Y-138500D01*
X45000Y-140000D02*
X47500D01*
X43500Y-147500D02*
Y-141500D01*
X45000Y-140000D01*
X59000Y-116500D02*
Y-108500D01*
X55000Y-120500D02*
X59000Y-116500D01*
X38500Y-120500D02*
X55000D01*
X36000Y-123000D02*
X38500Y-120500D01*
X29000Y-123000D02*
X36000D01*
X29000Y-131000D02*
Y-123000D01*
X93500Y-102500D02*
X103400D01*
X93500D02*
Y-93000D01*
Y-111500D02*
X103500D01*
X104500Y-91000D02*
X112500D01*
Y-102400D02*
Y-91000D01*
X112400Y-102500D02*
X112500Y-102400D01*
Y-82000D02*
Y-71000D01*
Y-59400D01*
X99000D02*
Y-36500D01*
X100000Y-35500D01*
X89000Y-36500D02*
X90000Y-35500D01*
X89000Y-45500D02*
Y-36500D01*
X88000Y-59400D02*
Y-46500D01*
X89000Y-45500D01*
X77000Y-123000D02*
X88000D01*
X74000Y-120000D02*
X77000Y-123000D01*
X74000Y-120000D02*
Y-108500D01*
X78000Y-94000D02*
Y-88000D01*
X74000Y-98000D02*
X78000Y-94000D01*
X74000Y-108500D02*
Y-98000D01*
X69000Y-108500D02*
Y-88000D01*
X62000Y-87500D02*
Y-77500D01*
Y-97000D02*
Y-87500D01*
X55500D02*
X62000D01*
X64000Y-108500D02*
Y-99000D01*
X62000Y-97000D02*
X64000Y-99000D01*
X62000Y-77500D02*
X63500Y-76000D01*
X68000D01*
X77000Y-80500D02*
Y-76000D01*
X75000Y-82500D02*
X77000Y-80500D01*
X70500Y-82500D02*
X75000D01*
X69000Y-88000D02*
Y-84000D01*
X70500Y-82500D01*
X77000Y-58500D02*
Y-48000D01*
Y-67000D02*
Y-58500D01*
X79500Y-36000D02*
X80000Y-35500D01*
X79500Y-45500D02*
Y-36000D01*
X68000Y-47500D02*
X70000Y-45500D01*
Y-35500D01*
X68000Y-58500D02*
Y-47500D01*
Y-67000D02*
Y-58500D01*
X29000Y-102000D02*
Y-92500D01*
X37500Y-74500D02*
Y-67000D01*
X29000Y-92500D02*
X34000D01*
X44000Y-102500D01*
Y-108500D02*
Y-102500D01*
X28500Y-79500D02*
Y-67000D01*
X49000Y-108500D02*
Y-100000D01*
X28500Y-79500D02*
X49000Y-100000D01*
X46500Y-90500D02*
X53800Y-97800D01*
Y-108500D02*
Y-97800D01*
X46500Y-90500D02*
Y-67000D01*
Y-58500D01*
X28500Y-67000D02*
Y-58500D01*
X60000Y-47500D02*
Y-35500D01*
X55500Y-52000D02*
X60000Y-47500D01*
X55500Y-58500D02*
Y-52000D01*
D82*
X28000Y-229000D02*
Y-190000D01*
Y-186000D01*
X50000Y-35500D02*
X50500Y-35000D01*
X133000Y-321500D02*
X314000D01*
X319500Y-83000D02*
Y-45000D01*
Y-316000D02*
Y-83000D01*
X314000Y-321500D02*
X319500Y-316000D01*
X299500Y-39000D02*
X313500D01*
X319500Y-45000D01*
X128500Y-317000D02*
Y-241500D01*
Y-317000D02*
X133000Y-321500D01*
X76000Y-224500D02*
Y-209000D01*
X63000Y-206000D02*
X73000D01*
X76000Y-209000D01*
X37000Y-229000D02*
X44000D01*
X48500Y-224500D02*
X54500D01*
X44000Y-229000D02*
X48500Y-224500D01*
X111376Y-287000D02*
Y-240624D01*
Y-298636D02*
Y-287000D01*
X114000Y-238000D02*
X125000D01*
X128500Y-241500D01*
X111376Y-240624D02*
X114000Y-238000D01*
X265500Y-22500D02*
X274000D01*
X290500Y-39000D01*
X299500D01*
X256248Y-51740D02*
X256374Y-51866D01*
Y-61374D02*
Y-51866D01*
Y-61374D02*
X256500Y-61500D01*
X265500Y-48000D02*
Y-36000D01*
Y-48000D02*
X265772Y-48272D01*
X298772D01*
X299500Y-49000D01*
X242500Y-22500D02*
X265500D01*
X54500Y-215500D02*
Y-206000D01*
Y-224500D02*
Y-215500D01*
Y-206000D02*
X63000D01*
X111252Y-298760D02*
X111376Y-298636D01*
X28000Y-229000D02*
X28000Y-229000D01*
Y-186000D02*
X28000Y-186000D01*
D83*
X197000Y-141250D02*
D03*
D84*
X94000Y-248750D02*
D03*
D85*
X104750Y-250000D02*
D03*
D86*
X100000Y-35500D02*
D03*
D87*
X90000D02*
D03*
X80000D02*
D03*
X70000D02*
D03*
X60000D02*
D03*
X50000D02*
D03*
D88*
X189000Y-223250D02*
D03*
Y-240750D02*
D03*
X214000D02*
D03*
Y-223250D02*
D03*
X259000Y-240750D02*
D03*
Y-223250D02*
D03*
X234000D02*
D03*
Y-240750D02*
D03*
X304000D02*
D03*
Y-223250D02*
D03*
X279000D02*
D03*
Y-240750D02*
D03*
X304000Y-285250D02*
D03*
Y-267750D02*
D03*
X279000D02*
D03*
Y-285250D02*
D03*
X259000D02*
D03*
Y-267750D02*
D03*
X234000D02*
D03*
Y-285250D02*
D03*
X214000Y-284750D02*
D03*
Y-267250D02*
D03*
X189000D02*
D03*
Y-284750D02*
D03*
D89*
X303000Y-139500D02*
D03*
Y-149500D02*
D03*
Y-159500D02*
D03*
Y-169500D02*
D03*
X294000Y-126000D02*
D03*
X284000D02*
D03*
X149902Y-71770D02*
D03*
X286000Y-149500D02*
D03*
Y-159500D02*
D03*
Y-169500D02*
D03*
X166657Y-26000D02*
D03*
X248439Y-87439D02*
D03*
X238439D02*
D03*
X228439D02*
D03*
X218439D02*
D03*
X198439D02*
D03*
X208439D02*
D03*
D90*
X303000Y-179500D02*
D03*
X286000D02*
D03*
D91*
X304000Y-126000D02*
D03*
X186343Y-26000D02*
D03*
X188439Y-87439D02*
D03*
D92*
X154500Y-112000D02*
D03*
Y-106400D02*
D03*
D93*
X119374Y-248000D02*
D03*
X111500D02*
D03*
X119374Y-270500D02*
D03*
X111500D02*
D03*
D94*
X56000Y-252500D02*
D03*
Y-272500D02*
D03*
Y-292500D02*
D03*
D95*
X150000Y-42243D02*
D03*
D96*
X299500Y-69000D02*
D03*
Y-59000D02*
D03*
Y-49000D02*
D03*
Y-39000D02*
D03*
D97*
X127000Y-131787D02*
D03*
Y-151000D02*
D03*
X159000Y-51000D02*
D03*
X127500Y-51500D02*
D03*
X110500Y-170500D02*
D03*
X236500Y-123500D02*
D03*
D98*
X170439Y-186561D02*
D03*
X266561Y-186439D02*
D03*
X266439Y-90817D02*
D03*
X170439Y-90939D02*
D03*
D99*
X97000Y-181000D02*
D03*
X97500Y-177000D02*
D03*
X92500Y-192500D02*
D03*
X279000Y-87500D02*
D03*
X293000Y-135000D02*
D03*
X280500Y-134500D02*
D03*
X311500Y-132500D02*
D03*
X311000Y-114000D02*
D03*
Y-94500D02*
D03*
X297000Y-79000D02*
D03*
X12500Y-175500D02*
D03*
X148500Y-174500D02*
D03*
X149000Y-164000D02*
D03*
X138500Y-164500D02*
D03*
X152500Y-264000D02*
D03*
X197000Y-140500D02*
D03*
X202000Y-146000D02*
D03*
X191976Y-144476D02*
D03*
X201000Y-135500D02*
D03*
X192500D02*
D03*
X185000Y-215000D02*
D03*
X180500Y-209000D02*
D03*
X167500Y-209500D02*
D03*
X151500Y-209000D02*
D03*
X139500Y-207500D02*
D03*
X168000Y-221000D02*
D03*
X156000Y-221500D02*
D03*
X147500D02*
D03*
X153500Y-233500D02*
D03*
X175000Y-258000D02*
D03*
X159500Y-255500D02*
D03*
X138000Y-263000D02*
D03*
X137500Y-277000D02*
D03*
Y-291000D02*
D03*
X138000Y-300500D02*
D03*
X158500Y-295500D02*
D03*
Y-286000D02*
D03*
X165000Y-264500D02*
D03*
X177500Y-266500D02*
D03*
X177000Y-276000D02*
D03*
X176500Y-287000D02*
D03*
X176000Y-298000D02*
D03*
X119500Y-165000D02*
D03*
Y-126500D02*
D03*
X118500Y-143500D02*
D03*
X151500Y-152000D02*
D03*
X133500Y-157500D02*
D03*
X119500D02*
D03*
X143500Y-120000D02*
D03*
X154000Y-127500D02*
D03*
X155000Y-119000D02*
D03*
X126500Y-118000D02*
D03*
X126000Y-101000D02*
D03*
X131500Y-97000D02*
D03*
X127000Y-90000D02*
D03*
X185500Y-69000D02*
D03*
X172000Y-76500D02*
D03*
X182000Y-58500D02*
D03*
X162000Y-71000D02*
D03*
X148000Y-65500D02*
D03*
X131000Y-67000D02*
D03*
X178500Y-37500D02*
D03*
X160500Y-40500D02*
D03*
X139000Y-40000D02*
D03*
X121000Y-39500D02*
D03*
X182000Y-15500D02*
D03*
X166500Y-14500D02*
D03*
X136500Y-15500D02*
D03*
X125000Y-14500D02*
D03*
X189000Y-79500D02*
D03*
X213000Y-80000D02*
D03*
X231500D02*
D03*
X251000Y-80500D02*
D03*
X272000Y-79500D02*
D03*
X254500Y-98500D02*
D03*
X266000Y-109500D02*
D03*
X251000D02*
D03*
X240000D02*
D03*
X228500Y-110000D02*
D03*
X258000Y-126000D02*
D03*
X272500D02*
D03*
X246000Y-123000D02*
D03*
X245000Y-137500D02*
D03*
X232000Y-142000D02*
D03*
X224500Y-148000D02*
D03*
X230000Y-158500D02*
D03*
X230500Y-165500D02*
D03*
X243000Y-150500D02*
D03*
X252500Y-147000D02*
D03*
X253500Y-154500D02*
D03*
X275500Y-153500D02*
D03*
X273000Y-206500D02*
D03*
X269000Y-175000D02*
D03*
X253000Y-176500D02*
D03*
X240500Y-176000D02*
D03*
X229000D02*
D03*
X213000Y-174500D02*
D03*
X213500Y-164500D02*
D03*
X219000Y-159500D02*
D03*
X219500Y-203000D02*
D03*
X211500D02*
D03*
X218500Y-189500D02*
D03*
X234500D02*
D03*
X250500D02*
D03*
X286500Y-191000D02*
D03*
X305000Y-190500D02*
D03*
X263000Y-207000D02*
D03*
X245500Y-206500D02*
D03*
X230500Y-206000D02*
D03*
X286000Y-208500D02*
D03*
X306000Y-208000D02*
D03*
X199500Y-218500D02*
D03*
X291000Y-232500D02*
D03*
X245500D02*
D03*
X202500Y-234500D02*
D03*
X212500Y-255500D02*
D03*
X188500Y-254000D02*
D03*
X234000Y-255500D02*
D03*
X261000D02*
D03*
X289500Y-256500D02*
D03*
X310500Y-255500D02*
D03*
X311000Y-278500D02*
D03*
X267500Y-277500D02*
D03*
X224000Y-277000D02*
D03*
X201500Y-277500D02*
D03*
X248500D02*
D03*
X292500Y-276500D02*
D03*
X288500Y-300500D02*
D03*
X261500D02*
D03*
X235500D02*
D03*
X212500Y-299000D02*
D03*
X190000D02*
D03*
X254000Y-312500D02*
D03*
X272000Y-311500D02*
D03*
X237000D02*
D03*
X213000Y-312500D02*
D03*
X190000Y-311500D02*
D03*
X173000Y-312000D02*
D03*
X157500D02*
D03*
X233500Y-19500D02*
D03*
X232000Y-13500D02*
D03*
X203500Y-28500D02*
D03*
X198500Y-34000D02*
D03*
X209000Y-23500D02*
D03*
X198500Y-22500D02*
D03*
X209000Y-15000D02*
D03*
X199000D02*
D03*
X224500Y-38000D02*
D03*
X214000D02*
D03*
X239000Y-37500D02*
D03*
X248500D02*
D03*
X252500Y-14500D02*
D03*
X267000Y-15000D02*
D03*
X283000Y-16000D02*
D03*
X273500Y-41500D02*
D03*
X275000Y-32500D02*
D03*
X283500Y-43000D02*
D03*
X270500Y-54500D02*
D03*
X284500Y-53000D02*
D03*
Y-60000D02*
D03*
X285000Y-69000D02*
D03*
X269500Y-68500D02*
D03*
X257500D02*
D03*
X246000D02*
D03*
X231000D02*
D03*
X216500Y-68000D02*
D03*
X205500D02*
D03*
X109500Y-176000D02*
D03*
X105500Y-96000D02*
D03*
X93500Y-53500D02*
D03*
X105500D02*
D03*
X100500Y-96000D02*
D03*
X87500Y-98000D02*
D03*
Y-80000D02*
D03*
Y-116500D02*
D03*
X107500Y-120500D02*
D03*
X107000Y-159500D02*
D03*
X93500Y-155000D02*
D03*
Y-162500D02*
D03*
X99000Y-185000D02*
D03*
X87500Y-184500D02*
D03*
X55000Y-183000D02*
D03*
X48500Y-183500D02*
D03*
X41500Y-166500D02*
D03*
X17000D02*
D03*
X124500Y-203000D02*
D03*
X116000Y-200500D02*
D03*
X108000Y-199000D02*
D03*
X99500Y-197500D02*
D03*
X90000Y-197000D02*
D03*
X80000D02*
D03*
X71500D02*
D03*
X70500Y-236000D02*
D03*
X99000Y-281000D02*
D03*
X86500Y-281500D02*
D03*
X118500Y-304500D02*
D03*
X119500Y-317500D02*
D03*
X81500Y-288000D02*
D03*
X82000Y-300500D02*
D03*
X20000Y-244500D02*
D03*
X19000Y-255500D02*
D03*
Y-266500D02*
D03*
Y-276000D02*
D03*
X92500Y-173000D02*
D03*
X29000Y-137500D02*
D03*
X118500Y-178000D02*
D03*
X273000Y-61500D02*
D03*
X83000Y-133000D02*
D03*
X59000Y-124500D02*
D03*
X55500Y-72500D02*
D03*
X34500Y-161500D02*
D03*
X67000Y-147500D02*
D03*
X74000Y-140500D02*
D03*
X102000Y-287000D02*
D03*
X143500Y-233500D02*
D03*
X130000Y-85000D02*
D03*
X37500Y-74500D02*
D03*
X29000Y-92500D02*
D03*
D100*
X37500Y-48000D02*
D03*
X78250Y-46750D02*
D03*
X216500Y-180500D02*
D03*
X138000Y-178000D02*
D03*
X184000Y-100500D02*
D03*
X226500Y-138500D02*
D03*
M02*
